<?xml version="1.0" encoding="UTF-8" standalone="no"?>
<!DOCTYPE svg PUBLIC "-//W3C//DTD SVG 1.1//EN"
 "http://www.w3.org/Graphics/SVG/1.1/DTD/svg11.dtd">
<!-- Generated by graphviz version 2.38.0 (20140413.2041)
 -->
<!-- Title: Tree Pages: 1 -->
<svg width="1339pt" height="766pt"
 viewBox="0.00 0.00 1338.54 766.40" xmlns="http://www.w3.org/2000/svg" xmlns:xlink="http://www.w3.org/1999/xlink">
<g id="graph0" class="graph" transform="scale(1 1) rotate(0) translate(4 762.4)">
<title>Tree</title>
<polygon fill="white" stroke="none" points="-4,4 -4,-762.4 1334.54,-762.4 1334.54,4 -4,4"/>
<!-- 0 -->
<g id="node1" class="node"><title>0</title>
<path fill="#e58139" fill-opacity="0.015686" stroke="black" d="M648.938,-758.4C648.938,-758.4 545.6,-758.4 545.6,-758.4 539.6,-758.4 533.6,-752.4 533.6,-746.4 533.6,-746.4 533.6,-706.4 533.6,-706.4 533.6,-700.4 539.6,-694.4 545.6,-694.4 545.6,-694.4 648.938,-694.4 648.938,-694.4 654.938,-694.4 660.938,-700.4 660.938,-706.4 660.938,-706.4 660.938,-746.4 660.938,-746.4 660.938,-752.4 654.938,-758.4 648.938,-758.4"/>
<text text-anchor="start" x="570.032" y="-742.8" font-family="Helvetica,sans-Serif" font-size="14.00">X</text>
<text text-anchor="start" x="579.369" y="-742.8" font-family="Helvetica,sans-Serif" baseline-shift="sub" font-size="14.00">1</text>
<text text-anchor="start" x="587.151" y="-742.8" font-family="Helvetica,sans-Serif" font-size="14.00"> ≤ 1.5</text>
<text text-anchor="start" x="568.674" y="-728.8" font-family="Helvetica,sans-Serif" font-size="14.00">gini = 0.5</text>
<text text-anchor="start" x="551.56" y="-714.8" font-family="Helvetica,sans-Serif" font-size="14.00">samples = 546</text>
<text text-anchor="start" x="541.435" y="-700.8" font-family="Helvetica,sans-Serif" font-size="14.00">value = [275, 271]</text>
</g>
<!-- 1 -->
<g id="node2" class="node"><title>1</title>
<path fill="#e58139" fill-opacity="0.364706" stroke="black" d="M548.938,-658.4C548.938,-658.4 445.6,-658.4 445.6,-658.4 439.6,-658.4 433.6,-652.4 433.6,-646.4 433.6,-646.4 433.6,-606.4 433.6,-606.4 433.6,-600.4 439.6,-594.4 445.6,-594.4 445.6,-594.4 548.938,-594.4 548.938,-594.4 554.938,-594.4 560.938,-600.4 560.938,-606.4 560.938,-606.4 560.938,-646.4 560.938,-646.4 560.938,-652.4 554.938,-658.4 548.938,-658.4"/>
<text text-anchor="start" x="470.032" y="-642.8" font-family="Helvetica,sans-Serif" font-size="14.00">X</text>
<text text-anchor="start" x="479.368" y="-642.8" font-family="Helvetica,sans-Serif" baseline-shift="sub" font-size="14.00">0</text>
<text text-anchor="start" x="487.151" y="-642.8" font-family="Helvetica,sans-Serif" font-size="14.00"> ≤ 2.5</text>
<text text-anchor="start" x="457" y="-628.8" font-family="Helvetica,sans-Serif" font-size="14.00">gini = 0.4749</text>
<text text-anchor="start" x="451.56" y="-614.8" font-family="Helvetica,sans-Serif" font-size="14.00">samples = 402</text>
<text text-anchor="start" x="441.435" y="-600.8" font-family="Helvetica,sans-Serif" font-size="14.00">value = [246, 156]</text>
</g>
<!-- 0&#45;&gt;1 -->
<g id="edge1" class="edge"><title>0&#45;&gt;1</title>
<path fill="none" stroke="black" d="M565.628,-694.392C556.326,-685.276 546.04,-675.196 536.332,-665.682"/>
<polygon fill="black" stroke="black" points="538.639,-663.042 529.047,-658.542 533.739,-668.042 538.639,-663.042"/>
<text text-anchor="middle" x="529.299" y="-679.341" font-family="Helvetica,sans-Serif" font-size="14.00">True</text>
</g>
<!-- 18 -->
<g id="node19" class="node"><title>18</title>
<path fill="#399de5" fill-opacity="0.749020" stroke="black" d="M745.155,-658.4C745.155,-658.4 649.383,-658.4 649.383,-658.4 643.383,-658.4 637.383,-652.4 637.383,-646.4 637.383,-646.4 637.383,-606.4 637.383,-606.4 637.383,-600.4 643.383,-594.4 649.383,-594.4 649.383,-594.4 745.155,-594.4 745.155,-594.4 751.155,-594.4 757.155,-600.4 757.155,-606.4 757.155,-606.4 757.155,-646.4 757.155,-646.4 757.155,-652.4 751.155,-658.4 745.155,-658.4"/>
<text text-anchor="start" x="670.032" y="-642.8" font-family="Helvetica,sans-Serif" font-size="14.00">X</text>
<text text-anchor="start" x="679.369" y="-642.8" font-family="Helvetica,sans-Serif" baseline-shift="sub" font-size="14.00">0</text>
<text text-anchor="start" x="687.151" y="-642.8" font-family="Helvetica,sans-Serif" font-size="14.00"> ≤ 2.5</text>
<text text-anchor="start" x="657" y="-628.8" font-family="Helvetica,sans-Serif" font-size="14.00">gini = 0.3217</text>
<text text-anchor="start" x="651.56" y="-614.8" font-family="Helvetica,sans-Serif" font-size="14.00">samples = 144</text>
<text text-anchor="start" x="645.326" y="-600.8" font-family="Helvetica,sans-Serif" font-size="14.00">value = [29, 115]</text>
</g>
<!-- 0&#45;&gt;18 -->
<g id="edge18" class="edge"><title>0&#45;&gt;18</title>
<path fill="none" stroke="black" d="M628.91,-694.392C638.211,-685.276 648.498,-675.196 658.206,-665.682"/>
<polygon fill="black" stroke="black" points="660.798,-668.042 665.491,-658.542 655.899,-663.042 660.798,-668.042"/>
<text text-anchor="middle" x="665.238" y="-679.341" font-family="Helvetica,sans-Serif" font-size="14.00">False</text>
</g>
<!-- 2 -->
<g id="node3" class="node"><title>2</title>
<path fill="#e58139" fill-opacity="0.772549" stroke="black" d="M344.155,-558.4C344.155,-558.4 248.383,-558.4 248.383,-558.4 242.383,-558.4 236.383,-552.4 236.383,-546.4 236.383,-546.4 236.383,-506.4 236.383,-506.4 236.383,-500.4 242.383,-494.4 248.383,-494.4 248.383,-494.4 344.155,-494.4 344.155,-494.4 350.155,-494.4 356.155,-500.4 356.155,-506.4 356.155,-506.4 356.155,-546.4 356.155,-546.4 356.155,-552.4 350.155,-558.4 344.155,-558.4"/>
<text text-anchor="start" x="269.032" y="-542.8" font-family="Helvetica,sans-Serif" font-size="14.00">X</text>
<text text-anchor="start" x="278.368" y="-542.8" font-family="Helvetica,sans-Serif" baseline-shift="sub" font-size="14.00">2</text>
<text text-anchor="start" x="286.151" y="-542.8" font-family="Helvetica,sans-Serif" font-size="14.00"> ≤ 0.5</text>
<text text-anchor="start" x="256" y="-528.8" font-family="Helvetica,sans-Serif" font-size="14.00">gini = 0.3011</text>
<text text-anchor="start" x="250.56" y="-514.8" font-family="Helvetica,sans-Serif" font-size="14.00">samples = 130</text>
<text text-anchor="start" x="244.326" y="-500.8" font-family="Helvetica,sans-Serif" font-size="14.00">value = [106, 24]</text>
</g>
<!-- 1&#45;&gt;2 -->
<g id="edge2" class="edge"><title>1&#45;&gt;2</title>
<path fill="none" stroke="black" d="M433.671,-594.392C411.938,-583.796 387.531,-571.896 365.384,-561.098"/>
<polygon fill="black" stroke="black" points="366.894,-557.94 356.371,-556.704 363.826,-564.232 366.894,-557.94"/>
</g>
<!-- 7 -->
<g id="node8" class="node"><title>7</title>
<path fill="#e58139" fill-opacity="0.058824" stroke="black" d="M548.938,-558.4C548.938,-558.4 445.6,-558.4 445.6,-558.4 439.6,-558.4 433.6,-552.4 433.6,-546.4 433.6,-546.4 433.6,-506.4 433.6,-506.4 433.6,-500.4 439.6,-494.4 445.6,-494.4 445.6,-494.4 548.938,-494.4 548.938,-494.4 554.938,-494.4 560.938,-500.4 560.938,-506.4 560.938,-506.4 560.938,-546.4 560.938,-546.4 560.938,-552.4 554.938,-558.4 548.938,-558.4"/>
<text text-anchor="start" x="470.032" y="-542.8" font-family="Helvetica,sans-Serif" font-size="14.00">X</text>
<text text-anchor="start" x="479.368" y="-542.8" font-family="Helvetica,sans-Serif" baseline-shift="sub" font-size="14.00">2</text>
<text text-anchor="start" x="487.151" y="-542.8" font-family="Helvetica,sans-Serif" font-size="14.00"> ≤ 0.5</text>
<text text-anchor="start" x="457" y="-528.8" font-family="Helvetica,sans-Serif" font-size="14.00">gini = 0.4996</text>
<text text-anchor="start" x="451.56" y="-514.8" font-family="Helvetica,sans-Serif" font-size="14.00">samples = 272</text>
<text text-anchor="start" x="441.435" y="-500.8" font-family="Helvetica,sans-Serif" font-size="14.00">value = [140, 132]</text>
</g>
<!-- 1&#45;&gt;7 -->
<g id="edge7" class="edge"><title>1&#45;&gt;7</title>
<path fill="none" stroke="black" d="M497.269,-594.392C497.269,-586.259 497.269,-577.359 497.269,-568.778"/>
<polygon fill="black" stroke="black" points="500.769,-568.542 497.269,-558.542 493.769,-568.542 500.769,-568.542"/>
</g>
<!-- 3 -->
<g id="node4" class="node"><title>3</title>
<path fill="#e58139" fill-opacity="0.894118" stroke="black" d="M210.372,-458.4C210.372,-458.4 122.166,-458.4 122.166,-458.4 116.166,-458.4 110.166,-452.4 110.166,-446.4 110.166,-446.4 110.166,-406.4 110.166,-406.4 110.166,-400.4 116.166,-394.4 122.166,-394.4 122.166,-394.4 210.372,-394.4 210.372,-394.4 216.372,-394.4 222.372,-400.4 222.372,-406.4 222.372,-406.4 222.372,-446.4 222.372,-446.4 222.372,-452.4 216.372,-458.4 210.372,-458.4"/>
<text text-anchor="start" x="139.032" y="-442.8" font-family="Helvetica,sans-Serif" font-size="14.00">X</text>
<text text-anchor="start" x="148.369" y="-442.8" font-family="Helvetica,sans-Serif" baseline-shift="sub" font-size="14.00">0</text>
<text text-anchor="start" x="156.151" y="-442.8" font-family="Helvetica,sans-Serif" font-size="14.00"> ≤ 1.5</text>
<text text-anchor="start" x="126" y="-428.8" font-family="Helvetica,sans-Serif" font-size="14.00">gini = 0.1753</text>
<text text-anchor="start" x="120.56" y="-414.8" font-family="Helvetica,sans-Serif" font-size="14.00">samples = 103</text>
<text text-anchor="start" x="118.217" y="-400.8" font-family="Helvetica,sans-Serif" font-size="14.00">value = [93, 10]</text>
</g>
<!-- 2&#45;&gt;3 -->
<g id="edge3" class="edge"><title>2&#45;&gt;3</title>
<path fill="none" stroke="black" d="M255.136,-494.392C242.569,-484.919 228.621,-474.404 215.57,-464.565"/>
<polygon fill="black" stroke="black" points="217.672,-461.767 207.58,-458.542 213.459,-467.357 217.672,-461.767"/>
</g>
<!-- 6 -->
<g id="node7" class="node"><title>6</title>
<path fill="#399de5" fill-opacity="0.070588" stroke="black" d="M340.372,-455.801C340.372,-455.801 252.166,-455.801 252.166,-455.801 246.166,-455.801 240.166,-449.801 240.166,-443.801 240.166,-443.801 240.166,-408.999 240.166,-408.999 240.166,-402.999 246.166,-396.999 252.166,-396.999 252.166,-396.999 340.372,-396.999 340.372,-396.999 346.372,-396.999 352.372,-402.999 352.372,-408.999 352.372,-408.999 352.372,-443.801 352.372,-443.801 352.372,-449.801 346.372,-455.801 340.372,-455.801"/>
<text text-anchor="start" x="256" y="-439" font-family="Helvetica,sans-Serif" font-size="14.00">gini = 0.4993</text>
<text text-anchor="start" x="254.451" y="-422.2" font-family="Helvetica,sans-Serif" font-size="14.00">samples = 27</text>
<text text-anchor="start" x="248.217" y="-405.4" font-family="Helvetica,sans-Serif" font-size="14.00">value = [13, 14]</text>
</g>
<!-- 2&#45;&gt;6 -->
<g id="edge6" class="edge"><title>2&#45;&gt;6</title>
<path fill="none" stroke="black" d="M296.269,-494.392C296.269,-485.429 296.269,-475.533 296.269,-466.16"/>
<polygon fill="black" stroke="black" points="299.769,-465.877 296.269,-455.877 292.769,-465.877 299.769,-465.877"/>
</g>
<!-- 4 -->
<g id="node5" class="node"><title>4</title>
<path fill="#e58139" stroke="black" d="M84.3078,-355.801C84.3078,-355.801 12.23,-355.801 12.23,-355.801 6.23,-355.801 0.229999,-349.801 0.229999,-343.801 0.229999,-343.801 0.229999,-308.999 0.229999,-308.999 0.229999,-302.999 6.23,-296.999 12.23,-296.999 12.23,-296.999 84.3078,-296.999 84.3078,-296.999 90.3078,-296.999 96.3078,-302.999 96.3078,-308.999 96.3078,-308.999 96.3078,-343.801 96.3078,-343.801 96.3078,-349.801 90.3078,-355.801 84.3078,-355.801"/>
<text text-anchor="start" x="19.6739" y="-339" font-family="Helvetica,sans-Serif" font-size="14.00">gini = 0.0</text>
<text text-anchor="start" x="10.3422" y="-322.2" font-family="Helvetica,sans-Serif" font-size="14.00">samples = 2</text>
<text text-anchor="start" x="8" y="-305.4" font-family="Helvetica,sans-Serif" font-size="14.00">value = [2, 0]</text>
</g>
<!-- 3&#45;&gt;4 -->
<g id="edge4" class="edge"><title>3&#45;&gt;4</title>
<path fill="none" stroke="black" d="M128.933,-394.392C116.748,-384.272 103.131,-372.963 90.6053,-362.561"/>
<polygon fill="black" stroke="black" points="92.487,-359.574 82.5579,-355.877 88.0146,-364.959 92.487,-359.574"/>
</g>
<!-- 5 -->
<g id="node6" class="node"><title>5</title>
<path fill="#e58139" fill-opacity="0.890196" stroke="black" d="M214.372,-355.801C214.372,-355.801 126.166,-355.801 126.166,-355.801 120.166,-355.801 114.166,-349.801 114.166,-343.801 114.166,-343.801 114.166,-308.999 114.166,-308.999 114.166,-302.999 120.166,-296.999 126.166,-296.999 126.166,-296.999 214.372,-296.999 214.372,-296.999 220.372,-296.999 226.372,-302.999 226.372,-308.999 226.372,-308.999 226.372,-343.801 226.372,-343.801 226.372,-349.801 220.372,-355.801 214.372,-355.801"/>
<text text-anchor="start" x="130" y="-339" font-family="Helvetica,sans-Serif" font-size="14.00">gini = 0.1784</text>
<text text-anchor="start" x="124.56" y="-322.2" font-family="Helvetica,sans-Serif" font-size="14.00">samples = 101</text>
<text text-anchor="start" x="122.217" y="-305.4" font-family="Helvetica,sans-Serif" font-size="14.00">value = [91, 10]</text>
</g>
<!-- 3&#45;&gt;5 -->
<g id="edge5" class="edge"><title>3&#45;&gt;5</title>
<path fill="none" stroke="black" d="M167.535,-394.392C167.9,-385.429 168.304,-375.533 168.687,-366.16"/>
<polygon fill="black" stroke="black" points="172.196,-366.012 169.107,-355.877 165.202,-365.726 172.196,-366.012"/>
</g>
<!-- 8 -->
<g id="node9" class="node"><title>8</title>
<path fill="#e58139" fill-opacity="0.290196" stroke="black" d="M478.155,-458.4C478.155,-458.4 382.383,-458.4 382.383,-458.4 376.383,-458.4 370.383,-452.4 370.383,-446.4 370.383,-446.4 370.383,-406.4 370.383,-406.4 370.383,-400.4 376.383,-394.4 382.383,-394.4 382.383,-394.4 478.155,-394.4 478.155,-394.4 484.155,-394.4 490.155,-400.4 490.155,-406.4 490.155,-406.4 490.155,-446.4 490.155,-446.4 490.155,-452.4 484.155,-458.4 478.155,-458.4"/>
<text text-anchor="start" x="403.032" y="-442.8" font-family="Helvetica,sans-Serif" font-size="14.00">X</text>
<text text-anchor="start" x="412.368" y="-442.8" font-family="Helvetica,sans-Serif" baseline-shift="sub" font-size="14.00">0</text>
<text text-anchor="start" x="420.151" y="-442.8" font-family="Helvetica,sans-Serif" font-size="14.00"> ≤ 4.5</text>
<text text-anchor="start" x="390" y="-428.8" font-family="Helvetica,sans-Serif" font-size="14.00">gini = 0.4856</text>
<text text-anchor="start" x="384.56" y="-414.8" font-family="Helvetica,sans-Serif" font-size="14.00">samples = 171</text>
<text text-anchor="start" x="378.326" y="-400.8" font-family="Helvetica,sans-Serif" font-size="14.00">value = [100, 71]</text>
</g>
<!-- 7&#45;&gt;8 -->
<g id="edge8" class="edge"><title>7&#45;&gt;8</title>
<path fill="none" stroke="black" d="M476.07,-494.392C470.082,-485.634 463.485,-475.985 457.208,-466.804"/>
<polygon fill="black" stroke="black" points="460.093,-464.822 451.56,-458.542 454.315,-468.773 460.093,-464.822"/>
</g>
<!-- 13 -->
<g id="node14" class="node"><title>13</title>
<path fill="#399de5" fill-opacity="0.345098" stroke="black" d="M608.372,-458.4C608.372,-458.4 520.166,-458.4 520.166,-458.4 514.166,-458.4 508.166,-452.4 508.166,-446.4 508.166,-446.4 508.166,-406.4 508.166,-406.4 508.166,-400.4 514.166,-394.4 520.166,-394.4 520.166,-394.4 608.372,-394.4 608.372,-394.4 614.372,-394.4 620.372,-400.4 620.372,-406.4 620.372,-406.4 620.372,-446.4 620.372,-446.4 620.372,-452.4 614.372,-458.4 608.372,-458.4"/>
<text text-anchor="start" x="537.032" y="-442.8" font-family="Helvetica,sans-Serif" font-size="14.00">X</text>
<text text-anchor="start" x="546.369" y="-442.8" font-family="Helvetica,sans-Serif" baseline-shift="sub" font-size="14.00">0</text>
<text text-anchor="start" x="554.151" y="-442.8" font-family="Helvetica,sans-Serif" font-size="14.00"> ≤ 4.5</text>
<text text-anchor="start" x="524" y="-428.8" font-family="Helvetica,sans-Serif" font-size="14.00">gini = 0.4784</text>
<text text-anchor="start" x="518.56" y="-414.8" font-family="Helvetica,sans-Serif" font-size="14.00">samples = 101</text>
<text text-anchor="start" x="516.217" y="-400.8" font-family="Helvetica,sans-Serif" font-size="14.00">value = [40, 61]</text>
</g>
<!-- 7&#45;&gt;13 -->
<g id="edge13" class="edge"><title>7&#45;&gt;13</title>
<path fill="none" stroke="black" d="M518.468,-494.392C524.456,-485.634 531.053,-475.985 537.33,-466.804"/>
<polygon fill="black" stroke="black" points="540.223,-468.773 542.978,-458.542 534.444,-464.822 540.223,-468.773"/>
</g>
<!-- 9 -->
<g id="node10" class="node"><title>9</title>
<path fill="#e58139" fill-opacity="0.274510" stroke="black" d="M348.372,-358.4C348.372,-358.4 260.166,-358.4 260.166,-358.4 254.166,-358.4 248.166,-352.4 248.166,-346.4 248.166,-346.4 248.166,-306.4 248.166,-306.4 248.166,-300.4 254.166,-294.4 260.166,-294.4 260.166,-294.4 348.372,-294.4 348.372,-294.4 354.372,-294.4 360.372,-300.4 360.372,-306.4 360.372,-306.4 360.372,-346.4 360.372,-346.4 360.372,-352.4 354.372,-358.4 348.372,-358.4"/>
<text text-anchor="start" x="277.032" y="-342.8" font-family="Helvetica,sans-Serif" font-size="14.00">X</text>
<text text-anchor="start" x="286.368" y="-342.8" font-family="Helvetica,sans-Serif" baseline-shift="sub" font-size="14.00">0</text>
<text text-anchor="start" x="294.151" y="-342.8" font-family="Helvetica,sans-Serif" font-size="14.00"> ≤ 3.5</text>
<text text-anchor="start" x="264" y="-328.8" font-family="Helvetica,sans-Serif" font-size="14.00">gini = 0.4872</text>
<text text-anchor="start" x="258.56" y="-314.8" font-family="Helvetica,sans-Serif" font-size="14.00">samples = 169</text>
<text text-anchor="start" x="256.217" y="-300.8" font-family="Helvetica,sans-Serif" font-size="14.00">value = [98, 71]</text>
</g>
<!-- 8&#45;&gt;9 -->
<g id="edge9" class="edge"><title>8&#45;&gt;9</title>
<path fill="none" stroke="black" d="M390.402,-394.392C378.337,-385.008 364.957,-374.602 352.411,-364.844"/>
<polygon fill="black" stroke="black" points="354.352,-361.919 344.309,-358.542 350.054,-367.445 354.352,-361.919"/>
</g>
<!-- 12 -->
<g id="node13" class="node"><title>12</title>
<path fill="#e58139" stroke="black" d="M466.308,-355.801C466.308,-355.801 394.23,-355.801 394.23,-355.801 388.23,-355.801 382.23,-349.801 382.23,-343.801 382.23,-343.801 382.23,-308.999 382.23,-308.999 382.23,-302.999 388.23,-296.999 394.23,-296.999 394.23,-296.999 466.308,-296.999 466.308,-296.999 472.308,-296.999 478.308,-302.999 478.308,-308.999 478.308,-308.999 478.308,-343.801 478.308,-343.801 478.308,-349.801 472.308,-355.801 466.308,-355.801"/>
<text text-anchor="start" x="401.674" y="-339" font-family="Helvetica,sans-Serif" font-size="14.00">gini = 0.0</text>
<text text-anchor="start" x="392.342" y="-322.2" font-family="Helvetica,sans-Serif" font-size="14.00">samples = 2</text>
<text text-anchor="start" x="390" y="-305.4" font-family="Helvetica,sans-Serif" font-size="14.00">value = [2, 0]</text>
</g>
<!-- 8&#45;&gt;12 -->
<g id="edge12" class="edge"><title>8&#45;&gt;12</title>
<path fill="none" stroke="black" d="M430.269,-394.392C430.269,-385.429 430.269,-375.533 430.269,-366.16"/>
<polygon fill="black" stroke="black" points="433.769,-365.877 430.269,-355.877 426.769,-365.877 433.769,-365.877"/>
</g>
<!-- 10 -->
<g id="node11" class="node"><title>10</title>
<path fill="#e58139" fill-opacity="0.250980" stroke="black" d="M218.372,-255.801C218.372,-255.801 130.166,-255.801 130.166,-255.801 124.166,-255.801 118.166,-249.801 118.166,-243.801 118.166,-243.801 118.166,-208.999 118.166,-208.999 118.166,-202.999 124.166,-196.999 130.166,-196.999 130.166,-196.999 218.372,-196.999 218.372,-196.999 224.372,-196.999 230.372,-202.999 230.372,-208.999 230.372,-208.999 230.372,-243.801 230.372,-243.801 230.372,-249.801 224.372,-255.801 218.372,-255.801"/>
<text text-anchor="start" x="134" y="-239" font-family="Helvetica,sans-Serif" font-size="14.00">gini = 0.4898</text>
<text text-anchor="start" x="128.56" y="-222.2" font-family="Helvetica,sans-Serif" font-size="14.00">samples = 140</text>
<text text-anchor="start" x="126.217" y="-205.4" font-family="Helvetica,sans-Serif" font-size="14.00">value = [80, 60]</text>
</g>
<!-- 9&#45;&gt;10 -->
<g id="edge10" class="edge"><title>9&#45;&gt;10</title>
<path fill="none" stroke="black" d="M263.136,-294.392C249.456,-284.079 234.138,-272.532 220.123,-261.967"/>
<polygon fill="black" stroke="black" points="222.137,-259.102 212.045,-255.877 217.923,-264.692 222.137,-259.102"/>
</g>
<!-- 11 -->
<g id="node12" class="node"><title>11</title>
<path fill="#e58139" fill-opacity="0.388235" stroke="black" d="M348.372,-255.801C348.372,-255.801 260.166,-255.801 260.166,-255.801 254.166,-255.801 248.166,-249.801 248.166,-243.801 248.166,-243.801 248.166,-208.999 248.166,-208.999 248.166,-202.999 254.166,-196.999 260.166,-196.999 260.166,-196.999 348.372,-196.999 348.372,-196.999 354.372,-196.999 360.372,-202.999 360.372,-208.999 360.372,-208.999 360.372,-243.801 360.372,-243.801 360.372,-249.801 354.372,-255.801 348.372,-255.801"/>
<text text-anchor="start" x="264" y="-239" font-family="Helvetica,sans-Serif" font-size="14.00">gini = 0.4709</text>
<text text-anchor="start" x="262.451" y="-222.2" font-family="Helvetica,sans-Serif" font-size="14.00">samples = 29</text>
<text text-anchor="start" x="256.217" y="-205.4" font-family="Helvetica,sans-Serif" font-size="14.00">value = [18, 11]</text>
</g>
<!-- 9&#45;&gt;11 -->
<g id="edge11" class="edge"><title>9&#45;&gt;11</title>
<path fill="none" stroke="black" d="M304.269,-294.392C304.269,-285.429 304.269,-275.533 304.269,-266.16"/>
<polygon fill="black" stroke="black" points="307.769,-265.877 304.269,-255.877 300.769,-265.877 307.769,-265.877"/>
</g>
<!-- 14 -->
<g id="node15" class="node"><title>14</title>
<path fill="#399de5" fill-opacity="0.337255" stroke="black" d="M599.372,-358.4C599.372,-358.4 511.166,-358.4 511.166,-358.4 505.166,-358.4 499.166,-352.4 499.166,-346.4 499.166,-346.4 499.166,-306.4 499.166,-306.4 499.166,-300.4 505.166,-294.4 511.166,-294.4 511.166,-294.4 599.372,-294.4 599.372,-294.4 605.372,-294.4 611.372,-300.4 611.372,-306.4 611.372,-306.4 611.372,-346.4 611.372,-346.4 611.372,-352.4 605.372,-358.4 599.372,-358.4"/>
<text text-anchor="start" x="528.032" y="-342.8" font-family="Helvetica,sans-Serif" font-size="14.00">X</text>
<text text-anchor="start" x="537.369" y="-342.8" font-family="Helvetica,sans-Serif" baseline-shift="sub" font-size="14.00">0</text>
<text text-anchor="start" x="545.151" y="-342.8" font-family="Helvetica,sans-Serif" font-size="14.00"> ≤ 3.5</text>
<text text-anchor="start" x="515" y="-328.8" font-family="Helvetica,sans-Serif" font-size="14.00">gini = 0.4792</text>
<text text-anchor="start" x="513.451" y="-314.8" font-family="Helvetica,sans-Serif" font-size="14.00">samples = 98</text>
<text text-anchor="start" x="507.217" y="-300.8" font-family="Helvetica,sans-Serif" font-size="14.00">value = [39, 59]</text>
</g>
<!-- 13&#45;&gt;14 -->
<g id="edge14" class="edge"><title>13&#45;&gt;14</title>
<path fill="none" stroke="black" d="M561.421,-394.392C560.674,-386.259 559.857,-377.359 559.069,-368.778"/>
<polygon fill="black" stroke="black" points="562.529,-368.18 558.129,-358.542 555.558,-368.821 562.529,-368.18"/>
</g>
<!-- 17 -->
<g id="node18" class="node"><title>17</title>
<path fill="#399de5" fill-opacity="0.498039" stroke="black" d="M713.308,-355.801C713.308,-355.801 641.23,-355.801 641.23,-355.801 635.23,-355.801 629.23,-349.801 629.23,-343.801 629.23,-343.801 629.23,-308.999 629.23,-308.999 629.23,-302.999 635.23,-296.999 641.23,-296.999 641.23,-296.999 713.308,-296.999 713.308,-296.999 719.308,-296.999 725.308,-302.999 725.308,-308.999 725.308,-308.999 725.308,-343.801 725.308,-343.801 725.308,-349.801 719.308,-355.801 713.308,-355.801"/>
<text text-anchor="start" x="637" y="-339" font-family="Helvetica,sans-Serif" font-size="14.00">gini = 0.4444</text>
<text text-anchor="start" x="639.342" y="-322.2" font-family="Helvetica,sans-Serif" font-size="14.00">samples = 3</text>
<text text-anchor="start" x="637" y="-305.4" font-family="Helvetica,sans-Serif" font-size="14.00">value = [1, 2]</text>
</g>
<!-- 13&#45;&gt;17 -->
<g id="edge17" class="edge"><title>13&#45;&gt;17</title>
<path fill="none" stroke="black" d="M600.023,-394.392C611.692,-384.272 624.732,-372.963 636.726,-362.561"/>
<polygon fill="black" stroke="black" points="639.171,-365.073 644.433,-355.877 634.585,-359.785 639.171,-365.073"/>
</g>
<!-- 15 -->
<g id="node16" class="node"><title>15</title>
<path fill="#399de5" fill-opacity="0.333333" stroke="black" d="M478.372,-255.801C478.372,-255.801 390.166,-255.801 390.166,-255.801 384.166,-255.801 378.166,-249.801 378.166,-243.801 378.166,-243.801 378.166,-208.999 378.166,-208.999 378.166,-202.999 384.166,-196.999 390.166,-196.999 390.166,-196.999 478.372,-196.999 478.372,-196.999 484.372,-196.999 490.372,-202.999 490.372,-208.999 490.372,-208.999 490.372,-243.801 490.372,-243.801 490.372,-249.801 484.372,-255.801 478.372,-255.801"/>
<text text-anchor="start" x="401.783" y="-239" font-family="Helvetica,sans-Serif" font-size="14.00">gini = 0.48</text>
<text text-anchor="start" x="392.451" y="-222.2" font-family="Helvetica,sans-Serif" font-size="14.00">samples = 85</text>
<text text-anchor="start" x="386.217" y="-205.4" font-family="Helvetica,sans-Serif" font-size="14.00">value = [34, 51]</text>
</g>
<!-- 14&#45;&gt;15 -->
<g id="edge15" class="edge"><title>14&#45;&gt;15</title>
<path fill="none" stroke="black" d="M516.984,-294.392C504.37,-284.176 490.259,-272.748 477.315,-262.264"/>
<polygon fill="black" stroke="black" points="479.403,-259.451 469.43,-255.877 474.998,-264.891 479.403,-259.451"/>
</g>
<!-- 16 -->
<g id="node17" class="node"><title>16</title>
<path fill="#399de5" fill-opacity="0.376471" stroke="black" d="M595.906,-255.801C595.906,-255.801 520.632,-255.801 520.632,-255.801 514.632,-255.801 508.632,-249.801 508.632,-243.801 508.632,-243.801 508.632,-208.999 508.632,-208.999 508.632,-202.999 514.632,-196.999 520.632,-196.999 520.632,-196.999 595.906,-196.999 595.906,-196.999 601.906,-196.999 607.906,-202.999 607.906,-208.999 607.906,-208.999 607.906,-243.801 607.906,-243.801 607.906,-249.801 601.906,-255.801 595.906,-255.801"/>
<text text-anchor="start" x="518" y="-239" font-family="Helvetica,sans-Serif" font-size="14.00">gini = 0.4734</text>
<text text-anchor="start" x="516.451" y="-222.2" font-family="Helvetica,sans-Serif" font-size="14.00">samples = 13</text>
<text text-anchor="start" x="518" y="-205.4" font-family="Helvetica,sans-Serif" font-size="14.00">value = [5, 8]</text>
</g>
<!-- 14&#45;&gt;16 -->
<g id="edge16" class="edge"><title>14&#45;&gt;16</title>
<path fill="none" stroke="black" d="M556.218,-294.392C556.493,-285.429 556.795,-275.533 557.082,-266.16"/>
<polygon fill="black" stroke="black" points="560.589,-265.98 557.397,-255.877 553.593,-265.765 560.589,-265.98"/>
</g>
<!-- 19 -->
<g id="node20" class="node"><title>19</title>
<path fill="#e58139" fill-opacity="0.400000" stroke="black" d="M733.308,-558.4C733.308,-558.4 661.23,-558.4 661.23,-558.4 655.23,-558.4 649.23,-552.4 649.23,-546.4 649.23,-546.4 649.23,-506.4 649.23,-506.4 649.23,-500.4 655.23,-494.4 661.23,-494.4 661.23,-494.4 733.308,-494.4 733.308,-494.4 739.308,-494.4 745.308,-500.4 745.308,-506.4 745.308,-506.4 745.308,-546.4 745.308,-546.4 745.308,-552.4 739.308,-558.4 733.308,-558.4"/>
<text text-anchor="start" x="670.032" y="-542.8" font-family="Helvetica,sans-Serif" font-size="14.00">X</text>
<text text-anchor="start" x="679.369" y="-542.8" font-family="Helvetica,sans-Serif" baseline-shift="sub" font-size="14.00">2</text>
<text text-anchor="start" x="687.151" y="-542.8" font-family="Helvetica,sans-Serif" font-size="14.00"> ≤ 0.5</text>
<text text-anchor="start" x="657" y="-528.8" font-family="Helvetica,sans-Serif" font-size="14.00">gini = 0.4688</text>
<text text-anchor="start" x="659.342" y="-514.8" font-family="Helvetica,sans-Serif" font-size="14.00">samples = 8</text>
<text text-anchor="start" x="657" y="-500.8" font-family="Helvetica,sans-Serif" font-size="14.00">value = [5, 3]</text>
</g>
<!-- 18&#45;&gt;19 -->
<g id="edge19" class="edge"><title>18&#45;&gt;19</title>
<path fill="none" stroke="black" d="M697.269,-594.392C697.269,-586.259 697.269,-577.359 697.269,-568.778"/>
<polygon fill="black" stroke="black" points="700.769,-568.542 697.269,-558.542 693.769,-568.542 700.769,-568.542"/>
</g>
<!-- 22 -->
<g id="node23" class="node"><title>22</title>
<path fill="#399de5" fill-opacity="0.784314" stroke="black" d="M978.155,-558.4C978.155,-558.4 882.383,-558.4 882.383,-558.4 876.383,-558.4 870.383,-552.4 870.383,-546.4 870.383,-546.4 870.383,-506.4 870.383,-506.4 870.383,-500.4 876.383,-494.4 882.383,-494.4 882.383,-494.4 978.155,-494.4 978.155,-494.4 984.155,-494.4 990.155,-500.4 990.155,-506.4 990.155,-506.4 990.155,-546.4 990.155,-546.4 990.155,-552.4 984.155,-558.4 978.155,-558.4"/>
<text text-anchor="start" x="903.032" y="-542.8" font-family="Helvetica,sans-Serif" font-size="14.00">X</text>
<text text-anchor="start" x="912.369" y="-542.8" font-family="Helvetica,sans-Serif" baseline-shift="sub" font-size="14.00">0</text>
<text text-anchor="start" x="920.151" y="-542.8" font-family="Helvetica,sans-Serif" font-size="14.00"> ≤ 4.5</text>
<text text-anchor="start" x="890" y="-528.8" font-family="Helvetica,sans-Serif" font-size="14.00">gini = 0.2907</text>
<text text-anchor="start" x="884.56" y="-514.8" font-family="Helvetica,sans-Serif" font-size="14.00">samples = 136</text>
<text text-anchor="start" x="878.326" y="-500.8" font-family="Helvetica,sans-Serif" font-size="14.00">value = [24, 112]</text>
</g>
<!-- 18&#45;&gt;22 -->
<g id="edge22" class="edge"><title>18&#45;&gt;22</title>
<path fill="none" stroke="black" d="M757.272,-600.163C788.812,-586.897 827.641,-570.566 860.516,-556.738"/>
<polygon fill="black" stroke="black" points="862.204,-559.825 870.064,-552.722 859.49,-553.373 862.204,-559.825"/>
</g>
<!-- 20 -->
<g id="node21" class="node"><title>20</title>
<path fill="#399de5" stroke="black" d="M724.308,-455.801C724.308,-455.801 652.23,-455.801 652.23,-455.801 646.23,-455.801 640.23,-449.801 640.23,-443.801 640.23,-443.801 640.23,-408.999 640.23,-408.999 640.23,-402.999 646.23,-396.999 652.23,-396.999 652.23,-396.999 724.308,-396.999 724.308,-396.999 730.308,-396.999 736.308,-402.999 736.308,-408.999 736.308,-408.999 736.308,-443.801 736.308,-443.801 736.308,-449.801 730.308,-455.801 724.308,-455.801"/>
<text text-anchor="start" x="659.674" y="-439" font-family="Helvetica,sans-Serif" font-size="14.00">gini = 0.0</text>
<text text-anchor="start" x="650.342" y="-422.2" font-family="Helvetica,sans-Serif" font-size="14.00">samples = 1</text>
<text text-anchor="start" x="648" y="-405.4" font-family="Helvetica,sans-Serif" font-size="14.00">value = [0, 1]</text>
</g>
<!-- 19&#45;&gt;20 -->
<g id="edge20" class="edge"><title>19&#45;&gt;20</title>
<path fill="none" stroke="black" d="M694.421,-494.392C693.589,-485.332 692.67,-475.32 691.801,-465.858"/>
<polygon fill="black" stroke="black" points="695.284,-465.515 690.884,-455.877 688.313,-466.156 695.284,-465.515"/>
</g>
<!-- 21 -->
<g id="node22" class="node"><title>21</title>
<path fill="#e58139" fill-opacity="0.600000" stroke="black" d="M839.308,-455.801C839.308,-455.801 767.23,-455.801 767.23,-455.801 761.23,-455.801 755.23,-449.801 755.23,-443.801 755.23,-443.801 755.23,-408.999 755.23,-408.999 755.23,-402.999 761.23,-396.999 767.23,-396.999 767.23,-396.999 839.308,-396.999 839.308,-396.999 845.308,-396.999 851.308,-402.999 851.308,-408.999 851.308,-408.999 851.308,-443.801 851.308,-443.801 851.308,-449.801 845.308,-455.801 839.308,-455.801"/>
<text text-anchor="start" x="763" y="-439" font-family="Helvetica,sans-Serif" font-size="14.00">gini = 0.4082</text>
<text text-anchor="start" x="765.342" y="-422.2" font-family="Helvetica,sans-Serif" font-size="14.00">samples = 7</text>
<text text-anchor="start" x="763" y="-405.4" font-family="Helvetica,sans-Serif" font-size="14.00">value = [5, 2]</text>
</g>
<!-- 19&#45;&gt;21 -->
<g id="edge21" class="edge"><title>19&#45;&gt;21</title>
<path fill="none" stroke="black" d="M730.808,-494.392C741.65,-484.369 753.753,-473.179 764.916,-462.858"/>
<polygon fill="black" stroke="black" points="767.5,-465.236 772.467,-455.877 762.748,-460.096 767.5,-465.236"/>
</g>
<!-- 23 -->
<g id="node24" class="node"><title>23</title>
<path fill="#399de5" fill-opacity="0.796078" stroke="black" d="M978.155,-458.4C978.155,-458.4 882.383,-458.4 882.383,-458.4 876.383,-458.4 870.383,-452.4 870.383,-446.4 870.383,-446.4 870.383,-406.4 870.383,-406.4 870.383,-400.4 876.383,-394.4 882.383,-394.4 882.383,-394.4 978.155,-394.4 978.155,-394.4 984.155,-394.4 990.155,-400.4 990.155,-406.4 990.155,-406.4 990.155,-446.4 990.155,-446.4 990.155,-452.4 984.155,-458.4 978.155,-458.4"/>
<text text-anchor="start" x="903.032" y="-442.8" font-family="Helvetica,sans-Serif" font-size="14.00">X</text>
<text text-anchor="start" x="912.369" y="-442.8" font-family="Helvetica,sans-Serif" baseline-shift="sub" font-size="14.00">0</text>
<text text-anchor="start" x="920.151" y="-442.8" font-family="Helvetica,sans-Serif" font-size="14.00"> ≤ 3.5</text>
<text text-anchor="start" x="890" y="-428.8" font-family="Helvetica,sans-Serif" font-size="14.00">gini = 0.2829</text>
<text text-anchor="start" x="884.56" y="-414.8" font-family="Helvetica,sans-Serif" font-size="14.00">samples = 129</text>
<text text-anchor="start" x="878.326" y="-400.8" font-family="Helvetica,sans-Serif" font-size="14.00">value = [22, 107]</text>
</g>
<!-- 22&#45;&gt;23 -->
<g id="edge23" class="edge"><title>22&#45;&gt;23</title>
<path fill="none" stroke="black" d="M930.269,-494.392C930.269,-486.259 930.269,-477.359 930.269,-468.778"/>
<polygon fill="black" stroke="black" points="933.769,-468.542 930.269,-458.542 926.769,-468.542 933.769,-468.542"/>
</g>
<!-- 40 -->
<g id="node41" class="node"><title>40</title>
<path fill="#399de5" fill-opacity="0.600000" stroke="black" d="M1203.31,-458.4C1203.31,-458.4 1131.23,-458.4 1131.23,-458.4 1125.23,-458.4 1119.23,-452.4 1119.23,-446.4 1119.23,-446.4 1119.23,-406.4 1119.23,-406.4 1119.23,-400.4 1125.23,-394.4 1131.23,-394.4 1131.23,-394.4 1203.31,-394.4 1203.31,-394.4 1209.31,-394.4 1215.31,-400.4 1215.31,-406.4 1215.31,-406.4 1215.31,-446.4 1215.31,-446.4 1215.31,-452.4 1209.31,-458.4 1203.31,-458.4"/>
<text text-anchor="start" x="1140.03" y="-442.8" font-family="Helvetica,sans-Serif" font-size="14.00">X</text>
<text text-anchor="start" x="1149.37" y="-442.8" font-family="Helvetica,sans-Serif" baseline-shift="sub" font-size="14.00">1</text>
<text text-anchor="start" x="1157.15" y="-442.8" font-family="Helvetica,sans-Serif" font-size="14.00"> ≤ 2.5</text>
<text text-anchor="start" x="1127" y="-428.8" font-family="Helvetica,sans-Serif" font-size="14.00">gini = 0.4082</text>
<text text-anchor="start" x="1129.34" y="-414.8" font-family="Helvetica,sans-Serif" font-size="14.00">samples = 7</text>
<text text-anchor="start" x="1127" y="-400.8" font-family="Helvetica,sans-Serif" font-size="14.00">value = [2, 5]</text>
</g>
<!-- 22&#45;&gt;40 -->
<g id="edge40" class="edge"><title>22&#45;&gt;40</title>
<path fill="none" stroke="black" d="M990.38,-500.544C1027.01,-485.396 1073.57,-466.144 1109.73,-451.194"/>
<polygon fill="black" stroke="black" points="1111.25,-454.351 1119.16,-447.295 1108.58,-447.882 1111.25,-454.351"/>
</g>
<!-- 24 -->
<g id="node25" class="node"><title>24</title>
<path fill="#399de5" fill-opacity="0.772549" stroke="black" d="M851.372,-358.4C851.372,-358.4 763.166,-358.4 763.166,-358.4 757.166,-358.4 751.166,-352.4 751.166,-346.4 751.166,-346.4 751.166,-306.4 751.166,-306.4 751.166,-300.4 757.166,-294.4 763.166,-294.4 763.166,-294.4 851.372,-294.4 851.372,-294.4 857.372,-294.4 863.372,-300.4 863.372,-306.4 863.372,-306.4 863.372,-346.4 863.372,-346.4 863.372,-352.4 857.372,-358.4 851.372,-358.4"/>
<text text-anchor="start" x="780.032" y="-342.8" font-family="Helvetica,sans-Serif" font-size="14.00">X</text>
<text text-anchor="start" x="789.369" y="-342.8" font-family="Helvetica,sans-Serif" baseline-shift="sub" font-size="14.00">1</text>
<text text-anchor="start" x="797.151" y="-342.8" font-family="Helvetica,sans-Serif" font-size="14.00"> ≤ 2.5</text>
<text text-anchor="start" x="767" y="-328.8" font-family="Helvetica,sans-Serif" font-size="14.00">gini = 0.3006</text>
<text text-anchor="start" x="765.451" y="-314.8" font-family="Helvetica,sans-Serif" font-size="14.00">samples = 76</text>
<text text-anchor="start" x="759.217" y="-300.8" font-family="Helvetica,sans-Serif" font-size="14.00">value = [14, 62]</text>
</g>
<!-- 23&#45;&gt;24 -->
<g id="edge24" class="edge"><title>23&#45;&gt;24</title>
<path fill="none" stroke="black" d="M891.351,-394.392C879.573,-385.008 866.512,-374.602 854.265,-364.844"/>
<polygon fill="black" stroke="black" points="856.358,-362.037 846.356,-358.542 851.996,-367.511 856.358,-362.037"/>
</g>
<!-- 31 -->
<g id="node32" class="node"><title>31</title>
<path fill="#399de5" fill-opacity="0.823529" stroke="black" d="M974.59,-358.4C974.59,-358.4 893.948,-358.4 893.948,-358.4 887.948,-358.4 881.948,-352.4 881.948,-346.4 881.948,-346.4 881.948,-306.4 881.948,-306.4 881.948,-300.4 887.948,-294.4 893.948,-294.4 893.948,-294.4 974.59,-294.4 974.59,-294.4 980.59,-294.4 986.59,-300.4 986.59,-306.4 986.59,-306.4 986.59,-346.4 986.59,-346.4 986.59,-352.4 980.59,-358.4 974.59,-358.4"/>
<text text-anchor="start" x="907.032" y="-342.8" font-family="Helvetica,sans-Serif" font-size="14.00">X</text>
<text text-anchor="start" x="916.369" y="-342.8" font-family="Helvetica,sans-Serif" baseline-shift="sub" font-size="14.00">1</text>
<text text-anchor="start" x="924.151" y="-342.8" font-family="Helvetica,sans-Serif" font-size="14.00"> ≤ 3.5</text>
<text text-anchor="start" x="894" y="-328.8" font-family="Helvetica,sans-Serif" font-size="14.00">gini = 0.2563</text>
<text text-anchor="start" x="892.451" y="-314.8" font-family="Helvetica,sans-Serif" font-size="14.00">samples = 53</text>
<text text-anchor="start" x="890.109" y="-300.8" font-family="Helvetica,sans-Serif" font-size="14.00">value = [8, 45]</text>
</g>
<!-- 23&#45;&gt;31 -->
<g id="edge31" class="edge"><title>23&#45;&gt;31</title>
<path fill="none" stroke="black" d="M931.535,-394.392C931.866,-386.259 932.23,-377.359 932.58,-368.778"/>
<polygon fill="black" stroke="black" points="936.087,-368.677 932.998,-358.542 929.093,-368.391 936.087,-368.677"/>
</g>
<!-- 25 -->
<g id="node26" class="node"><title>25</title>
<path fill="#399de5" fill-opacity="0.780392" stroke="black" d="M726.372,-258.4C726.372,-258.4 638.166,-258.4 638.166,-258.4 632.166,-258.4 626.166,-252.4 626.166,-246.4 626.166,-246.4 626.166,-206.4 626.166,-206.4 626.166,-200.4 632.166,-194.4 638.166,-194.4 638.166,-194.4 726.372,-194.4 726.372,-194.4 732.372,-194.4 738.372,-200.4 738.372,-206.4 738.372,-206.4 738.372,-246.4 738.372,-246.4 738.372,-252.4 732.372,-258.4 726.372,-258.4"/>
<text text-anchor="start" x="655.032" y="-242.8" font-family="Helvetica,sans-Serif" font-size="14.00">X</text>
<text text-anchor="start" x="664.369" y="-242.8" font-family="Helvetica,sans-Serif" baseline-shift="sub" font-size="14.00">2</text>
<text text-anchor="start" x="672.151" y="-242.8" font-family="Helvetica,sans-Serif" font-size="14.00"> ≤ 0.5</text>
<text text-anchor="start" x="642" y="-228.8" font-family="Helvetica,sans-Serif" font-size="14.00">gini = 0.2959</text>
<text text-anchor="start" x="640.451" y="-214.8" font-family="Helvetica,sans-Serif" font-size="14.00">samples = 72</text>
<text text-anchor="start" x="634.217" y="-200.8" font-family="Helvetica,sans-Serif" font-size="14.00">value = [13, 59]</text>
</g>
<!-- 24&#45;&gt;25 -->
<g id="edge25" class="edge"><title>24&#45;&gt;25</title>
<path fill="none" stroke="black" d="M767.718,-294.392C755.749,-285.008 742.475,-274.602 730.029,-264.844"/>
<polygon fill="black" stroke="black" points="732.021,-261.958 721.991,-258.542 727.702,-267.467 732.021,-261.958"/>
</g>
<!-- 28 -->
<g id="node29" class="node"><title>28</title>
<path fill="#399de5" fill-opacity="0.666667" stroke="black" d="M843.308,-258.4C843.308,-258.4 771.23,-258.4 771.23,-258.4 765.23,-258.4 759.23,-252.4 759.23,-246.4 759.23,-246.4 759.23,-206.4 759.23,-206.4 759.23,-200.4 765.23,-194.4 771.23,-194.4 771.23,-194.4 843.308,-194.4 843.308,-194.4 849.308,-194.4 855.308,-200.4 855.308,-206.4 855.308,-206.4 855.308,-246.4 855.308,-246.4 855.308,-252.4 849.308,-258.4 843.308,-258.4"/>
<text text-anchor="start" x="780.032" y="-242.8" font-family="Helvetica,sans-Serif" font-size="14.00">X</text>
<text text-anchor="start" x="789.369" y="-242.8" font-family="Helvetica,sans-Serif" baseline-shift="sub" font-size="14.00">2</text>
<text text-anchor="start" x="797.151" y="-242.8" font-family="Helvetica,sans-Serif" font-size="14.00"> ≤ 0.5</text>
<text text-anchor="start" x="770.891" y="-228.8" font-family="Helvetica,sans-Serif" font-size="14.00">gini = 0.375</text>
<text text-anchor="start" x="769.342" y="-214.8" font-family="Helvetica,sans-Serif" font-size="14.00">samples = 4</text>
<text text-anchor="start" x="767" y="-200.8" font-family="Helvetica,sans-Serif" font-size="14.00">value = [1, 3]</text>
</g>
<!-- 24&#45;&gt;28 -->
<g id="edge28" class="edge"><title>24&#45;&gt;28</title>
<path fill="none" stroke="black" d="M807.269,-294.392C807.269,-286.259 807.269,-277.359 807.269,-268.778"/>
<polygon fill="black" stroke="black" points="810.769,-268.542 807.269,-258.542 803.769,-268.542 810.769,-268.542"/>
</g>
<!-- 26 -->
<g id="node27" class="node"><title>26</title>
<path fill="#399de5" fill-opacity="0.803922" stroke="black" d="M501.59,-155.801C501.59,-155.801 420.948,-155.801 420.948,-155.801 414.948,-155.801 408.948,-149.801 408.948,-143.801 408.948,-143.801 408.948,-108.999 408.948,-108.999 408.948,-102.999 414.948,-96.9986 420.948,-96.9986 420.948,-96.9986 501.59,-96.9986 501.59,-96.9986 507.59,-96.9986 513.59,-102.999 513.59,-108.999 513.59,-108.999 513.59,-143.801 513.59,-143.801 513.59,-149.801 507.59,-155.801 501.59,-155.801"/>
<text text-anchor="start" x="421" y="-139" font-family="Helvetica,sans-Serif" font-size="14.00">gini = 0.2726</text>
<text text-anchor="start" x="419.451" y="-122.2" font-family="Helvetica,sans-Serif" font-size="14.00">samples = 43</text>
<text text-anchor="start" x="417.109" y="-105.4" font-family="Helvetica,sans-Serif" font-size="14.00">value = [7, 36]</text>
</g>
<!-- 25&#45;&gt;26 -->
<g id="edge26" class="edge"><title>25&#45;&gt;26</title>
<path fill="none" stroke="black" d="M626.029,-198.228C623.076,-196.911 620.143,-195.628 617.269,-194.4 578.421,-177.809 565.258,-176.73 522.864,-158.504"/>
<polygon fill="black" stroke="black" points="524.233,-155.282 513.668,-154.482 521.428,-161.696 524.233,-155.282"/>
</g>
<!-- 27 -->
<g id="node28" class="node"><title>27</title>
<path fill="#399de5" fill-opacity="0.737255" stroke="black" d="M623.59,-155.801C623.59,-155.801 542.948,-155.801 542.948,-155.801 536.948,-155.801 530.948,-149.801 530.948,-143.801 530.948,-143.801 530.948,-108.999 530.948,-108.999 530.948,-102.999 536.948,-96.9986 542.948,-96.9986 542.948,-96.9986 623.59,-96.9986 623.59,-96.9986 629.59,-96.9986 635.59,-102.999 635.59,-108.999 635.59,-108.999 635.59,-143.801 635.59,-143.801 635.59,-149.801 629.59,-155.801 623.59,-155.801"/>
<text text-anchor="start" x="543" y="-139" font-family="Helvetica,sans-Serif" font-size="14.00">gini = 0.3282</text>
<text text-anchor="start" x="541.451" y="-122.2" font-family="Helvetica,sans-Serif" font-size="14.00">samples = 29</text>
<text text-anchor="start" x="539.109" y="-105.4" font-family="Helvetica,sans-Serif" font-size="14.00">value = [6, 23]</text>
</g>
<!-- 25&#45;&gt;27 -->
<g id="edge27" class="edge"><title>25&#45;&gt;27</title>
<path fill="none" stroke="black" d="M650.945,-194.392C640.916,-184.465 629.732,-173.394 619.39,-163.156"/>
<polygon fill="black" stroke="black" points="621.606,-160.425 612.037,-155.877 616.681,-165.4 621.606,-160.425"/>
</g>
<!-- 29 -->
<g id="node30" class="node"><title>29</title>
<path fill="#e58139" stroke="black" d="M737.308,-155.801C737.308,-155.801 665.23,-155.801 665.23,-155.801 659.23,-155.801 653.23,-149.801 653.23,-143.801 653.23,-143.801 653.23,-108.999 653.23,-108.999 653.23,-102.999 659.23,-96.9986 665.23,-96.9986 665.23,-96.9986 737.308,-96.9986 737.308,-96.9986 743.308,-96.9986 749.308,-102.999 749.308,-108.999 749.308,-108.999 749.308,-143.801 749.308,-143.801 749.308,-149.801 743.308,-155.801 737.308,-155.801"/>
<text text-anchor="start" x="672.674" y="-139" font-family="Helvetica,sans-Serif" font-size="14.00">gini = 0.0</text>
<text text-anchor="start" x="663.342" y="-122.2" font-family="Helvetica,sans-Serif" font-size="14.00">samples = 1</text>
<text text-anchor="start" x="661" y="-105.4" font-family="Helvetica,sans-Serif" font-size="14.00">value = [1, 0]</text>
</g>
<!-- 28&#45;&gt;29 -->
<g id="edge29" class="edge"><title>28&#45;&gt;29</title>
<path fill="none" stroke="black" d="M773.73,-194.392C762.888,-184.369 750.784,-173.179 739.622,-162.858"/>
<polygon fill="black" stroke="black" points="741.79,-160.096 732.071,-155.877 737.038,-165.236 741.79,-160.096"/>
</g>
<!-- 30 -->
<g id="node31" class="node"><title>30</title>
<path fill="#399de5" stroke="black" d="M852.308,-155.801C852.308,-155.801 780.23,-155.801 780.23,-155.801 774.23,-155.801 768.23,-149.801 768.23,-143.801 768.23,-143.801 768.23,-108.999 768.23,-108.999 768.23,-102.999 774.23,-96.9986 780.23,-96.9986 780.23,-96.9986 852.308,-96.9986 852.308,-96.9986 858.308,-96.9986 864.308,-102.999 864.308,-108.999 864.308,-108.999 864.308,-143.801 864.308,-143.801 864.308,-149.801 858.308,-155.801 852.308,-155.801"/>
<text text-anchor="start" x="787.674" y="-139" font-family="Helvetica,sans-Serif" font-size="14.00">gini = 0.0</text>
<text text-anchor="start" x="778.342" y="-122.2" font-family="Helvetica,sans-Serif" font-size="14.00">samples = 3</text>
<text text-anchor="start" x="776" y="-105.4" font-family="Helvetica,sans-Serif" font-size="14.00">value = [0, 3]</text>
</g>
<!-- 28&#45;&gt;30 -->
<g id="edge30" class="edge"><title>28&#45;&gt;30</title>
<path fill="none" stroke="black" d="M810.117,-194.392C810.949,-185.332 811.868,-175.32 812.737,-165.858"/>
<polygon fill="black" stroke="black" points="816.224,-166.156 813.654,-155.877 809.254,-165.515 816.224,-166.156"/>
</g>
<!-- 32 -->
<g id="node33" class="node"><title>32</title>
<path fill="#399de5" fill-opacity="0.819608" stroke="black" d="M974.59,-258.4C974.59,-258.4 893.948,-258.4 893.948,-258.4 887.948,-258.4 881.948,-252.4 881.948,-246.4 881.948,-246.4 881.948,-206.4 881.948,-206.4 881.948,-200.4 887.948,-194.4 893.948,-194.4 893.948,-194.4 974.59,-194.4 974.59,-194.4 980.59,-194.4 986.59,-200.4 986.59,-206.4 986.59,-206.4 986.59,-246.4 986.59,-246.4 986.59,-252.4 980.59,-258.4 974.59,-258.4"/>
<text text-anchor="start" x="907.032" y="-242.8" font-family="Helvetica,sans-Serif" font-size="14.00">X</text>
<text text-anchor="start" x="916.369" y="-242.8" font-family="Helvetica,sans-Serif" baseline-shift="sub" font-size="14.00">1</text>
<text text-anchor="start" x="924.151" y="-242.8" font-family="Helvetica,sans-Serif" font-size="14.00"> ≤ 2.5</text>
<text text-anchor="start" x="894" y="-228.8" font-family="Helvetica,sans-Serif" font-size="14.00">gini = 0.2604</text>
<text text-anchor="start" x="892.451" y="-214.8" font-family="Helvetica,sans-Serif" font-size="14.00">samples = 52</text>
<text text-anchor="start" x="890.109" y="-200.8" font-family="Helvetica,sans-Serif" font-size="14.00">value = [8, 44]</text>
</g>
<!-- 31&#45;&gt;32 -->
<g id="edge32" class="edge"><title>31&#45;&gt;32</title>
<path fill="none" stroke="black" d="M934.269,-294.392C934.269,-286.259 934.269,-277.359 934.269,-268.778"/>
<polygon fill="black" stroke="black" points="937.769,-268.542 934.269,-258.542 930.769,-268.542 937.769,-268.542"/>
</g>
<!-- 39 -->
<g id="node40" class="node"><title>39</title>
<path fill="#399de5" stroke="black" d="M1088.31,-255.801C1088.31,-255.801 1016.23,-255.801 1016.23,-255.801 1010.23,-255.801 1004.23,-249.801 1004.23,-243.801 1004.23,-243.801 1004.23,-208.999 1004.23,-208.999 1004.23,-202.999 1010.23,-196.999 1016.23,-196.999 1016.23,-196.999 1088.31,-196.999 1088.31,-196.999 1094.31,-196.999 1100.31,-202.999 1100.31,-208.999 1100.31,-208.999 1100.31,-243.801 1100.31,-243.801 1100.31,-249.801 1094.31,-255.801 1088.31,-255.801"/>
<text text-anchor="start" x="1023.67" y="-239" font-family="Helvetica,sans-Serif" font-size="14.00">gini = 0.0</text>
<text text-anchor="start" x="1014.34" y="-222.2" font-family="Helvetica,sans-Serif" font-size="14.00">samples = 1</text>
<text text-anchor="start" x="1012" y="-205.4" font-family="Helvetica,sans-Serif" font-size="14.00">value = [0, 1]</text>
</g>
<!-- 31&#45;&gt;39 -->
<g id="edge39" class="edge"><title>31&#45;&gt;39</title>
<path fill="none" stroke="black" d="M971.605,-294.392C983.79,-284.272 997.407,-272.963 1009.93,-262.561"/>
<polygon fill="black" stroke="black" points="1012.52,-264.959 1017.98,-255.877 1008.05,-259.574 1012.52,-264.959"/>
</g>
<!-- 33 -->
<g id="node34" class="node"><title>33</title>
<path fill="#399de5" fill-opacity="0.827451" stroke="black" d="M974.59,-158.4C974.59,-158.4 893.948,-158.4 893.948,-158.4 887.948,-158.4 881.948,-152.4 881.948,-146.4 881.948,-146.4 881.948,-106.4 881.948,-106.4 881.948,-100.4 887.948,-94.4 893.948,-94.4 893.948,-94.4 974.59,-94.4 974.59,-94.4 980.59,-94.4 986.59,-100.4 986.59,-106.4 986.59,-106.4 986.59,-146.4 986.59,-146.4 986.59,-152.4 980.59,-158.4 974.59,-158.4"/>
<text text-anchor="start" x="907.032" y="-142.8" font-family="Helvetica,sans-Serif" font-size="14.00">X</text>
<text text-anchor="start" x="916.369" y="-142.8" font-family="Helvetica,sans-Serif" baseline-shift="sub" font-size="14.00">2</text>
<text text-anchor="start" x="924.151" y="-142.8" font-family="Helvetica,sans-Serif" font-size="14.00"> ≤ 0.5</text>
<text text-anchor="start" x="894" y="-128.8" font-family="Helvetica,sans-Serif" font-size="14.00">gini = 0.2491</text>
<text text-anchor="start" x="892.451" y="-114.8" font-family="Helvetica,sans-Serif" font-size="14.00">samples = 48</text>
<text text-anchor="start" x="890.109" y="-100.8" font-family="Helvetica,sans-Serif" font-size="14.00">value = [7, 41]</text>
</g>
<!-- 32&#45;&gt;33 -->
<g id="edge33" class="edge"><title>32&#45;&gt;33</title>
<path fill="none" stroke="black" d="M934.269,-194.392C934.269,-186.259 934.269,-177.359 934.269,-168.778"/>
<polygon fill="black" stroke="black" points="937.769,-168.542 934.269,-158.542 930.769,-168.542 937.769,-168.542"/>
</g>
<!-- 36 -->
<g id="node37" class="node"><title>36</title>
<path fill="#399de5" fill-opacity="0.666667" stroke="black" d="M1088.31,-158.4C1088.31,-158.4 1016.23,-158.4 1016.23,-158.4 1010.23,-158.4 1004.23,-152.4 1004.23,-146.4 1004.23,-146.4 1004.23,-106.4 1004.23,-106.4 1004.23,-100.4 1010.23,-94.4 1016.23,-94.4 1016.23,-94.4 1088.31,-94.4 1088.31,-94.4 1094.31,-94.4 1100.31,-100.4 1100.31,-106.4 1100.31,-106.4 1100.31,-146.4 1100.31,-146.4 1100.31,-152.4 1094.31,-158.4 1088.31,-158.4"/>
<text text-anchor="start" x="1025.03" y="-142.8" font-family="Helvetica,sans-Serif" font-size="14.00">X</text>
<text text-anchor="start" x="1034.37" y="-142.8" font-family="Helvetica,sans-Serif" baseline-shift="sub" font-size="14.00">2</text>
<text text-anchor="start" x="1042.15" y="-142.8" font-family="Helvetica,sans-Serif" font-size="14.00"> ≤ 0.5</text>
<text text-anchor="start" x="1015.89" y="-128.8" font-family="Helvetica,sans-Serif" font-size="14.00">gini = 0.375</text>
<text text-anchor="start" x="1014.34" y="-114.8" font-family="Helvetica,sans-Serif" font-size="14.00">samples = 4</text>
<text text-anchor="start" x="1012" y="-100.8" font-family="Helvetica,sans-Serif" font-size="14.00">value = [1, 3]</text>
</g>
<!-- 32&#45;&gt;36 -->
<g id="edge36" class="edge"><title>32&#45;&gt;36</title>
<path fill="none" stroke="black" d="M971.605,-194.392C982.796,-185.098 995.195,-174.8 1006.85,-165.123"/>
<polygon fill="black" stroke="black" points="1009.31,-167.624 1014.77,-158.542 1004.84,-162.239 1009.31,-167.624"/>
</g>
<!-- 34 -->
<g id="node35" class="node"><title>34</title>
<path fill="#399de5" fill-opacity="0.839216" stroke="black" d="M852.59,-58.6014C852.59,-58.6014 771.948,-58.6014 771.948,-58.6014 765.948,-58.6014 759.948,-52.6014 759.948,-46.6014 759.948,-46.6014 759.948,-11.7986 759.948,-11.7986 759.948,-5.79862 765.948,0.201379 771.948,0.201379 771.948,0.201379 852.59,0.201379 852.59,0.201379 858.59,0.201379 864.59,-5.79862 864.59,-11.7986 864.59,-11.7986 864.59,-46.6014 864.59,-46.6014 864.59,-52.6014 858.59,-58.6014 852.59,-58.6014"/>
<text text-anchor="start" x="772" y="-41.8" font-family="Helvetica,sans-Serif" font-size="14.00">gini = 0.2378</text>
<text text-anchor="start" x="770.451" y="-25" font-family="Helvetica,sans-Serif" font-size="14.00">samples = 29</text>
<text text-anchor="start" x="768.109" y="-8.2" font-family="Helvetica,sans-Serif" font-size="14.00">value = [4, 25]</text>
</g>
<!-- 33&#45;&gt;34 -->
<g id="edge34" class="edge"><title>33&#45;&gt;34</title>
<path fill="none" stroke="black" d="M894.322,-94.228C882.236,-84.7975 868.894,-74.3865 856.544,-64.749"/>
<polygon fill="black" stroke="black" points="858.631,-61.9383 848.594,-58.5456 854.325,-67.4569 858.631,-61.9383"/>
</g>
<!-- 35 -->
<g id="node36" class="node"><title>35</title>
<path fill="#399de5" fill-opacity="0.811765" stroke="black" d="M974.59,-58.6014C974.59,-58.6014 893.948,-58.6014 893.948,-58.6014 887.948,-58.6014 881.948,-52.6014 881.948,-46.6014 881.948,-46.6014 881.948,-11.7986 881.948,-11.7986 881.948,-5.79862 887.948,0.201379 893.948,0.201379 893.948,0.201379 974.59,0.201379 974.59,0.201379 980.59,0.201379 986.59,-5.79862 986.59,-11.7986 986.59,-11.7986 986.59,-46.6014 986.59,-46.6014 986.59,-52.6014 980.59,-58.6014 974.59,-58.6014"/>
<text text-anchor="start" x="894" y="-41.8" font-family="Helvetica,sans-Serif" font-size="14.00">gini = 0.2659</text>
<text text-anchor="start" x="892.451" y="-25" font-family="Helvetica,sans-Serif" font-size="14.00">samples = 19</text>
<text text-anchor="start" x="890.109" y="-8.2" font-family="Helvetica,sans-Serif" font-size="14.00">value = [3, 16]</text>
</g>
<!-- 33&#45;&gt;35 -->
<g id="edge35" class="edge"><title>33&#45;&gt;35</title>
<path fill="none" stroke="black" d="M934.269,-94.228C934.269,-86.0549 934.269,-77.1453 934.269,-68.6411"/>
<polygon fill="black" stroke="black" points="937.769,-68.5456 934.269,-58.5456 930.769,-68.5457 937.769,-68.5456"/>
</g>
<!-- 37 -->
<g id="node38" class="node"><title>37</title>
<path fill="none" stroke="black" d="M1088.31,-58.6014C1088.31,-58.6014 1016.23,-58.6014 1016.23,-58.6014 1010.23,-58.6014 1004.23,-52.6014 1004.23,-46.6014 1004.23,-46.6014 1004.23,-11.7986 1004.23,-11.7986 1004.23,-5.79862 1010.23,0.201379 1016.23,0.201379 1016.23,0.201379 1088.31,0.201379 1088.31,0.201379 1094.31,0.201379 1100.31,-5.79862 1100.31,-11.7986 1100.31,-11.7986 1100.31,-46.6014 1100.31,-46.6014 1100.31,-52.6014 1094.31,-58.6014 1088.31,-58.6014"/>
<text text-anchor="start" x="1023.67" y="-41.8" font-family="Helvetica,sans-Serif" font-size="14.00">gini = 0.5</text>
<text text-anchor="start" x="1014.34" y="-25" font-family="Helvetica,sans-Serif" font-size="14.00">samples = 2</text>
<text text-anchor="start" x="1012" y="-8.2" font-family="Helvetica,sans-Serif" font-size="14.00">value = [1, 1]</text>
</g>
<!-- 36&#45;&gt;37 -->
<g id="edge37" class="edge"><title>36&#45;&gt;37</title>
<path fill="none" stroke="black" d="M1052.27,-94.228C1052.27,-86.0549 1052.27,-77.1453 1052.27,-68.6411"/>
<polygon fill="black" stroke="black" points="1055.77,-68.5456 1052.27,-58.5456 1048.77,-68.5457 1055.77,-68.5456"/>
</g>
<!-- 38 -->
<g id="node39" class="node"><title>38</title>
<path fill="#399de5" stroke="black" d="M1203.31,-58.6014C1203.31,-58.6014 1131.23,-58.6014 1131.23,-58.6014 1125.23,-58.6014 1119.23,-52.6014 1119.23,-46.6014 1119.23,-46.6014 1119.23,-11.7986 1119.23,-11.7986 1119.23,-5.79862 1125.23,0.201379 1131.23,0.201379 1131.23,0.201379 1203.31,0.201379 1203.31,0.201379 1209.31,0.201379 1215.31,-5.79862 1215.31,-11.7986 1215.31,-11.7986 1215.31,-46.6014 1215.31,-46.6014 1215.31,-52.6014 1209.31,-58.6014 1203.31,-58.6014"/>
<text text-anchor="start" x="1138.67" y="-41.8" font-family="Helvetica,sans-Serif" font-size="14.00">gini = 0.0</text>
<text text-anchor="start" x="1129.34" y="-25" font-family="Helvetica,sans-Serif" font-size="14.00">samples = 2</text>
<text text-anchor="start" x="1127" y="-8.2" font-family="Helvetica,sans-Serif" font-size="14.00">value = [0, 2]</text>
</g>
<!-- 36&#45;&gt;38 -->
<g id="edge38" class="edge"><title>36&#45;&gt;38</title>
<path fill="none" stroke="black" d="M1089.92,-94.228C1101.21,-84.8873 1113.65,-74.5847 1125.2,-65.0246"/>
<polygon fill="black" stroke="black" points="1127.56,-67.6185 1133.03,-58.5456 1123.09,-62.2264 1127.56,-67.6185"/>
</g>
<!-- 41 -->
<g id="node42" class="node"><title>41</title>
<path fill="#399de5" fill-opacity="0.333333" stroke="black" d="M1203.31,-358.4C1203.31,-358.4 1131.23,-358.4 1131.23,-358.4 1125.23,-358.4 1119.23,-352.4 1119.23,-346.4 1119.23,-346.4 1119.23,-306.4 1119.23,-306.4 1119.23,-300.4 1125.23,-294.4 1131.23,-294.4 1131.23,-294.4 1203.31,-294.4 1203.31,-294.4 1209.31,-294.4 1215.31,-300.4 1215.31,-306.4 1215.31,-306.4 1215.31,-346.4 1215.31,-346.4 1215.31,-352.4 1209.31,-358.4 1203.31,-358.4"/>
<text text-anchor="start" x="1140.03" y="-342.8" font-family="Helvetica,sans-Serif" font-size="14.00">X</text>
<text text-anchor="start" x="1149.37" y="-342.8" font-family="Helvetica,sans-Serif" baseline-shift="sub" font-size="14.00">0</text>
<text text-anchor="start" x="1157.15" y="-342.8" font-family="Helvetica,sans-Serif" font-size="14.00"> ≤ 5.5</text>
<text text-anchor="start" x="1134.78" y="-328.8" font-family="Helvetica,sans-Serif" font-size="14.00">gini = 0.48</text>
<text text-anchor="start" x="1129.34" y="-314.8" font-family="Helvetica,sans-Serif" font-size="14.00">samples = 5</text>
<text text-anchor="start" x="1127" y="-300.8" font-family="Helvetica,sans-Serif" font-size="14.00">value = [2, 3]</text>
</g>
<!-- 40&#45;&gt;41 -->
<g id="edge41" class="edge"><title>40&#45;&gt;41</title>
<path fill="none" stroke="black" d="M1167.27,-394.392C1167.27,-386.259 1167.27,-377.359 1167.27,-368.778"/>
<polygon fill="black" stroke="black" points="1170.77,-368.542 1167.27,-358.542 1163.77,-368.542 1170.77,-368.542"/>
</g>
<!-- 46 -->
<g id="node47" class="node"><title>46</title>
<path fill="#399de5" stroke="black" d="M1318.31,-355.801C1318.31,-355.801 1246.23,-355.801 1246.23,-355.801 1240.23,-355.801 1234.23,-349.801 1234.23,-343.801 1234.23,-343.801 1234.23,-308.999 1234.23,-308.999 1234.23,-302.999 1240.23,-296.999 1246.23,-296.999 1246.23,-296.999 1318.31,-296.999 1318.31,-296.999 1324.31,-296.999 1330.31,-302.999 1330.31,-308.999 1330.31,-308.999 1330.31,-343.801 1330.31,-343.801 1330.31,-349.801 1324.31,-355.801 1318.31,-355.801"/>
<text text-anchor="start" x="1253.67" y="-339" font-family="Helvetica,sans-Serif" font-size="14.00">gini = 0.0</text>
<text text-anchor="start" x="1244.34" y="-322.2" font-family="Helvetica,sans-Serif" font-size="14.00">samples = 2</text>
<text text-anchor="start" x="1242" y="-305.4" font-family="Helvetica,sans-Serif" font-size="14.00">value = [0, 2]</text>
</g>
<!-- 40&#45;&gt;46 -->
<g id="edge46" class="edge"><title>40&#45;&gt;46</title>
<path fill="none" stroke="black" d="M1203.66,-394.392C1215.53,-384.272 1228.8,-372.963 1241.01,-362.561"/>
<polygon fill="black" stroke="black" points="1243.51,-365.027 1248.85,-355.877 1238.97,-359.699 1243.51,-365.027"/>
</g>
<!-- 42 -->
<g id="node43" class="node"><title>42</title>
<path fill="none" stroke="black" d="M1203.31,-258.4C1203.31,-258.4 1131.23,-258.4 1131.23,-258.4 1125.23,-258.4 1119.23,-252.4 1119.23,-246.4 1119.23,-246.4 1119.23,-206.4 1119.23,-206.4 1119.23,-200.4 1125.23,-194.4 1131.23,-194.4 1131.23,-194.4 1203.31,-194.4 1203.31,-194.4 1209.31,-194.4 1215.31,-200.4 1215.31,-206.4 1215.31,-206.4 1215.31,-246.4 1215.31,-246.4 1215.31,-252.4 1209.31,-258.4 1203.31,-258.4"/>
<text text-anchor="start" x="1140.03" y="-242.8" font-family="Helvetica,sans-Serif" font-size="14.00">X</text>
<text text-anchor="start" x="1149.37" y="-242.8" font-family="Helvetica,sans-Serif" baseline-shift="sub" font-size="14.00">2</text>
<text text-anchor="start" x="1157.15" y="-242.8" font-family="Helvetica,sans-Serif" font-size="14.00"> ≤ 0.5</text>
<text text-anchor="start" x="1138.67" y="-228.8" font-family="Helvetica,sans-Serif" font-size="14.00">gini = 0.5</text>
<text text-anchor="start" x="1129.34" y="-214.8" font-family="Helvetica,sans-Serif" font-size="14.00">samples = 4</text>
<text text-anchor="start" x="1127" y="-200.8" font-family="Helvetica,sans-Serif" font-size="14.00">value = [2, 2]</text>
</g>
<!-- 41&#45;&gt;42 -->
<g id="edge42" class="edge"><title>41&#45;&gt;42</title>
<path fill="none" stroke="black" d="M1167.27,-294.392C1167.27,-286.259 1167.27,-277.359 1167.27,-268.778"/>
<polygon fill="black" stroke="black" points="1170.77,-268.542 1167.27,-258.542 1163.77,-268.542 1170.77,-268.542"/>
</g>
<!-- 45 -->
<g id="node46" class="node"><title>45</title>
<path fill="#399de5" stroke="black" d="M1318.31,-255.801C1318.31,-255.801 1246.23,-255.801 1246.23,-255.801 1240.23,-255.801 1234.23,-249.801 1234.23,-243.801 1234.23,-243.801 1234.23,-208.999 1234.23,-208.999 1234.23,-202.999 1240.23,-196.999 1246.23,-196.999 1246.23,-196.999 1318.31,-196.999 1318.31,-196.999 1324.31,-196.999 1330.31,-202.999 1330.31,-208.999 1330.31,-208.999 1330.31,-243.801 1330.31,-243.801 1330.31,-249.801 1324.31,-255.801 1318.31,-255.801"/>
<text text-anchor="start" x="1253.67" y="-239" font-family="Helvetica,sans-Serif" font-size="14.00">gini = 0.0</text>
<text text-anchor="start" x="1244.34" y="-222.2" font-family="Helvetica,sans-Serif" font-size="14.00">samples = 1</text>
<text text-anchor="start" x="1242" y="-205.4" font-family="Helvetica,sans-Serif" font-size="14.00">value = [0, 1]</text>
</g>
<!-- 41&#45;&gt;45 -->
<g id="edge45" class="edge"><title>41&#45;&gt;45</title>
<path fill="none" stroke="black" d="M1203.66,-294.392C1215.53,-284.272 1228.8,-272.963 1241.01,-262.561"/>
<polygon fill="black" stroke="black" points="1243.51,-265.027 1248.85,-255.877 1238.97,-259.699 1243.51,-265.027"/>
</g>
<!-- 43 -->
<g id="node44" class="node"><title>43</title>
<path fill="#e58139" stroke="black" d="M1203.31,-155.801C1203.31,-155.801 1131.23,-155.801 1131.23,-155.801 1125.23,-155.801 1119.23,-149.801 1119.23,-143.801 1119.23,-143.801 1119.23,-108.999 1119.23,-108.999 1119.23,-102.999 1125.23,-96.9986 1131.23,-96.9986 1131.23,-96.9986 1203.31,-96.9986 1203.31,-96.9986 1209.31,-96.9986 1215.31,-102.999 1215.31,-108.999 1215.31,-108.999 1215.31,-143.801 1215.31,-143.801 1215.31,-149.801 1209.31,-155.801 1203.31,-155.801"/>
<text text-anchor="start" x="1138.67" y="-139" font-family="Helvetica,sans-Serif" font-size="14.00">gini = 0.0</text>
<text text-anchor="start" x="1129.34" y="-122.2" font-family="Helvetica,sans-Serif" font-size="14.00">samples = 1</text>
<text text-anchor="start" x="1127" y="-105.4" font-family="Helvetica,sans-Serif" font-size="14.00">value = [1, 0]</text>
</g>
<!-- 42&#45;&gt;43 -->
<g id="edge43" class="edge"><title>42&#45;&gt;43</title>
<path fill="none" stroke="black" d="M1167.27,-194.392C1167.27,-185.429 1167.27,-175.533 1167.27,-166.16"/>
<polygon fill="black" stroke="black" points="1170.77,-165.877 1167.27,-155.877 1163.77,-165.877 1170.77,-165.877"/>
</g>
<!-- 44 -->
<g id="node45" class="node"><title>44</title>
<path fill="#399de5" fill-opacity="0.498039" stroke="black" d="M1318.31,-155.801C1318.31,-155.801 1246.23,-155.801 1246.23,-155.801 1240.23,-155.801 1234.23,-149.801 1234.23,-143.801 1234.23,-143.801 1234.23,-108.999 1234.23,-108.999 1234.23,-102.999 1240.23,-96.9986 1246.23,-96.9986 1246.23,-96.9986 1318.31,-96.9986 1318.31,-96.9986 1324.31,-96.9986 1330.31,-102.999 1330.31,-108.999 1330.31,-108.999 1330.31,-143.801 1330.31,-143.801 1330.31,-149.801 1324.31,-155.801 1318.31,-155.801"/>
<text text-anchor="start" x="1242" y="-139" font-family="Helvetica,sans-Serif" font-size="14.00">gini = 0.4444</text>
<text text-anchor="start" x="1244.34" y="-122.2" font-family="Helvetica,sans-Serif" font-size="14.00">samples = 3</text>
<text text-anchor="start" x="1242" y="-105.4" font-family="Helvetica,sans-Serif" font-size="14.00">value = [1, 2]</text>
</g>
<!-- 42&#45;&gt;44 -->
<g id="edge44" class="edge"><title>42&#45;&gt;44</title>
<path fill="none" stroke="black" d="M1203.66,-194.392C1215.53,-184.272 1228.8,-172.963 1241.01,-162.561"/>
<polygon fill="black" stroke="black" points="1243.51,-165.027 1248.85,-155.877 1238.97,-159.699 1243.51,-165.027"/>
</g>
</g>
</svg>
