<?xml version="1.0" encoding="UTF-8" standalone="no"?>
<!DOCTYPE svg PUBLIC "-//W3C//DTD SVG 1.1//EN"
 "http://www.w3.org/Graphics/SVG/1.1/DTD/svg11.dtd">
<!-- Generated by graphviz version 2.38.0 (20140413.2041)
 -->
<!-- Title: Tree Pages: 1 -->
<svg width="1415pt" height="979pt"
 viewBox="0.00 0.00 1414.54 979.20" xmlns="http://www.w3.org/2000/svg" xmlns:xlink="http://www.w3.org/1999/xlink">
<g id="graph0" class="graph" transform="scale(1 1) rotate(0) translate(4 975.2)">
<title>Tree</title>
<polygon fill="white" stroke="none" points="-4,4 -4,-975.2 1410.54,-975.2 1410.54,4 -4,4"/>
<!-- 0 -->
<g id="node1" class="node"><title>0</title>
<path fill="#e58139" fill-opacity="0.015686" stroke="black" d="M655.938,-971.2C655.938,-971.2 552.6,-971.2 552.6,-971.2 546.6,-971.2 540.6,-965.2 540.6,-959.2 540.6,-959.2 540.6,-891.2 540.6,-891.2 540.6,-885.2 546.6,-879.2 552.6,-879.2 552.6,-879.2 655.938,-879.2 655.938,-879.2 661.938,-879.2 667.938,-885.2 667.938,-891.2 667.938,-891.2 667.938,-959.2 667.938,-959.2 667.938,-965.2 661.938,-971.2 655.938,-971.2"/>
<text text-anchor="start" x="552.529" y="-954.6" font-family="Helvetica,sans-Serif" font-size="14.00">bathrooms ≤ 1.5</text>
<text text-anchor="start" x="575.674" y="-937.8" font-family="Helvetica,sans-Serif" font-size="14.00">gini = 0.5</text>
<text text-anchor="start" x="558.56" y="-921" font-family="Helvetica,sans-Serif" font-size="14.00">samples = 546</text>
<text text-anchor="start" x="548.435" y="-904.2" font-family="Helvetica,sans-Serif" font-size="14.00">value = [275, 271]</text>
<text text-anchor="start" x="576.455" y="-887.4" font-family="Helvetica,sans-Serif" font-size="14.00">class = 1</text>
</g>
<!-- 1 -->
<g id="node2" class="node"><title>1</title>
<path fill="#e58139" fill-opacity="0.364706" stroke="black" d="M554.938,-843.2C554.938,-843.2 451.6,-843.2 451.6,-843.2 445.6,-843.2 439.6,-837.2 439.6,-831.2 439.6,-831.2 439.6,-763.2 439.6,-763.2 439.6,-757.2 445.6,-751.2 451.6,-751.2 451.6,-751.2 554.938,-751.2 554.938,-751.2 560.938,-751.2 566.938,-757.2 566.938,-763.2 566.938,-763.2 566.938,-831.2 566.938,-831.2 566.938,-837.2 560.938,-843.2 554.938,-843.2"/>
<text text-anchor="start" x="453.474" y="-826.6" font-family="Helvetica,sans-Serif" font-size="14.00">bedrooms ≤ 2.5</text>
<text text-anchor="start" x="463" y="-809.8" font-family="Helvetica,sans-Serif" font-size="14.00">gini = 0.4749</text>
<text text-anchor="start" x="457.56" y="-793" font-family="Helvetica,sans-Serif" font-size="14.00">samples = 402</text>
<text text-anchor="start" x="447.435" y="-776.2" font-family="Helvetica,sans-Serif" font-size="14.00">value = [246, 156]</text>
<text text-anchor="start" x="475.455" y="-759.4" font-family="Helvetica,sans-Serif" font-size="14.00">class = 1</text>
</g>
<!-- 0&#45;&gt;1 -->
<g id="edge1" class="edge"><title>0&#45;&gt;1</title>
<path fill="none" stroke="black" d="M568.091,-879.067C560.911,-870.11 553.31,-860.628 545.938,-851.43"/>
<polygon fill="black" stroke="black" points="548.519,-849.055 539.534,-843.441 543.057,-853.433 548.519,-849.055"/>
<text text-anchor="middle" x="536.797" y="-864.091" font-family="Helvetica,sans-Serif" font-size="14.00">True</text>
</g>
<!-- 18 -->
<g id="node19" class="node"><title>18</title>
<path fill="#399de5" fill-opacity="0.749020" stroke="black" d="M754.155,-843.2C754.155,-843.2 658.383,-843.2 658.383,-843.2 652.383,-843.2 646.383,-837.2 646.383,-831.2 646.383,-831.2 646.383,-763.2 646.383,-763.2 646.383,-757.2 652.383,-751.2 658.383,-751.2 658.383,-751.2 754.155,-751.2 754.155,-751.2 760.155,-751.2 766.155,-757.2 766.155,-763.2 766.155,-763.2 766.155,-831.2 766.155,-831.2 766.155,-837.2 760.155,-843.2 754.155,-843.2"/>
<text text-anchor="start" x="656.474" y="-826.6" font-family="Helvetica,sans-Serif" font-size="14.00">bedrooms ≤ 2.5</text>
<text text-anchor="start" x="666" y="-809.8" font-family="Helvetica,sans-Serif" font-size="14.00">gini = 0.3217</text>
<text text-anchor="start" x="660.56" y="-793" font-family="Helvetica,sans-Serif" font-size="14.00">samples = 144</text>
<text text-anchor="start" x="654.326" y="-776.2" font-family="Helvetica,sans-Serif" font-size="14.00">value = [29, 115]</text>
<text text-anchor="start" x="678.455" y="-759.4" font-family="Helvetica,sans-Serif" font-size="14.00">class = 0</text>
</g>
<!-- 0&#45;&gt;18 -->
<g id="edge18" class="edge"><title>0&#45;&gt;18</title>
<path fill="none" stroke="black" d="M640.805,-879.067C648.056,-870.11 655.732,-860.628 663.178,-851.43"/>
<polygon fill="black" stroke="black" points="666.073,-853.416 669.645,-843.441 660.633,-849.012 666.073,-853.416"/>
<text text-anchor="middle" x="672.262" y="-864.104" font-family="Helvetica,sans-Serif" font-size="14.00">False</text>
</g>
<!-- 2 -->
<g id="node3" class="node"><title>2</title>
<path fill="#e58139" fill-opacity="0.772549" stroke="black" d="M347.155,-715.2C347.155,-715.2 251.383,-715.2 251.383,-715.2 245.383,-715.2 239.383,-709.2 239.383,-703.2 239.383,-703.2 239.383,-635.2 239.383,-635.2 239.383,-629.2 245.383,-623.2 251.383,-623.2 251.383,-623.2 347.155,-623.2 347.155,-623.2 353.155,-623.2 359.155,-629.2 359.155,-635.2 359.155,-635.2 359.155,-703.2 359.155,-703.2 359.155,-709.2 353.155,-715.2 347.155,-715.2"/>
<text text-anchor="start" x="256.474" y="-698.6" font-family="Helvetica,sans-Serif" font-size="14.00">fullbase ≤ 0.5</text>
<text text-anchor="start" x="259" y="-681.8" font-family="Helvetica,sans-Serif" font-size="14.00">gini = 0.3011</text>
<text text-anchor="start" x="253.56" y="-665" font-family="Helvetica,sans-Serif" font-size="14.00">samples = 130</text>
<text text-anchor="start" x="247.326" y="-648.2" font-family="Helvetica,sans-Serif" font-size="14.00">value = [106, 24]</text>
<text text-anchor="start" x="271.455" y="-631.4" font-family="Helvetica,sans-Serif" font-size="14.00">class = 1</text>
</g>
<!-- 1&#45;&gt;2 -->
<g id="edge2" class="edge"><title>1&#45;&gt;2</title>
<path fill="none" stroke="black" d="M439.561,-756.851C416.859,-742.829 391.196,-726.979 368.085,-712.704"/>
<polygon fill="black" stroke="black" points="369.71,-709.594 359.363,-707.317 366.032,-715.55 369.71,-709.594"/>
</g>
<!-- 7 -->
<g id="node8" class="node"><title>7</title>
<path fill="#e58139" fill-opacity="0.058824" stroke="black" d="M554.938,-715.2C554.938,-715.2 451.6,-715.2 451.6,-715.2 445.6,-715.2 439.6,-709.2 439.6,-703.2 439.6,-703.2 439.6,-635.2 439.6,-635.2 439.6,-629.2 445.6,-623.2 451.6,-623.2 451.6,-623.2 554.938,-623.2 554.938,-623.2 560.938,-623.2 566.938,-629.2 566.938,-635.2 566.938,-635.2 566.938,-703.2 566.938,-703.2 566.938,-709.2 560.938,-715.2 554.938,-715.2"/>
<text text-anchor="start" x="460.474" y="-698.6" font-family="Helvetica,sans-Serif" font-size="14.00">fullbase ≤ 0.5</text>
<text text-anchor="start" x="463" y="-681.8" font-family="Helvetica,sans-Serif" font-size="14.00">gini = 0.4996</text>
<text text-anchor="start" x="457.56" y="-665" font-family="Helvetica,sans-Serif" font-size="14.00">samples = 272</text>
<text text-anchor="start" x="447.435" y="-648.2" font-family="Helvetica,sans-Serif" font-size="14.00">value = [140, 132]</text>
<text text-anchor="start" x="475.455" y="-631.4" font-family="Helvetica,sans-Serif" font-size="14.00">class = 1</text>
</g>
<!-- 1&#45;&gt;7 -->
<g id="edge7" class="edge"><title>1&#45;&gt;7</title>
<path fill="none" stroke="black" d="M503.269,-751.067C503.269,-742.834 503.269,-734.157 503.269,-725.665"/>
<polygon fill="black" stroke="black" points="506.769,-725.441 503.269,-715.441 499.769,-725.441 506.769,-725.441"/>
</g>
<!-- 3 -->
<g id="node4" class="node"><title>3</title>
<path fill="#e58139" fill-opacity="0.894118" stroke="black" d="M212.859,-587.2C212.859,-587.2 121.679,-587.2 121.679,-587.2 115.679,-587.2 109.679,-581.2 109.679,-575.2 109.679,-575.2 109.679,-507.2 109.679,-507.2 109.679,-501.2 115.679,-495.2 121.679,-495.2 121.679,-495.2 212.859,-495.2 212.859,-495.2 218.859,-495.2 224.859,-501.2 224.859,-507.2 224.859,-507.2 224.859,-575.2 224.859,-575.2 224.859,-581.2 218.859,-587.2 212.859,-587.2"/>
<text text-anchor="start" x="117.474" y="-570.6" font-family="Helvetica,sans-Serif" font-size="14.00">bedrooms ≤ 1.5</text>
<text text-anchor="start" x="127" y="-553.8" font-family="Helvetica,sans-Serif" font-size="14.00">gini = 0.1753</text>
<text text-anchor="start" x="121.56" y="-537" font-family="Helvetica,sans-Serif" font-size="14.00">samples = 103</text>
<text text-anchor="start" x="119.217" y="-520.2" font-family="Helvetica,sans-Serif" font-size="14.00">value = [93, 10]</text>
<text text-anchor="start" x="139.455" y="-503.4" font-family="Helvetica,sans-Serif" font-size="14.00">class = 1</text>
</g>
<!-- 2&#45;&gt;3 -->
<g id="edge3" class="edge"><title>2&#45;&gt;3</title>
<path fill="none" stroke="black" d="M251.987,-623.067C242.319,-613.839 232.067,-604.053 222.159,-594.595"/>
<polygon fill="black" stroke="black" points="224.315,-591.814 214.665,-587.441 219.482,-596.878 224.315,-591.814"/>
</g>
<!-- 6 -->
<g id="node7" class="node"><title>6</title>
<path fill="#399de5" fill-opacity="0.070588" stroke="black" d="M343.372,-578.9C343.372,-578.9 255.166,-578.9 255.166,-578.9 249.166,-578.9 243.166,-572.9 243.166,-566.9 243.166,-566.9 243.166,-515.5 243.166,-515.5 243.166,-509.5 249.166,-503.5 255.166,-503.5 255.166,-503.5 343.372,-503.5 343.372,-503.5 349.372,-503.5 355.372,-509.5 355.372,-515.5 355.372,-515.5 355.372,-566.9 355.372,-566.9 355.372,-572.9 349.372,-578.9 343.372,-578.9"/>
<text text-anchor="start" x="259" y="-562.2" font-family="Helvetica,sans-Serif" font-size="14.00">gini = 0.4993</text>
<text text-anchor="start" x="257.451" y="-545.4" font-family="Helvetica,sans-Serif" font-size="14.00">samples = 27</text>
<text text-anchor="start" x="251.217" y="-528.6" font-family="Helvetica,sans-Serif" font-size="14.00">value = [13, 14]</text>
<text text-anchor="start" x="271.455" y="-511.8" font-family="Helvetica,sans-Serif" font-size="14.00">class = 0</text>
</g>
<!-- 2&#45;&gt;6 -->
<g id="edge6" class="edge"><title>2&#45;&gt;6</title>
<path fill="none" stroke="black" d="M299.269,-623.067C299.269,-612.151 299.269,-600.454 299.269,-589.443"/>
<polygon fill="black" stroke="black" points="302.769,-589.145 299.269,-579.145 295.769,-589.145 302.769,-589.145"/>
</g>
<!-- 4 -->
<g id="node5" class="node"><title>4</title>
<path fill="#e58139" stroke="black" d="M84.3078,-450.9C84.3078,-450.9 12.23,-450.9 12.23,-450.9 6.23,-450.9 0.229999,-444.9 0.229999,-438.9 0.229999,-438.9 0.229999,-387.5 0.229999,-387.5 0.229999,-381.5 6.23,-375.5 12.23,-375.5 12.23,-375.5 84.3078,-375.5 84.3078,-375.5 90.3078,-375.5 96.3078,-381.5 96.3078,-387.5 96.3078,-387.5 96.3078,-438.9 96.3078,-438.9 96.3078,-444.9 90.3078,-450.9 84.3078,-450.9"/>
<text text-anchor="start" x="19.6739" y="-434.2" font-family="Helvetica,sans-Serif" font-size="14.00">gini = 0.0</text>
<text text-anchor="start" x="10.3422" y="-417.4" font-family="Helvetica,sans-Serif" font-size="14.00">samples = 2</text>
<text text-anchor="start" x="8" y="-400.6" font-family="Helvetica,sans-Serif" font-size="14.00">value = [2, 0]</text>
<text text-anchor="start" x="20.4551" y="-383.8" font-family="Helvetica,sans-Serif" font-size="14.00">class = 1</text>
</g>
<!-- 3&#45;&gt;4 -->
<g id="edge4" class="edge"><title>3&#45;&gt;4</title>
<path fill="none" stroke="black" d="M124.643,-495.067C113.483,-483.25 101.459,-470.519 90.3286,-458.734"/>
<polygon fill="black" stroke="black" points="92.5721,-456.012 83.1612,-451.145 87.483,-460.818 92.5721,-456.012"/>
</g>
<!-- 5 -->
<g id="node6" class="node"><title>5</title>
<path fill="#e58139" fill-opacity="0.890196" stroke="black" d="M214.372,-450.9C214.372,-450.9 126.166,-450.9 126.166,-450.9 120.166,-450.9 114.166,-444.9 114.166,-438.9 114.166,-438.9 114.166,-387.5 114.166,-387.5 114.166,-381.5 120.166,-375.5 126.166,-375.5 126.166,-375.5 214.372,-375.5 214.372,-375.5 220.372,-375.5 226.372,-381.5 226.372,-387.5 226.372,-387.5 226.372,-438.9 226.372,-438.9 226.372,-444.9 220.372,-450.9 214.372,-450.9"/>
<text text-anchor="start" x="130" y="-434.2" font-family="Helvetica,sans-Serif" font-size="14.00">gini = 0.1784</text>
<text text-anchor="start" x="124.56" y="-417.4" font-family="Helvetica,sans-Serif" font-size="14.00">samples = 101</text>
<text text-anchor="start" x="122.217" y="-400.6" font-family="Helvetica,sans-Serif" font-size="14.00">value = [91, 10]</text>
<text text-anchor="start" x="142.455" y="-383.8" font-family="Helvetica,sans-Serif" font-size="14.00">class = 1</text>
</g>
<!-- 3&#45;&gt;5 -->
<g id="edge5" class="edge"><title>3&#45;&gt;5</title>
<path fill="none" stroke="black" d="M168.343,-495.067C168.603,-484.151 168.882,-472.454 169.144,-461.443"/>
<polygon fill="black" stroke="black" points="172.65,-461.225 169.389,-451.145 165.652,-461.059 172.65,-461.225"/>
</g>
<!-- 8 -->
<g id="node9" class="node"><title>8</title>
<path fill="#e58139" fill-opacity="0.290196" stroke="black" d="M481.155,-587.2C481.155,-587.2 385.383,-587.2 385.383,-587.2 379.383,-587.2 373.383,-581.2 373.383,-575.2 373.383,-575.2 373.383,-507.2 373.383,-507.2 373.383,-501.2 379.383,-495.2 385.383,-495.2 385.383,-495.2 481.155,-495.2 481.155,-495.2 487.155,-495.2 493.155,-501.2 493.155,-507.2 493.155,-507.2 493.155,-575.2 493.155,-575.2 493.155,-581.2 487.155,-587.2 481.155,-587.2"/>
<text text-anchor="start" x="383.474" y="-570.6" font-family="Helvetica,sans-Serif" font-size="14.00">bedrooms ≤ 4.5</text>
<text text-anchor="start" x="393" y="-553.8" font-family="Helvetica,sans-Serif" font-size="14.00">gini = 0.4856</text>
<text text-anchor="start" x="387.56" y="-537" font-family="Helvetica,sans-Serif" font-size="14.00">samples = 171</text>
<text text-anchor="start" x="381.326" y="-520.2" font-family="Helvetica,sans-Serif" font-size="14.00">value = [100, 71]</text>
<text text-anchor="start" x="405.455" y="-503.4" font-family="Helvetica,sans-Serif" font-size="14.00">class = 1</text>
</g>
<!-- 7&#45;&gt;8 -->
<g id="edge8" class="edge"><title>7&#45;&gt;8</title>
<path fill="none" stroke="black" d="M478.195,-623.067C473.37,-614.381 468.27,-605.202 463.306,-596.267"/>
<polygon fill="black" stroke="black" points="466.319,-594.483 458.403,-587.441 460.2,-597.883 466.319,-594.483"/>
</g>
<!-- 13 -->
<g id="node14" class="node"><title>13</title>
<path fill="#399de5" fill-opacity="0.345098" stroke="black" d="M614.859,-587.2C614.859,-587.2 523.679,-587.2 523.679,-587.2 517.679,-587.2 511.679,-581.2 511.679,-575.2 511.679,-575.2 511.679,-507.2 511.679,-507.2 511.679,-501.2 517.679,-495.2 523.679,-495.2 523.679,-495.2 614.859,-495.2 614.859,-495.2 620.859,-495.2 626.859,-501.2 626.859,-507.2 626.859,-507.2 626.859,-575.2 626.859,-575.2 626.859,-581.2 620.859,-587.2 614.859,-587.2"/>
<text text-anchor="start" x="519.474" y="-570.6" font-family="Helvetica,sans-Serif" font-size="14.00">bedrooms ≤ 4.5</text>
<text text-anchor="start" x="529" y="-553.8" font-family="Helvetica,sans-Serif" font-size="14.00">gini = 0.4784</text>
<text text-anchor="start" x="523.56" y="-537" font-family="Helvetica,sans-Serif" font-size="14.00">samples = 101</text>
<text text-anchor="start" x="521.217" y="-520.2" font-family="Helvetica,sans-Serif" font-size="14.00">value = [40, 61]</text>
<text text-anchor="start" x="541.455" y="-503.4" font-family="Helvetica,sans-Serif" font-size="14.00">class = 0</text>
</g>
<!-- 7&#45;&gt;13 -->
<g id="edge13" class="edge"><title>7&#45;&gt;13</title>
<path fill="none" stroke="black" d="M526.91,-623.067C531.412,-614.472 536.168,-605.393 540.802,-596.547"/>
<polygon fill="black" stroke="black" points="544.031,-597.924 545.571,-587.441 537.83,-594.676 544.031,-597.924"/>
</g>
<!-- 9 -->
<g id="node10" class="node"><title>9</title>
<path fill="#e58139" fill-opacity="0.274510" stroke="black" d="M351.859,-459.2C351.859,-459.2 260.679,-459.2 260.679,-459.2 254.679,-459.2 248.679,-453.2 248.679,-447.2 248.679,-447.2 248.679,-379.2 248.679,-379.2 248.679,-373.2 254.679,-367.2 260.679,-367.2 260.679,-367.2 351.859,-367.2 351.859,-367.2 357.859,-367.2 363.859,-373.2 363.859,-379.2 363.859,-379.2 363.859,-447.2 363.859,-447.2 363.859,-453.2 357.859,-459.2 351.859,-459.2"/>
<text text-anchor="start" x="256.474" y="-442.6" font-family="Helvetica,sans-Serif" font-size="14.00">bedrooms ≤ 3.5</text>
<text text-anchor="start" x="266" y="-425.8" font-family="Helvetica,sans-Serif" font-size="14.00">gini = 0.4872</text>
<text text-anchor="start" x="260.56" y="-409" font-family="Helvetica,sans-Serif" font-size="14.00">samples = 169</text>
<text text-anchor="start" x="258.217" y="-392.2" font-family="Helvetica,sans-Serif" font-size="14.00">value = [98, 71]</text>
<text text-anchor="start" x="278.455" y="-375.4" font-family="Helvetica,sans-Serif" font-size="14.00">class = 1</text>
</g>
<!-- 8&#45;&gt;9 -->
<g id="edge9" class="edge"><title>8&#45;&gt;9</title>
<path fill="none" stroke="black" d="M387.778,-495.067C378.476,-485.839 368.612,-476.053 359.08,-466.595"/>
<polygon fill="black" stroke="black" points="361.433,-464 351.869,-459.441 356.503,-468.969 361.433,-464"/>
</g>
<!-- 12 -->
<g id="node13" class="node"><title>12</title>
<path fill="#e58139" stroke="black" d="M469.308,-450.9C469.308,-450.9 397.23,-450.9 397.23,-450.9 391.23,-450.9 385.23,-444.9 385.23,-438.9 385.23,-438.9 385.23,-387.5 385.23,-387.5 385.23,-381.5 391.23,-375.5 397.23,-375.5 397.23,-375.5 469.308,-375.5 469.308,-375.5 475.308,-375.5 481.308,-381.5 481.308,-387.5 481.308,-387.5 481.308,-438.9 481.308,-438.9 481.308,-444.9 475.308,-450.9 469.308,-450.9"/>
<text text-anchor="start" x="404.674" y="-434.2" font-family="Helvetica,sans-Serif" font-size="14.00">gini = 0.0</text>
<text text-anchor="start" x="395.342" y="-417.4" font-family="Helvetica,sans-Serif" font-size="14.00">samples = 2</text>
<text text-anchor="start" x="393" y="-400.6" font-family="Helvetica,sans-Serif" font-size="14.00">value = [2, 0]</text>
<text text-anchor="start" x="405.455" y="-383.8" font-family="Helvetica,sans-Serif" font-size="14.00">class = 1</text>
</g>
<!-- 8&#45;&gt;12 -->
<g id="edge12" class="edge"><title>8&#45;&gt;12</title>
<path fill="none" stroke="black" d="M433.269,-495.067C433.269,-484.151 433.269,-472.454 433.269,-461.443"/>
<polygon fill="black" stroke="black" points="436.769,-461.145 433.269,-451.145 429.769,-461.145 436.769,-461.145"/>
</g>
<!-- 10 -->
<g id="node11" class="node"><title>10</title>
<path fill="#e58139" fill-opacity="0.250980" stroke="black" d="M220.372,-322.9C220.372,-322.9 132.166,-322.9 132.166,-322.9 126.166,-322.9 120.166,-316.9 120.166,-310.9 120.166,-310.9 120.166,-259.5 120.166,-259.5 120.166,-253.5 126.166,-247.5 132.166,-247.5 132.166,-247.5 220.372,-247.5 220.372,-247.5 226.372,-247.5 232.372,-253.5 232.372,-259.5 232.372,-259.5 232.372,-310.9 232.372,-310.9 232.372,-316.9 226.372,-322.9 220.372,-322.9"/>
<text text-anchor="start" x="136" y="-306.2" font-family="Helvetica,sans-Serif" font-size="14.00">gini = 0.4898</text>
<text text-anchor="start" x="130.56" y="-289.4" font-family="Helvetica,sans-Serif" font-size="14.00">samples = 140</text>
<text text-anchor="start" x="128.217" y="-272.6" font-family="Helvetica,sans-Serif" font-size="14.00">value = [80, 60]</text>
<text text-anchor="start" x="148.455" y="-255.8" font-family="Helvetica,sans-Serif" font-size="14.00">class = 1</text>
</g>
<!-- 9&#45;&gt;10 -->
<g id="edge10" class="edge"><title>9&#45;&gt;10</title>
<path fill="none" stroke="black" d="M259.703,-367.067C247.395,-355.138 234.126,-342.277 221.869,-330.397"/>
<polygon fill="black" stroke="black" points="224.003,-327.591 214.387,-323.145 219.131,-332.618 224.003,-327.591"/>
</g>
<!-- 11 -->
<g id="node12" class="node"><title>11</title>
<path fill="#e58139" fill-opacity="0.388235" stroke="black" d="M350.372,-322.9C350.372,-322.9 262.166,-322.9 262.166,-322.9 256.166,-322.9 250.166,-316.9 250.166,-310.9 250.166,-310.9 250.166,-259.5 250.166,-259.5 250.166,-253.5 256.166,-247.5 262.166,-247.5 262.166,-247.5 350.372,-247.5 350.372,-247.5 356.372,-247.5 362.372,-253.5 362.372,-259.5 362.372,-259.5 362.372,-310.9 362.372,-310.9 362.372,-316.9 356.372,-322.9 350.372,-322.9"/>
<text text-anchor="start" x="266" y="-306.2" font-family="Helvetica,sans-Serif" font-size="14.00">gini = 0.4709</text>
<text text-anchor="start" x="264.451" y="-289.4" font-family="Helvetica,sans-Serif" font-size="14.00">samples = 29</text>
<text text-anchor="start" x="258.217" y="-272.6" font-family="Helvetica,sans-Serif" font-size="14.00">value = [18, 11]</text>
<text text-anchor="start" x="278.455" y="-255.8" font-family="Helvetica,sans-Serif" font-size="14.00">class = 1</text>
</g>
<!-- 9&#45;&gt;11 -->
<g id="edge11" class="edge"><title>9&#45;&gt;11</title>
<path fill="none" stroke="black" d="M306.269,-367.067C306.269,-356.151 306.269,-344.454 306.269,-333.443"/>
<polygon fill="black" stroke="black" points="309.769,-333.145 306.269,-323.145 302.769,-333.145 309.769,-333.145"/>
</g>
<!-- 14 -->
<g id="node15" class="node"><title>14</title>
<path fill="#399de5" fill-opacity="0.337255" stroke="black" d="M603.859,-459.2C603.859,-459.2 512.679,-459.2 512.679,-459.2 506.679,-459.2 500.679,-453.2 500.679,-447.2 500.679,-447.2 500.679,-379.2 500.679,-379.2 500.679,-373.2 506.679,-367.2 512.679,-367.2 512.679,-367.2 603.859,-367.2 603.859,-367.2 609.859,-367.2 615.859,-373.2 615.859,-379.2 615.859,-379.2 615.859,-447.2 615.859,-447.2 615.859,-453.2 609.859,-459.2 603.859,-459.2"/>
<text text-anchor="start" x="508.474" y="-442.6" font-family="Helvetica,sans-Serif" font-size="14.00">bedrooms ≤ 3.5</text>
<text text-anchor="start" x="518" y="-425.8" font-family="Helvetica,sans-Serif" font-size="14.00">gini = 0.4792</text>
<text text-anchor="start" x="516.451" y="-409" font-family="Helvetica,sans-Serif" font-size="14.00">samples = 98</text>
<text text-anchor="start" x="510.217" y="-392.2" font-family="Helvetica,sans-Serif" font-size="14.00">value = [39, 59]</text>
<text text-anchor="start" x="530.455" y="-375.4" font-family="Helvetica,sans-Serif" font-size="14.00">class = 0</text>
</g>
<!-- 13&#45;&gt;14 -->
<g id="edge14" class="edge"><title>13&#45;&gt;14</title>
<path fill="none" stroke="black" d="M565.329,-495.067C564.61,-486.834 563.852,-478.157 563.111,-469.665"/>
<polygon fill="black" stroke="black" points="566.575,-469.099 562.219,-459.441 559.602,-469.708 566.575,-469.099"/>
</g>
<!-- 17 -->
<g id="node18" class="node"><title>17</title>
<path fill="#399de5" fill-opacity="0.498039" stroke="black" d="M718.308,-450.9C718.308,-450.9 646.23,-450.9 646.23,-450.9 640.23,-450.9 634.23,-444.9 634.23,-438.9 634.23,-438.9 634.23,-387.5 634.23,-387.5 634.23,-381.5 640.23,-375.5 646.23,-375.5 646.23,-375.5 718.308,-375.5 718.308,-375.5 724.308,-375.5 730.308,-381.5 730.308,-387.5 730.308,-387.5 730.308,-438.9 730.308,-438.9 730.308,-444.9 724.308,-450.9 718.308,-450.9"/>
<text text-anchor="start" x="642" y="-434.2" font-family="Helvetica,sans-Serif" font-size="14.00">gini = 0.4444</text>
<text text-anchor="start" x="644.342" y="-417.4" font-family="Helvetica,sans-Serif" font-size="14.00">samples = 3</text>
<text text-anchor="start" x="642" y="-400.6" font-family="Helvetica,sans-Serif" font-size="14.00">value = [1, 2]</text>
<text text-anchor="start" x="654.455" y="-383.8" font-family="Helvetica,sans-Serif" font-size="14.00">class = 0</text>
</g>
<!-- 13&#45;&gt;17 -->
<g id="edge17" class="edge"><title>13&#45;&gt;17</title>
<path fill="none" stroke="black" d="M609.745,-495.067C620.343,-483.25 631.76,-470.519 642.33,-458.734"/>
<polygon fill="black" stroke="black" points="645.065,-460.926 649.136,-451.145 639.854,-456.253 645.065,-460.926"/>
</g>
<!-- 15 -->
<g id="node16" class="node"><title>15</title>
<path fill="#399de5" fill-opacity="0.333333" stroke="black" d="M480.372,-322.9C480.372,-322.9 392.166,-322.9 392.166,-322.9 386.166,-322.9 380.166,-316.9 380.166,-310.9 380.166,-310.9 380.166,-259.5 380.166,-259.5 380.166,-253.5 386.166,-247.5 392.166,-247.5 392.166,-247.5 480.372,-247.5 480.372,-247.5 486.372,-247.5 492.372,-253.5 492.372,-259.5 492.372,-259.5 492.372,-310.9 492.372,-310.9 492.372,-316.9 486.372,-322.9 480.372,-322.9"/>
<text text-anchor="start" x="403.783" y="-306.2" font-family="Helvetica,sans-Serif" font-size="14.00">gini = 0.48</text>
<text text-anchor="start" x="394.451" y="-289.4" font-family="Helvetica,sans-Serif" font-size="14.00">samples = 85</text>
<text text-anchor="start" x="388.217" y="-272.6" font-family="Helvetica,sans-Serif" font-size="14.00">value = [34, 51]</text>
<text text-anchor="start" x="408.455" y="-255.8" font-family="Helvetica,sans-Serif" font-size="14.00">class = 0</text>
</g>
<!-- 14&#45;&gt;15 -->
<g id="edge15" class="edge"><title>14&#45;&gt;15</title>
<path fill="none" stroke="black" d="M514.569,-367.067C503.018,-355.138 490.565,-342.277 479.063,-330.397"/>
<polygon fill="black" stroke="black" points="481.512,-327.894 472.041,-323.145 476.483,-332.764 481.512,-327.894"/>
</g>
<!-- 16 -->
<g id="node17" class="node"><title>16</title>
<path fill="#399de5" fill-opacity="0.376471" stroke="black" d="M597.906,-322.9C597.906,-322.9 522.632,-322.9 522.632,-322.9 516.632,-322.9 510.632,-316.9 510.632,-310.9 510.632,-310.9 510.632,-259.5 510.632,-259.5 510.632,-253.5 516.632,-247.5 522.632,-247.5 522.632,-247.5 597.906,-247.5 597.906,-247.5 603.906,-247.5 609.906,-253.5 609.906,-259.5 609.906,-259.5 609.906,-310.9 609.906,-310.9 609.906,-316.9 603.906,-322.9 597.906,-322.9"/>
<text text-anchor="start" x="520" y="-306.2" font-family="Helvetica,sans-Serif" font-size="14.00">gini = 0.4734</text>
<text text-anchor="start" x="518.451" y="-289.4" font-family="Helvetica,sans-Serif" font-size="14.00">samples = 13</text>
<text text-anchor="start" x="520" y="-272.6" font-family="Helvetica,sans-Serif" font-size="14.00">value = [5, 8]</text>
<text text-anchor="start" x="532.455" y="-255.8" font-family="Helvetica,sans-Serif" font-size="14.00">class = 0</text>
</g>
<!-- 14&#45;&gt;16 -->
<g id="edge16" class="edge"><title>14&#45;&gt;16</title>
<path fill="none" stroke="black" d="M558.985,-367.067C559.159,-356.151 559.344,-344.454 559.519,-333.443"/>
<polygon fill="black" stroke="black" points="563.023,-333.199 559.682,-323.145 556.024,-333.088 563.023,-333.199"/>
</g>
<!-- 19 -->
<g id="node20" class="node"><title>19</title>
<path fill="#e58139" fill-opacity="0.400000" stroke="black" d="M744.859,-715.2C744.859,-715.2 667.679,-715.2 667.679,-715.2 661.679,-715.2 655.679,-709.2 655.679,-703.2 655.679,-703.2 655.679,-635.2 655.679,-635.2 655.679,-629.2 661.679,-623.2 667.679,-623.2 667.679,-623.2 744.859,-623.2 744.859,-623.2 750.859,-623.2 756.859,-629.2 756.859,-635.2 756.859,-635.2 756.859,-703.2 756.859,-703.2 756.859,-709.2 750.859,-715.2 744.859,-715.2"/>
<text text-anchor="start" x="663.474" y="-698.6" font-family="Helvetica,sans-Serif" font-size="14.00">fullbase ≤ 0.5</text>
<text text-anchor="start" x="666" y="-681.8" font-family="Helvetica,sans-Serif" font-size="14.00">gini = 0.4688</text>
<text text-anchor="start" x="668.342" y="-665" font-family="Helvetica,sans-Serif" font-size="14.00">samples = 8</text>
<text text-anchor="start" x="666" y="-648.2" font-family="Helvetica,sans-Serif" font-size="14.00">value = [5, 3]</text>
<text text-anchor="start" x="678.455" y="-631.4" font-family="Helvetica,sans-Serif" font-size="14.00">class = 1</text>
</g>
<!-- 18&#45;&gt;19 -->
<g id="edge19" class="edge"><title>18&#45;&gt;19</title>
<path fill="none" stroke="black" d="M706.269,-751.067C706.269,-742.834 706.269,-734.157 706.269,-725.665"/>
<polygon fill="black" stroke="black" points="709.769,-725.441 706.269,-715.441 702.769,-725.441 709.769,-725.441"/>
</g>
<!-- 22 -->
<g id="node23" class="node"><title>22</title>
<path fill="#399de5" fill-opacity="0.784314" stroke="black" d="M1015.15,-715.2C1015.15,-715.2 919.383,-715.2 919.383,-715.2 913.383,-715.2 907.383,-709.2 907.383,-703.2 907.383,-703.2 907.383,-635.2 907.383,-635.2 907.383,-629.2 913.383,-623.2 919.383,-623.2 919.383,-623.2 1015.15,-623.2 1015.15,-623.2 1021.15,-623.2 1027.15,-629.2 1027.15,-635.2 1027.15,-635.2 1027.15,-703.2 1027.15,-703.2 1027.15,-709.2 1021.15,-715.2 1015.15,-715.2"/>
<text text-anchor="start" x="917.474" y="-698.6" font-family="Helvetica,sans-Serif" font-size="14.00">bedrooms ≤ 4.5</text>
<text text-anchor="start" x="927" y="-681.8" font-family="Helvetica,sans-Serif" font-size="14.00">gini = 0.2907</text>
<text text-anchor="start" x="921.56" y="-665" font-family="Helvetica,sans-Serif" font-size="14.00">samples = 136</text>
<text text-anchor="start" x="915.326" y="-648.2" font-family="Helvetica,sans-Serif" font-size="14.00">value = [24, 112]</text>
<text text-anchor="start" x="939.455" y="-631.4" font-family="Helvetica,sans-Serif" font-size="14.00">class = 0</text>
</g>
<!-- 18&#45;&gt;22 -->
<g id="edge22" class="edge"><title>18&#45;&gt;22</title>
<path fill="none" stroke="black" d="M766.475,-767.135C805.804,-748.148 857.274,-723.301 898.257,-703.516"/>
<polygon fill="black" stroke="black" points="899.881,-706.618 907.365,-699.119 896.838,-700.315 899.881,-706.618"/>
</g>
<!-- 20 -->
<g id="node21" class="node"><title>20</title>
<path fill="#399de5" stroke="black" d="M738.308,-578.9C738.308,-578.9 666.23,-578.9 666.23,-578.9 660.23,-578.9 654.23,-572.9 654.23,-566.9 654.23,-566.9 654.23,-515.5 654.23,-515.5 654.23,-509.5 660.23,-503.5 666.23,-503.5 666.23,-503.5 738.308,-503.5 738.308,-503.5 744.308,-503.5 750.308,-509.5 750.308,-515.5 750.308,-515.5 750.308,-566.9 750.308,-566.9 750.308,-572.9 744.308,-578.9 738.308,-578.9"/>
<text text-anchor="start" x="673.674" y="-562.2" font-family="Helvetica,sans-Serif" font-size="14.00">gini = 0.0</text>
<text text-anchor="start" x="664.342" y="-545.4" font-family="Helvetica,sans-Serif" font-size="14.00">samples = 1</text>
<text text-anchor="start" x="662" y="-528.6" font-family="Helvetica,sans-Serif" font-size="14.00">value = [0, 1]</text>
<text text-anchor="start" x="674.455" y="-511.8" font-family="Helvetica,sans-Serif" font-size="14.00">class = 0</text>
</g>
<!-- 19&#45;&gt;20 -->
<g id="edge20" class="edge"><title>19&#45;&gt;20</title>
<path fill="none" stroke="black" d="M704.836,-623.067C704.49,-612.151 704.118,-600.454 703.769,-589.443"/>
<polygon fill="black" stroke="black" points="707.257,-589.029 703.442,-579.145 700.261,-589.251 707.257,-589.029"/>
</g>
<!-- 21 -->
<g id="node22" class="node"><title>21</title>
<path fill="#e58139" fill-opacity="0.600000" stroke="black" d="M853.308,-578.9C853.308,-578.9 781.23,-578.9 781.23,-578.9 775.23,-578.9 769.23,-572.9 769.23,-566.9 769.23,-566.9 769.23,-515.5 769.23,-515.5 769.23,-509.5 775.23,-503.5 781.23,-503.5 781.23,-503.5 853.308,-503.5 853.308,-503.5 859.308,-503.5 865.308,-509.5 865.308,-515.5 865.308,-515.5 865.308,-566.9 865.308,-566.9 865.308,-572.9 859.308,-578.9 853.308,-578.9"/>
<text text-anchor="start" x="777" y="-562.2" font-family="Helvetica,sans-Serif" font-size="14.00">gini = 0.4082</text>
<text text-anchor="start" x="779.342" y="-545.4" font-family="Helvetica,sans-Serif" font-size="14.00">samples = 7</text>
<text text-anchor="start" x="777" y="-528.6" font-family="Helvetica,sans-Serif" font-size="14.00">value = [5, 2]</text>
<text text-anchor="start" x="789.455" y="-511.8" font-family="Helvetica,sans-Serif" font-size="14.00">class = 1</text>
</g>
<!-- 19&#45;&gt;21 -->
<g id="edge21" class="edge"><title>19&#45;&gt;21</title>
<path fill="none" stroke="black" d="M746.029,-623.067C756.439,-611.25 767.654,-598.519 778.037,-586.734"/>
<polygon fill="black" stroke="black" points="780.738,-588.962 784.722,-579.145 775.486,-584.335 780.738,-588.962"/>
</g>
<!-- 23 -->
<g id="node24" class="node"><title>23</title>
<path fill="#399de5" fill-opacity="0.796078" stroke="black" d="M1015.15,-587.2C1015.15,-587.2 919.383,-587.2 919.383,-587.2 913.383,-587.2 907.383,-581.2 907.383,-575.2 907.383,-575.2 907.383,-507.2 907.383,-507.2 907.383,-501.2 913.383,-495.2 919.383,-495.2 919.383,-495.2 1015.15,-495.2 1015.15,-495.2 1021.15,-495.2 1027.15,-501.2 1027.15,-507.2 1027.15,-507.2 1027.15,-575.2 1027.15,-575.2 1027.15,-581.2 1021.15,-587.2 1015.15,-587.2"/>
<text text-anchor="start" x="917.474" y="-570.6" font-family="Helvetica,sans-Serif" font-size="14.00">bedrooms ≤ 3.5</text>
<text text-anchor="start" x="927" y="-553.8" font-family="Helvetica,sans-Serif" font-size="14.00">gini = 0.2829</text>
<text text-anchor="start" x="921.56" y="-537" font-family="Helvetica,sans-Serif" font-size="14.00">samples = 129</text>
<text text-anchor="start" x="915.326" y="-520.2" font-family="Helvetica,sans-Serif" font-size="14.00">value = [22, 107]</text>
<text text-anchor="start" x="939.455" y="-503.4" font-family="Helvetica,sans-Serif" font-size="14.00">class = 0</text>
</g>
<!-- 22&#45;&gt;23 -->
<g id="edge23" class="edge"><title>22&#45;&gt;23</title>
<path fill="none" stroke="black" d="M967.269,-623.067C967.269,-614.834 967.269,-606.157 967.269,-597.665"/>
<polygon fill="black" stroke="black" points="970.769,-597.441 967.269,-587.441 963.769,-597.441 970.769,-597.441"/>
</g>
<!-- 40 -->
<g id="node41" class="node"><title>40</title>
<path fill="#399de5" fill-opacity="0.600000" stroke="black" d="M1282.25,-587.2C1282.25,-587.2 1186.29,-587.2 1186.29,-587.2 1180.29,-587.2 1174.29,-581.2 1174.29,-575.2 1174.29,-575.2 1174.29,-507.2 1174.29,-507.2 1174.29,-501.2 1180.29,-495.2 1186.29,-495.2 1186.29,-495.2 1282.25,-495.2 1282.25,-495.2 1288.25,-495.2 1294.25,-501.2 1294.25,-507.2 1294.25,-507.2 1294.25,-575.2 1294.25,-575.2 1294.25,-581.2 1288.25,-587.2 1282.25,-587.2"/>
<text text-anchor="start" x="1182.53" y="-570.6" font-family="Helvetica,sans-Serif" font-size="14.00">bathrooms ≤ 2.5</text>
<text text-anchor="start" x="1194" y="-553.8" font-family="Helvetica,sans-Serif" font-size="14.00">gini = 0.4082</text>
<text text-anchor="start" x="1196.34" y="-537" font-family="Helvetica,sans-Serif" font-size="14.00">samples = 7</text>
<text text-anchor="start" x="1194" y="-520.2" font-family="Helvetica,sans-Serif" font-size="14.00">value = [2, 5]</text>
<text text-anchor="start" x="1206.46" y="-503.4" font-family="Helvetica,sans-Serif" font-size="14.00">class = 0</text>
</g>
<!-- 22&#45;&gt;40 -->
<g id="edge40" class="edge"><title>22&#45;&gt;40</title>
<path fill="none" stroke="black" d="M1027.19,-639.923C1068.01,-620.658 1122.19,-595.093 1164.88,-574.944"/>
<polygon fill="black" stroke="black" points="1166.54,-578.033 1174.09,-570.6 1163.55,-571.703 1166.54,-578.033"/>
</g>
<!-- 24 -->
<g id="node25" class="node"><title>24</title>
<path fill="#399de5" fill-opacity="0.772549" stroke="black" d="M858.249,-459.2C858.249,-459.2 762.288,-459.2 762.288,-459.2 756.288,-459.2 750.288,-453.2 750.288,-447.2 750.288,-447.2 750.288,-379.2 750.288,-379.2 750.288,-373.2 756.288,-367.2 762.288,-367.2 762.288,-367.2 858.249,-367.2 858.249,-367.2 864.249,-367.2 870.249,-373.2 870.249,-379.2 870.249,-379.2 870.249,-447.2 870.249,-447.2 870.249,-453.2 864.249,-459.2 858.249,-459.2"/>
<text text-anchor="start" x="758.529" y="-442.6" font-family="Helvetica,sans-Serif" font-size="14.00">bathrooms ≤ 2.5</text>
<text text-anchor="start" x="770" y="-425.8" font-family="Helvetica,sans-Serif" font-size="14.00">gini = 0.3006</text>
<text text-anchor="start" x="768.451" y="-409" font-family="Helvetica,sans-Serif" font-size="14.00">samples = 76</text>
<text text-anchor="start" x="762.217" y="-392.2" font-family="Helvetica,sans-Serif" font-size="14.00">value = [14, 62]</text>
<text text-anchor="start" x="782.455" y="-375.4" font-family="Helvetica,sans-Serif" font-size="14.00">class = 0</text>
</g>
<!-- 23&#45;&gt;24 -->
<g id="edge24" class="edge"><title>23&#45;&gt;24</title>
<path fill="none" stroke="black" d="M911.032,-495.067C899.123,-485.509 886.468,-475.353 874.295,-465.584"/>
<polygon fill="black" stroke="black" points="876.367,-462.759 866.377,-459.23 871.985,-468.218 876.367,-462.759"/>
</g>
<!-- 31 -->
<g id="node32" class="node"><title>31</title>
<path fill="#399de5" fill-opacity="0.823529" stroke="black" d="M1039.25,-459.2C1039.25,-459.2 943.288,-459.2 943.288,-459.2 937.288,-459.2 931.288,-453.2 931.288,-447.2 931.288,-447.2 931.288,-379.2 931.288,-379.2 931.288,-373.2 937.288,-367.2 943.288,-367.2 943.288,-367.2 1039.25,-367.2 1039.25,-367.2 1045.25,-367.2 1051.25,-373.2 1051.25,-379.2 1051.25,-379.2 1051.25,-447.2 1051.25,-447.2 1051.25,-453.2 1045.25,-459.2 1039.25,-459.2"/>
<text text-anchor="start" x="939.529" y="-442.6" font-family="Helvetica,sans-Serif" font-size="14.00">bathrooms ≤ 3.5</text>
<text text-anchor="start" x="951" y="-425.8" font-family="Helvetica,sans-Serif" font-size="14.00">gini = 0.2563</text>
<text text-anchor="start" x="949.451" y="-409" font-family="Helvetica,sans-Serif" font-size="14.00">samples = 53</text>
<text text-anchor="start" x="947.109" y="-392.2" font-family="Helvetica,sans-Serif" font-size="14.00">value = [8, 45]</text>
<text text-anchor="start" x="963.455" y="-375.4" font-family="Helvetica,sans-Serif" font-size="14.00">class = 0</text>
</g>
<!-- 23&#45;&gt;31 -->
<g id="edge31" class="edge"><title>23&#45;&gt;31</title>
<path fill="none" stroke="black" d="M975.866,-495.067C977.451,-486.743 979.123,-477.966 980.757,-469.385"/>
<polygon fill="black" stroke="black" points="984.218,-469.92 982.651,-459.441 977.342,-468.61 984.218,-469.92"/>
</g>
<!-- 25 -->
<g id="node26" class="node"><title>25</title>
<path fill="#399de5" fill-opacity="0.780392" stroke="black" d="M728.372,-331.2C728.372,-331.2 640.166,-331.2 640.166,-331.2 634.166,-331.2 628.166,-325.2 628.166,-319.2 628.166,-319.2 628.166,-251.2 628.166,-251.2 628.166,-245.2 634.166,-239.2 640.166,-239.2 640.166,-239.2 728.372,-239.2 728.372,-239.2 734.372,-239.2 740.372,-245.2 740.372,-251.2 740.372,-251.2 740.372,-319.2 740.372,-319.2 740.372,-325.2 734.372,-331.2 728.372,-331.2"/>
<text text-anchor="start" x="641.474" y="-314.6" font-family="Helvetica,sans-Serif" font-size="14.00">fullbase ≤ 0.5</text>
<text text-anchor="start" x="644" y="-297.8" font-family="Helvetica,sans-Serif" font-size="14.00">gini = 0.2959</text>
<text text-anchor="start" x="642.451" y="-281" font-family="Helvetica,sans-Serif" font-size="14.00">samples = 72</text>
<text text-anchor="start" x="636.217" y="-264.2" font-family="Helvetica,sans-Serif" font-size="14.00">value = [13, 59]</text>
<text text-anchor="start" x="656.455" y="-247.4" font-family="Helvetica,sans-Serif" font-size="14.00">class = 0</text>
</g>
<!-- 24&#45;&gt;25 -->
<g id="edge25" class="edge"><title>24&#45;&gt;25</title>
<path fill="none" stroke="black" d="M765.136,-367.067C755.908,-357.839 746.122,-348.053 736.664,-338.595"/>
<polygon fill="black" stroke="black" points="739.056,-336.038 729.51,-331.441 734.106,-340.987 739.056,-336.038"/>
</g>
<!-- 28 -->
<g id="node29" class="node"><title>28</title>
<path fill="#399de5" fill-opacity="0.666667" stroke="black" d="M848.859,-331.2C848.859,-331.2 771.679,-331.2 771.679,-331.2 765.679,-331.2 759.679,-325.2 759.679,-319.2 759.679,-319.2 759.679,-251.2 759.679,-251.2 759.679,-245.2 765.679,-239.2 771.679,-239.2 771.679,-239.2 848.859,-239.2 848.859,-239.2 854.859,-239.2 860.859,-245.2 860.859,-251.2 860.859,-251.2 860.859,-319.2 860.859,-319.2 860.859,-325.2 854.859,-331.2 848.859,-331.2"/>
<text text-anchor="start" x="767.474" y="-314.6" font-family="Helvetica,sans-Serif" font-size="14.00">fullbase ≤ 0.5</text>
<text text-anchor="start" x="773.891" y="-297.8" font-family="Helvetica,sans-Serif" font-size="14.00">gini = 0.375</text>
<text text-anchor="start" x="772.342" y="-281" font-family="Helvetica,sans-Serif" font-size="14.00">samples = 4</text>
<text text-anchor="start" x="770" y="-264.2" font-family="Helvetica,sans-Serif" font-size="14.00">value = [1, 3]</text>
<text text-anchor="start" x="782.455" y="-247.4" font-family="Helvetica,sans-Serif" font-size="14.00">class = 0</text>
</g>
<!-- 24&#45;&gt;28 -->
<g id="edge28" class="edge"><title>24&#45;&gt;28</title>
<path fill="none" stroke="black" d="M810.269,-367.067C810.269,-358.834 810.269,-350.157 810.269,-341.665"/>
<polygon fill="black" stroke="black" points="813.769,-341.441 810.269,-331.441 806.769,-341.441 813.769,-341.441"/>
</g>
<!-- 26 -->
<g id="node27" class="node"><title>26</title>
<path fill="#399de5" fill-opacity="0.803922" stroke="black" d="M559.59,-194.9C559.59,-194.9 478.948,-194.9 478.948,-194.9 472.948,-194.9 466.948,-188.9 466.948,-182.9 466.948,-182.9 466.948,-131.5 466.948,-131.5 466.948,-125.5 472.948,-119.5 478.948,-119.5 478.948,-119.5 559.59,-119.5 559.59,-119.5 565.59,-119.5 571.59,-125.5 571.59,-131.5 571.59,-131.5 571.59,-182.9 571.59,-182.9 571.59,-188.9 565.59,-194.9 559.59,-194.9"/>
<text text-anchor="start" x="479" y="-178.2" font-family="Helvetica,sans-Serif" font-size="14.00">gini = 0.2726</text>
<text text-anchor="start" x="477.451" y="-161.4" font-family="Helvetica,sans-Serif" font-size="14.00">samples = 43</text>
<text text-anchor="start" x="475.109" y="-144.6" font-family="Helvetica,sans-Serif" font-size="14.00">value = [7, 36]</text>
<text text-anchor="start" x="491.455" y="-127.8" font-family="Helvetica,sans-Serif" font-size="14.00">class = 0</text>
</g>
<!-- 25&#45;&gt;26 -->
<g id="edge26" class="edge"><title>25&#45;&gt;26</title>
<path fill="none" stroke="black" d="M627.947,-241.19C611.018,-228.263 592.449,-214.083 575.525,-201.159"/>
<polygon fill="black" stroke="black" points="577.435,-198.214 567.364,-194.927 573.187,-203.778 577.435,-198.214"/>
</g>
<!-- 27 -->
<g id="node28" class="node"><title>27</title>
<path fill="#399de5" fill-opacity="0.737255" stroke="black" d="M681.59,-194.9C681.59,-194.9 600.948,-194.9 600.948,-194.9 594.948,-194.9 588.948,-188.9 588.948,-182.9 588.948,-182.9 588.948,-131.5 588.948,-131.5 588.948,-125.5 594.948,-119.5 600.948,-119.5 600.948,-119.5 681.59,-119.5 681.59,-119.5 687.59,-119.5 693.59,-125.5 693.59,-131.5 693.59,-131.5 693.59,-182.9 693.59,-182.9 693.59,-188.9 687.59,-194.9 681.59,-194.9"/>
<text text-anchor="start" x="601" y="-178.2" font-family="Helvetica,sans-Serif" font-size="14.00">gini = 0.3282</text>
<text text-anchor="start" x="599.451" y="-161.4" font-family="Helvetica,sans-Serif" font-size="14.00">samples = 29</text>
<text text-anchor="start" x="597.109" y="-144.6" font-family="Helvetica,sans-Serif" font-size="14.00">value = [6, 23]</text>
<text text-anchor="start" x="613.455" y="-127.8" font-family="Helvetica,sans-Serif" font-size="14.00">class = 0</text>
</g>
<!-- 25&#45;&gt;27 -->
<g id="edge27" class="edge"><title>25&#45;&gt;27</title>
<path fill="none" stroke="black" d="M668.866,-239.067C665.064,-227.925 660.984,-215.971 657.159,-204.763"/>
<polygon fill="black" stroke="black" points="660.419,-203.478 653.877,-195.145 653.795,-205.739 660.419,-203.478"/>
</g>
<!-- 29 -->
<g id="node30" class="node"><title>29</title>
<path fill="#e58139" stroke="black" d="M795.308,-194.9C795.308,-194.9 723.23,-194.9 723.23,-194.9 717.23,-194.9 711.23,-188.9 711.23,-182.9 711.23,-182.9 711.23,-131.5 711.23,-131.5 711.23,-125.5 717.23,-119.5 723.23,-119.5 723.23,-119.5 795.308,-119.5 795.308,-119.5 801.308,-119.5 807.308,-125.5 807.308,-131.5 807.308,-131.5 807.308,-182.9 807.308,-182.9 807.308,-188.9 801.308,-194.9 795.308,-194.9"/>
<text text-anchor="start" x="730.674" y="-178.2" font-family="Helvetica,sans-Serif" font-size="14.00">gini = 0.0</text>
<text text-anchor="start" x="721.342" y="-161.4" font-family="Helvetica,sans-Serif" font-size="14.00">samples = 1</text>
<text text-anchor="start" x="719" y="-144.6" font-family="Helvetica,sans-Serif" font-size="14.00">value = [1, 0]</text>
<text text-anchor="start" x="731.455" y="-127.8" font-family="Helvetica,sans-Serif" font-size="14.00">class = 1</text>
</g>
<!-- 28&#45;&gt;29 -->
<g id="edge29" class="edge"><title>28&#45;&gt;29</title>
<path fill="none" stroke="black" d="M792.001,-239.067C787.446,-227.813 782.555,-215.73 777.978,-204.424"/>
<polygon fill="black" stroke="black" points="781.219,-203.101 774.223,-195.145 774.73,-205.728 781.219,-203.101"/>
</g>
<!-- 30 -->
<g id="node31" class="node"><title>30</title>
<path fill="#399de5" stroke="black" d="M910.308,-194.9C910.308,-194.9 838.23,-194.9 838.23,-194.9 832.23,-194.9 826.23,-188.9 826.23,-182.9 826.23,-182.9 826.23,-131.5 826.23,-131.5 826.23,-125.5 832.23,-119.5 838.23,-119.5 838.23,-119.5 910.308,-119.5 910.308,-119.5 916.308,-119.5 922.308,-125.5 922.308,-131.5 922.308,-131.5 922.308,-182.9 922.308,-182.9 922.308,-188.9 916.308,-194.9 910.308,-194.9"/>
<text text-anchor="start" x="845.674" y="-178.2" font-family="Helvetica,sans-Serif" font-size="14.00">gini = 0.0</text>
<text text-anchor="start" x="836.342" y="-161.4" font-family="Helvetica,sans-Serif" font-size="14.00">samples = 3</text>
<text text-anchor="start" x="834" y="-144.6" font-family="Helvetica,sans-Serif" font-size="14.00">value = [0, 3]</text>
<text text-anchor="start" x="846.455" y="-127.8" font-family="Helvetica,sans-Serif" font-size="14.00">class = 0</text>
</g>
<!-- 28&#45;&gt;30 -->
<g id="edge30" class="edge"><title>28&#45;&gt;30</title>
<path fill="none" stroke="black" d="M833.194,-239.067C838.967,-227.7 845.17,-215.488 850.962,-204.085"/>
<polygon fill="black" stroke="black" points="854.095,-205.646 855.503,-195.145 847.854,-202.476 854.095,-205.646"/>
</g>
<!-- 32 -->
<g id="node33" class="node"><title>32</title>
<path fill="#399de5" fill-opacity="0.819608" stroke="black" d="M1039.25,-331.2C1039.25,-331.2 943.288,-331.2 943.288,-331.2 937.288,-331.2 931.288,-325.2 931.288,-319.2 931.288,-319.2 931.288,-251.2 931.288,-251.2 931.288,-245.2 937.288,-239.2 943.288,-239.2 943.288,-239.2 1039.25,-239.2 1039.25,-239.2 1045.25,-239.2 1051.25,-245.2 1051.25,-251.2 1051.25,-251.2 1051.25,-319.2 1051.25,-319.2 1051.25,-325.2 1045.25,-331.2 1039.25,-331.2"/>
<text text-anchor="start" x="939.529" y="-314.6" font-family="Helvetica,sans-Serif" font-size="14.00">bathrooms ≤ 2.5</text>
<text text-anchor="start" x="951" y="-297.8" font-family="Helvetica,sans-Serif" font-size="14.00">gini = 0.2604</text>
<text text-anchor="start" x="949.451" y="-281" font-family="Helvetica,sans-Serif" font-size="14.00">samples = 52</text>
<text text-anchor="start" x="947.109" y="-264.2" font-family="Helvetica,sans-Serif" font-size="14.00">value = [8, 44]</text>
<text text-anchor="start" x="963.455" y="-247.4" font-family="Helvetica,sans-Serif" font-size="14.00">class = 0</text>
</g>
<!-- 31&#45;&gt;32 -->
<g id="edge32" class="edge"><title>31&#45;&gt;32</title>
<path fill="none" stroke="black" d="M991.269,-367.067C991.269,-358.834 991.269,-350.157 991.269,-341.665"/>
<polygon fill="black" stroke="black" points="994.769,-341.441 991.269,-331.441 987.769,-341.441 994.769,-341.441"/>
</g>
<!-- 39 -->
<g id="node40" class="node"><title>39</title>
<path fill="#399de5" stroke="black" d="M1153.31,-322.9C1153.31,-322.9 1081.23,-322.9 1081.23,-322.9 1075.23,-322.9 1069.23,-316.9 1069.23,-310.9 1069.23,-310.9 1069.23,-259.5 1069.23,-259.5 1069.23,-253.5 1075.23,-247.5 1081.23,-247.5 1081.23,-247.5 1153.31,-247.5 1153.31,-247.5 1159.31,-247.5 1165.31,-253.5 1165.31,-259.5 1165.31,-259.5 1165.31,-310.9 1165.31,-310.9 1165.31,-316.9 1159.31,-322.9 1153.31,-322.9"/>
<text text-anchor="start" x="1088.67" y="-306.2" font-family="Helvetica,sans-Serif" font-size="14.00">gini = 0.0</text>
<text text-anchor="start" x="1079.34" y="-289.4" font-family="Helvetica,sans-Serif" font-size="14.00">samples = 1</text>
<text text-anchor="start" x="1077" y="-272.6" font-family="Helvetica,sans-Serif" font-size="14.00">value = [0, 1]</text>
<text text-anchor="start" x="1089.46" y="-255.8" font-family="Helvetica,sans-Serif" font-size="14.00">class = 0</text>
</g>
<!-- 31&#45;&gt;39 -->
<g id="edge39" class="edge"><title>31&#45;&gt;39</title>
<path fill="none" stroke="black" d="M1036.4,-367.067C1048.33,-355.138 1061.19,-342.277 1073.07,-330.397"/>
<polygon fill="black" stroke="black" points="1075.73,-332.691 1080.32,-323.145 1070.78,-327.741 1075.73,-332.691"/>
</g>
<!-- 33 -->
<g id="node34" class="node"><title>33</title>
<path fill="#399de5" fill-opacity="0.827451" stroke="black" d="M1032.59,-203.2C1032.59,-203.2 951.948,-203.2 951.948,-203.2 945.948,-203.2 939.948,-197.2 939.948,-191.2 939.948,-191.2 939.948,-123.2 939.948,-123.2 939.948,-117.2 945.948,-111.2 951.948,-111.2 951.948,-111.2 1032.59,-111.2 1032.59,-111.2 1038.59,-111.2 1044.59,-117.2 1044.59,-123.2 1044.59,-123.2 1044.59,-191.2 1044.59,-191.2 1044.59,-197.2 1038.59,-203.2 1032.59,-203.2"/>
<text text-anchor="start" x="949.474" y="-186.6" font-family="Helvetica,sans-Serif" font-size="14.00">fullbase ≤ 0.5</text>
<text text-anchor="start" x="952" y="-169.8" font-family="Helvetica,sans-Serif" font-size="14.00">gini = 0.2491</text>
<text text-anchor="start" x="950.451" y="-153" font-family="Helvetica,sans-Serif" font-size="14.00">samples = 48</text>
<text text-anchor="start" x="948.109" y="-136.2" font-family="Helvetica,sans-Serif" font-size="14.00">value = [7, 41]</text>
<text text-anchor="start" x="964.455" y="-119.4" font-family="Helvetica,sans-Serif" font-size="14.00">class = 0</text>
</g>
<!-- 32&#45;&gt;33 -->
<g id="edge33" class="edge"><title>32&#45;&gt;33</title>
<path fill="none" stroke="black" d="M991.627,-239.067C991.692,-230.834 991.761,-222.157 991.829,-213.665"/>
<polygon fill="black" stroke="black" points="995.33,-213.469 991.91,-203.441 988.33,-213.413 995.33,-213.469"/>
</g>
<!-- 36 -->
<g id="node37" class="node"><title>36</title>
<path fill="#399de5" fill-opacity="0.666667" stroke="black" d="M1151.86,-203.2C1151.86,-203.2 1074.68,-203.2 1074.68,-203.2 1068.68,-203.2 1062.68,-197.2 1062.68,-191.2 1062.68,-191.2 1062.68,-123.2 1062.68,-123.2 1062.68,-117.2 1068.68,-111.2 1074.68,-111.2 1074.68,-111.2 1151.86,-111.2 1151.86,-111.2 1157.86,-111.2 1163.86,-117.2 1163.86,-123.2 1163.86,-123.2 1163.86,-191.2 1163.86,-191.2 1163.86,-197.2 1157.86,-203.2 1151.86,-203.2"/>
<text text-anchor="start" x="1070.47" y="-186.6" font-family="Helvetica,sans-Serif" font-size="14.00">fullbase ≤ 0.5</text>
<text text-anchor="start" x="1076.89" y="-169.8" font-family="Helvetica,sans-Serif" font-size="14.00">gini = 0.375</text>
<text text-anchor="start" x="1075.34" y="-153" font-family="Helvetica,sans-Serif" font-size="14.00">samples = 4</text>
<text text-anchor="start" x="1073" y="-136.2" font-family="Helvetica,sans-Serif" font-size="14.00">value = [1, 3]</text>
<text text-anchor="start" x="1085.46" y="-119.4" font-family="Helvetica,sans-Serif" font-size="14.00">class = 0</text>
</g>
<!-- 32&#45;&gt;36 -->
<g id="edge36" class="edge"><title>32&#45;&gt;36</title>
<path fill="none" stroke="black" d="M1034.97,-239.067C1043.82,-229.929 1053.19,-220.245 1062.27,-210.873"/>
<polygon fill="black" stroke="black" points="1065.02,-213.06 1069.46,-203.441 1059.99,-208.191 1065.02,-213.06"/>
</g>
<!-- 34 -->
<g id="node35" class="node"><title>34</title>
<path fill="#399de5" fill-opacity="0.839216" stroke="black" d="M911.59,-75.3003C911.59,-75.3003 830.948,-75.3003 830.948,-75.3003 824.948,-75.3003 818.948,-69.3003 818.948,-63.3003 818.948,-63.3003 818.948,-11.8997 818.948,-11.8997 818.948,-5.89973 824.948,0.100267 830.948,0.100267 830.948,0.100267 911.59,0.100267 911.59,0.100267 917.59,0.100267 923.59,-5.89973 923.59,-11.8997 923.59,-11.8997 923.59,-63.3003 923.59,-63.3003 923.59,-69.3003 917.59,-75.3003 911.59,-75.3003"/>
<text text-anchor="start" x="831" y="-58.6" font-family="Helvetica,sans-Serif" font-size="14.00">gini = 0.2378</text>
<text text-anchor="start" x="829.451" y="-41.8" font-family="Helvetica,sans-Serif" font-size="14.00">samples = 29</text>
<text text-anchor="start" x="827.109" y="-25" font-family="Helvetica,sans-Serif" font-size="14.00">value = [4, 25]</text>
<text text-anchor="start" x="843.455" y="-8.2" font-family="Helvetica,sans-Serif" font-size="14.00">class = 0</text>
</g>
<!-- 33&#45;&gt;34 -->
<g id="edge34" class="edge"><title>33&#45;&gt;34</title>
<path fill="none" stroke="black" d="M945.833,-111.069C936.167,-101.675 925.995,-91.7881 916.378,-82.4413"/>
<polygon fill="black" stroke="black" points="918.76,-79.876 909.15,-75.4162 913.881,-84.8957 918.76,-79.876"/>
</g>
<!-- 35 -->
<g id="node36" class="node"><title>35</title>
<path fill="#399de5" fill-opacity="0.811765" stroke="black" d="M1033.59,-75.3003C1033.59,-75.3003 952.948,-75.3003 952.948,-75.3003 946.948,-75.3003 940.948,-69.3003 940.948,-63.3003 940.948,-63.3003 940.948,-11.8997 940.948,-11.8997 940.948,-5.89973 946.948,0.100267 952.948,0.100267 952.948,0.100267 1033.59,0.100267 1033.59,0.100267 1039.59,0.100267 1045.59,-5.89973 1045.59,-11.8997 1045.59,-11.8997 1045.59,-63.3003 1045.59,-63.3003 1045.59,-69.3003 1039.59,-75.3003 1033.59,-75.3003"/>
<text text-anchor="start" x="953" y="-58.6" font-family="Helvetica,sans-Serif" font-size="14.00">gini = 0.2659</text>
<text text-anchor="start" x="951.451" y="-41.8" font-family="Helvetica,sans-Serif" font-size="14.00">samples = 19</text>
<text text-anchor="start" x="949.109" y="-25" font-family="Helvetica,sans-Serif" font-size="14.00">value = [3, 16]</text>
<text text-anchor="start" x="965.455" y="-8.2" font-family="Helvetica,sans-Serif" font-size="14.00">class = 0</text>
</g>
<!-- 33&#45;&gt;35 -->
<g id="edge35" class="edge"><title>33&#45;&gt;35</title>
<path fill="none" stroke="black" d="M992.653,-111.069C992.724,-102.688 992.799,-93.9148 992.87,-85.4828"/>
<polygon fill="black" stroke="black" points="996.371,-85.4457 992.956,-75.4162 989.371,-85.3861 996.371,-85.4457"/>
</g>
<!-- 37 -->
<g id="node38" class="node"><title>37</title>
<path fill="none" stroke="black" d="M1148.31,-75.3003C1148.31,-75.3003 1076.23,-75.3003 1076.23,-75.3003 1070.23,-75.3003 1064.23,-69.3003 1064.23,-63.3003 1064.23,-63.3003 1064.23,-11.8997 1064.23,-11.8997 1064.23,-5.89973 1070.23,0.100267 1076.23,0.100267 1076.23,0.100267 1148.31,0.100267 1148.31,0.100267 1154.31,0.100267 1160.31,-5.89973 1160.31,-11.8997 1160.31,-11.8997 1160.31,-63.3003 1160.31,-63.3003 1160.31,-69.3003 1154.31,-75.3003 1148.31,-75.3003"/>
<text text-anchor="start" x="1083.67" y="-58.6" font-family="Helvetica,sans-Serif" font-size="14.00">gini = 0.5</text>
<text text-anchor="start" x="1074.34" y="-41.8" font-family="Helvetica,sans-Serif" font-size="14.00">samples = 2</text>
<text text-anchor="start" x="1072" y="-25" font-family="Helvetica,sans-Serif" font-size="14.00">value = [1, 1]</text>
<text text-anchor="start" x="1084.46" y="-8.2" font-family="Helvetica,sans-Serif" font-size="14.00">class = 1</text>
</g>
<!-- 36&#45;&gt;37 -->
<g id="edge37" class="edge"><title>36&#45;&gt;37</title>
<path fill="none" stroke="black" d="M1112.89,-111.069C1112.81,-102.688 1112.74,-93.9148 1112.67,-85.4828"/>
<polygon fill="black" stroke="black" points="1116.17,-85.3861 1112.58,-75.4162 1109.17,-85.4457 1116.17,-85.3861"/>
</g>
<!-- 38 -->
<g id="node39" class="node"><title>38</title>
<path fill="#399de5" stroke="black" d="M1263.31,-75.3003C1263.31,-75.3003 1191.23,-75.3003 1191.23,-75.3003 1185.23,-75.3003 1179.23,-69.3003 1179.23,-63.3003 1179.23,-63.3003 1179.23,-11.8997 1179.23,-11.8997 1179.23,-5.89973 1185.23,0.100267 1191.23,0.100267 1191.23,0.100267 1263.31,0.100267 1263.31,0.100267 1269.31,0.100267 1275.31,-5.89973 1275.31,-11.8997 1275.31,-11.8997 1275.31,-63.3003 1275.31,-63.3003 1275.31,-69.3003 1269.31,-75.3003 1263.31,-75.3003"/>
<text text-anchor="start" x="1198.67" y="-58.6" font-family="Helvetica,sans-Serif" font-size="14.00">gini = 0.0</text>
<text text-anchor="start" x="1189.34" y="-41.8" font-family="Helvetica,sans-Serif" font-size="14.00">samples = 2</text>
<text text-anchor="start" x="1187" y="-25" font-family="Helvetica,sans-Serif" font-size="14.00">value = [0, 2]</text>
<text text-anchor="start" x="1199.46" y="-8.2" font-family="Helvetica,sans-Serif" font-size="14.00">class = 0</text>
</g>
<!-- 36&#45;&gt;38 -->
<g id="edge38" class="edge"><title>36&#45;&gt;38</title>
<path fill="none" stroke="black" d="M1157.02,-111.069C1166.04,-101.767 1175.52,-91.9819 1184.5,-82.7164"/>
<polygon fill="black" stroke="black" points="1187.13,-85.0325 1191.58,-75.4162 1182.11,-80.1602 1187.13,-85.0325"/>
</g>
<!-- 41 -->
<g id="node42" class="node"><title>41</title>
<path fill="#399de5" fill-opacity="0.333333" stroke="black" d="M1279.86,-459.2C1279.86,-459.2 1188.68,-459.2 1188.68,-459.2 1182.68,-459.2 1176.68,-453.2 1176.68,-447.2 1176.68,-447.2 1176.68,-379.2 1176.68,-379.2 1176.68,-373.2 1182.68,-367.2 1188.68,-367.2 1188.68,-367.2 1279.86,-367.2 1279.86,-367.2 1285.86,-367.2 1291.86,-373.2 1291.86,-379.2 1291.86,-379.2 1291.86,-447.2 1291.86,-447.2 1291.86,-453.2 1285.86,-459.2 1279.86,-459.2"/>
<text text-anchor="start" x="1184.47" y="-442.6" font-family="Helvetica,sans-Serif" font-size="14.00">bedrooms ≤ 5.5</text>
<text text-anchor="start" x="1201.78" y="-425.8" font-family="Helvetica,sans-Serif" font-size="14.00">gini = 0.48</text>
<text text-anchor="start" x="1196.34" y="-409" font-family="Helvetica,sans-Serif" font-size="14.00">samples = 5</text>
<text text-anchor="start" x="1194" y="-392.2" font-family="Helvetica,sans-Serif" font-size="14.00">value = [2, 3]</text>
<text text-anchor="start" x="1206.46" y="-375.4" font-family="Helvetica,sans-Serif" font-size="14.00">class = 0</text>
</g>
<!-- 40&#45;&gt;41 -->
<g id="edge41" class="edge"><title>40&#45;&gt;41</title>
<path fill="none" stroke="black" d="M1234.27,-495.067C1234.27,-486.834 1234.27,-478.157 1234.27,-469.665"/>
<polygon fill="black" stroke="black" points="1237.77,-469.441 1234.27,-459.441 1230.77,-469.441 1237.77,-469.441"/>
</g>
<!-- 46 -->
<g id="node47" class="node"><title>46</title>
<path fill="#399de5" stroke="black" d="M1394.31,-450.9C1394.31,-450.9 1322.23,-450.9 1322.23,-450.9 1316.23,-450.9 1310.23,-444.9 1310.23,-438.9 1310.23,-438.9 1310.23,-387.5 1310.23,-387.5 1310.23,-381.5 1316.23,-375.5 1322.23,-375.5 1322.23,-375.5 1394.31,-375.5 1394.31,-375.5 1400.31,-375.5 1406.31,-381.5 1406.31,-387.5 1406.31,-387.5 1406.31,-438.9 1406.31,-438.9 1406.31,-444.9 1400.31,-450.9 1394.31,-450.9"/>
<text text-anchor="start" x="1329.67" y="-434.2" font-family="Helvetica,sans-Serif" font-size="14.00">gini = 0.0</text>
<text text-anchor="start" x="1320.34" y="-417.4" font-family="Helvetica,sans-Serif" font-size="14.00">samples = 2</text>
<text text-anchor="start" x="1318" y="-400.6" font-family="Helvetica,sans-Serif" font-size="14.00">value = [0, 2]</text>
<text text-anchor="start" x="1330.46" y="-383.8" font-family="Helvetica,sans-Serif" font-size="14.00">class = 0</text>
</g>
<!-- 40&#45;&gt;46 -->
<g id="edge46" class="edge"><title>40&#45;&gt;46</title>
<path fill="none" stroke="black" d="M1278.69,-495.067C1290.43,-483.138 1303.08,-470.277 1314.77,-458.397"/>
<polygon fill="black" stroke="black" points="1317.39,-460.727 1321.91,-451.145 1312.4,-455.817 1317.39,-460.727"/>
</g>
<!-- 42 -->
<g id="node43" class="node"><title>42</title>
<path fill="none" stroke="black" d="M1272.86,-331.2C1272.86,-331.2 1195.68,-331.2 1195.68,-331.2 1189.68,-331.2 1183.68,-325.2 1183.68,-319.2 1183.68,-319.2 1183.68,-251.2 1183.68,-251.2 1183.68,-245.2 1189.68,-239.2 1195.68,-239.2 1195.68,-239.2 1272.86,-239.2 1272.86,-239.2 1278.86,-239.2 1284.86,-245.2 1284.86,-251.2 1284.86,-251.2 1284.86,-319.2 1284.86,-319.2 1284.86,-325.2 1278.86,-331.2 1272.86,-331.2"/>
<text text-anchor="start" x="1191.47" y="-314.6" font-family="Helvetica,sans-Serif" font-size="14.00">fullbase ≤ 0.5</text>
<text text-anchor="start" x="1205.67" y="-297.8" font-family="Helvetica,sans-Serif" font-size="14.00">gini = 0.5</text>
<text text-anchor="start" x="1196.34" y="-281" font-family="Helvetica,sans-Serif" font-size="14.00">samples = 4</text>
<text text-anchor="start" x="1194" y="-264.2" font-family="Helvetica,sans-Serif" font-size="14.00">value = [2, 2]</text>
<text text-anchor="start" x="1206.46" y="-247.4" font-family="Helvetica,sans-Serif" font-size="14.00">class = 1</text>
</g>
<!-- 41&#45;&gt;42 -->
<g id="edge42" class="edge"><title>41&#45;&gt;42</title>
<path fill="none" stroke="black" d="M1234.27,-367.067C1234.27,-358.834 1234.27,-350.157 1234.27,-341.665"/>
<polygon fill="black" stroke="black" points="1237.77,-341.441 1234.27,-331.441 1230.77,-341.441 1237.77,-341.441"/>
</g>
<!-- 45 -->
<g id="node46" class="node"><title>45</title>
<path fill="#399de5" stroke="black" d="M1387.31,-322.9C1387.31,-322.9 1315.23,-322.9 1315.23,-322.9 1309.23,-322.9 1303.23,-316.9 1303.23,-310.9 1303.23,-310.9 1303.23,-259.5 1303.23,-259.5 1303.23,-253.5 1309.23,-247.5 1315.23,-247.5 1315.23,-247.5 1387.31,-247.5 1387.31,-247.5 1393.31,-247.5 1399.31,-253.5 1399.31,-259.5 1399.31,-259.5 1399.31,-310.9 1399.31,-310.9 1399.31,-316.9 1393.31,-322.9 1387.31,-322.9"/>
<text text-anchor="start" x="1322.67" y="-306.2" font-family="Helvetica,sans-Serif" font-size="14.00">gini = 0.0</text>
<text text-anchor="start" x="1313.34" y="-289.4" font-family="Helvetica,sans-Serif" font-size="14.00">samples = 1</text>
<text text-anchor="start" x="1311" y="-272.6" font-family="Helvetica,sans-Serif" font-size="14.00">value = [0, 1]</text>
<text text-anchor="start" x="1323.46" y="-255.8" font-family="Helvetica,sans-Serif" font-size="14.00">class = 0</text>
</g>
<!-- 41&#45;&gt;45 -->
<g id="edge45" class="edge"><title>41&#45;&gt;45</title>
<path fill="none" stroke="black" d="M1276.18,-367.067C1287.15,-355.25 1298.97,-342.519 1309.92,-330.734"/>
<polygon fill="black" stroke="black" points="1312.72,-332.854 1316.96,-323.145 1307.59,-328.091 1312.72,-332.854"/>
</g>
<!-- 43 -->
<g id="node44" class="node"><title>43</title>
<path fill="#e58139" stroke="black" d="M1268.31,-194.9C1268.31,-194.9 1196.23,-194.9 1196.23,-194.9 1190.23,-194.9 1184.23,-188.9 1184.23,-182.9 1184.23,-182.9 1184.23,-131.5 1184.23,-131.5 1184.23,-125.5 1190.23,-119.5 1196.23,-119.5 1196.23,-119.5 1268.31,-119.5 1268.31,-119.5 1274.31,-119.5 1280.31,-125.5 1280.31,-131.5 1280.31,-131.5 1280.31,-182.9 1280.31,-182.9 1280.31,-188.9 1274.31,-194.9 1268.31,-194.9"/>
<text text-anchor="start" x="1203.67" y="-178.2" font-family="Helvetica,sans-Serif" font-size="14.00">gini = 0.0</text>
<text text-anchor="start" x="1194.34" y="-161.4" font-family="Helvetica,sans-Serif" font-size="14.00">samples = 1</text>
<text text-anchor="start" x="1192" y="-144.6" font-family="Helvetica,sans-Serif" font-size="14.00">value = [1, 0]</text>
<text text-anchor="start" x="1204.46" y="-127.8" font-family="Helvetica,sans-Serif" font-size="14.00">class = 1</text>
</g>
<!-- 42&#45;&gt;43 -->
<g id="edge43" class="edge"><title>42&#45;&gt;43</title>
<path fill="none" stroke="black" d="M1233.55,-239.067C1233.38,-228.151 1233.19,-216.454 1233.02,-205.443"/>
<polygon fill="black" stroke="black" points="1236.51,-205.088 1232.86,-195.145 1229.51,-205.199 1236.51,-205.088"/>
</g>
<!-- 44 -->
<g id="node45" class="node"><title>44</title>
<path fill="#399de5" fill-opacity="0.498039" stroke="black" d="M1383.31,-194.9C1383.31,-194.9 1311.23,-194.9 1311.23,-194.9 1305.23,-194.9 1299.23,-188.9 1299.23,-182.9 1299.23,-182.9 1299.23,-131.5 1299.23,-131.5 1299.23,-125.5 1305.23,-119.5 1311.23,-119.5 1311.23,-119.5 1383.31,-119.5 1383.31,-119.5 1389.31,-119.5 1395.31,-125.5 1395.31,-131.5 1395.31,-131.5 1395.31,-182.9 1395.31,-182.9 1395.31,-188.9 1389.31,-194.9 1383.31,-194.9"/>
<text text-anchor="start" x="1307" y="-178.2" font-family="Helvetica,sans-Serif" font-size="14.00">gini = 0.4444</text>
<text text-anchor="start" x="1309.34" y="-161.4" font-family="Helvetica,sans-Serif" font-size="14.00">samples = 3</text>
<text text-anchor="start" x="1307" y="-144.6" font-family="Helvetica,sans-Serif" font-size="14.00">value = [1, 2]</text>
<text text-anchor="start" x="1319.46" y="-127.8" font-family="Helvetica,sans-Serif" font-size="14.00">class = 0</text>
</g>
<!-- 42&#45;&gt;44 -->
<g id="edge44" class="edge"><title>42&#45;&gt;44</title>
<path fill="none" stroke="black" d="M1274.75,-239.067C1285.34,-227.25 1296.76,-214.519 1307.33,-202.734"/>
<polygon fill="black" stroke="black" points="1310.06,-204.926 1314.14,-195.145 1304.85,-200.253 1310.06,-204.926"/>
</g>
</g>
</svg>
