<?xml version="1.0" encoding="UTF-8" standalone="no"?>
<!DOCTYPE svg PUBLIC "-//W3C//DTD SVG 1.1//EN"
 "http://www.w3.org/Graphics/SVG/1.1/DTD/svg11.dtd">
<!-- Generated by graphviz version 2.38.0 (20140413.2041)
 -->
<!-- Title: Tree Pages: 1 -->
<svg width="1366pt" height="756pt"
 viewBox="0.00 0.00 1365.55 756.00" xmlns="http://www.w3.org/2000/svg" xmlns:xlink="http://www.w3.org/1999/xlink">
<g id="graph0" class="graph" transform="scale(1 1) rotate(0) translate(4 752)">
<title>Tree</title>
<polygon fill="white" stroke="none" points="-4,4 -4,-752 1361.55,-752 1361.55,4 -4,4"/>
<!-- 0 -->
<g id="node1" class="node"><title>0</title>
<path fill="#399de5" fill-opacity="0.027451" stroke="black" d="M552.977,-748C552.977,-748 449.578,-748 449.578,-748 443.578,-748 437.578,-742 437.578,-736 437.578,-736 437.578,-682 437.578,-682 437.578,-676 443.578,-670 449.578,-670 449.578,-670 552.977,-670 552.977,-670 558.977,-670 564.977,-676 564.977,-682 564.977,-682 564.977,-736 564.977,-736 564.977,-742 558.977,-748 552.977,-748"/>
<text text-anchor="start" x="452.688" y="-732.8" font-family="Helvetica,sans-Serif" font-size="14.00">bedrooms ≤ 2.5</text>
<text text-anchor="start" x="460.993" y="-718.8" font-family="Helvetica,sans-Serif" font-size="14.00">gini = 0.4999</text>
<text text-anchor="start" x="455.555" y="-704.8" font-family="Helvetica,sans-Serif" font-size="14.00">samples = 365</text>
<text text-anchor="start" x="445.428" y="-690.8" font-family="Helvetica,sans-Serif" font-size="14.00">value = [180, 185]</text>
<text text-anchor="start" x="473.458" y="-676.8" font-family="Helvetica,sans-Serif" font-size="14.00">class = 1</text>
</g>
<!-- 1 -->
<g id="node2" class="node"><title>1</title>
<path fill="#e58139" fill-opacity="0.764706" stroke="black" d="M454.404,-634C454.404,-634 366.15,-634 366.15,-634 360.15,-634 354.15,-628 354.15,-622 354.15,-622 354.15,-568 354.15,-568 354.15,-562 360.15,-556 366.15,-556 366.15,-556 454.404,-556 454.404,-556 460.404,-556 466.404,-562 466.404,-568 466.404,-568 466.404,-622 466.404,-622 466.404,-628 460.404,-634 454.404,-634"/>
<text text-anchor="start" x="368.688" y="-618.8" font-family="Helvetica,sans-Serif" font-size="14.00">fullbase ≤ 0.5</text>
<text text-anchor="start" x="369.993" y="-604.8" font-family="Helvetica,sans-Serif" font-size="14.00">gini = 0.3091</text>
<text text-anchor="start" x="368.448" y="-590.8" font-family="Helvetica,sans-Serif" font-size="14.00">samples = 89</text>
<text text-anchor="start" x="362.214" y="-576.8" font-family="Helvetica,sans-Serif" font-size="14.00">value = [72, 17]</text>
<text text-anchor="start" x="382.458" y="-562.8" font-family="Helvetica,sans-Serif" font-size="14.00">class = 0</text>
</g>
<!-- 0&#45;&gt;1 -->
<g id="edge1" class="edge"><title>0&#45;&gt;1</title>
<path fill="none" stroke="black" d="M470.215,-669.769C462.967,-660.849 455.174,-651.257 447.683,-642.038"/>
<polygon fill="black" stroke="black" points="450.222,-639.613 441.2,-634.058 444.789,-644.027 450.222,-639.613"/>
<text text-anchor="middle" x="438.627" y="-654.726" font-family="Helvetica,sans-Serif" font-size="14.00">True</text>
</g>
<!-- 10 -->
<g id="node11" class="node"><title>10</title>
<path fill="#399de5" fill-opacity="0.356863" stroke="black" d="M643.977,-634C643.977,-634 540.578,-634 540.578,-634 534.578,-634 528.578,-628 528.578,-622 528.578,-622 528.578,-568 528.578,-568 528.578,-562 534.578,-556 540.578,-556 540.578,-556 643.977,-556 643.977,-556 649.977,-556 655.977,-562 655.977,-568 655.977,-568 655.977,-622 655.977,-622 655.977,-628 649.977,-634 643.977,-634"/>
<text text-anchor="start" x="541.743" y="-618.8" font-family="Helvetica,sans-Serif" font-size="14.00">bathrooms ≤ 1.5</text>
<text text-anchor="start" x="551.993" y="-604.8" font-family="Helvetica,sans-Serif" font-size="14.00">gini = 0.4764</text>
<text text-anchor="start" x="546.555" y="-590.8" font-family="Helvetica,sans-Serif" font-size="14.00">samples = 276</text>
<text text-anchor="start" x="536.428" y="-576.8" font-family="Helvetica,sans-Serif" font-size="14.00">value = [108, 168]</text>
<text text-anchor="start" x="564.458" y="-562.8" font-family="Helvetica,sans-Serif" font-size="14.00">class = 1</text>
</g>
<!-- 0&#45;&gt;10 -->
<g id="edge10" class="edge"><title>0&#45;&gt;10</title>
<path fill="none" stroke="black" d="M532.34,-669.769C539.588,-660.849 547.381,-651.257 554.871,-642.038"/>
<polygon fill="black" stroke="black" points="557.765,-644.027 561.355,-634.058 552.332,-639.613 557.765,-644.027"/>
<text text-anchor="middle" x="563.927" y="-654.726" font-family="Helvetica,sans-Serif" font-size="14.00">False</text>
</g>
<!-- 2 -->
<g id="node3" class="node"><title>2</title>
<path fill="#e58139" fill-opacity="0.858824" stroke="black" d="M276.847,-520C276.847,-520 183.708,-520 183.708,-520 177.708,-520 171.708,-514 171.708,-508 171.708,-508 171.708,-454 171.708,-454 171.708,-448 177.708,-442 183.708,-442 183.708,-442 276.847,-442 276.847,-442 282.847,-442 288.847,-448 288.847,-454 288.847,-454 288.847,-508 288.847,-508 288.847,-514 282.847,-520 276.847,-520"/>
<text text-anchor="start" x="179.743" y="-504.8" font-family="Helvetica,sans-Serif" font-size="14.00">bathrooms ≤ 1.5</text>
<text text-anchor="start" x="189.993" y="-490.8" font-family="Helvetica,sans-Serif" font-size="14.00">gini = 0.2162</text>
<text text-anchor="start" x="188.448" y="-476.8" font-family="Helvetica,sans-Serif" font-size="14.00">samples = 73</text>
<text text-anchor="start" x="186.107" y="-462.8" font-family="Helvetica,sans-Serif" font-size="14.00">value = [64, 9]</text>
<text text-anchor="start" x="202.458" y="-448.8" font-family="Helvetica,sans-Serif" font-size="14.00">class = 0</text>
</g>
<!-- 1&#45;&gt;2 -->
<g id="edge2" class="edge"><title>1&#45;&gt;2</title>
<path fill="none" stroke="black" d="M353.818,-558.87C336.017,-547.794 316.173,-535.446 297.688,-523.944"/>
<polygon fill="black" stroke="black" points="299.361,-520.863 289.021,-518.552 295.663,-526.807 299.361,-520.863"/>
</g>
<!-- 7 -->
<g id="node8" class="node"><title>7</title>
<path fill="none" stroke="black" d="M456.847,-520C456.847,-520 363.708,-520 363.708,-520 357.708,-520 351.708,-514 351.708,-508 351.708,-508 351.708,-454 351.708,-454 351.708,-448 357.708,-442 363.708,-442 363.708,-442 456.847,-442 456.847,-442 462.847,-442 468.847,-448 468.847,-454 468.847,-454 468.847,-508 468.847,-508 468.847,-514 462.847,-520 456.847,-520"/>
<text text-anchor="start" x="359.743" y="-504.8" font-family="Helvetica,sans-Serif" font-size="14.00">bathrooms ≤ 1.5</text>
<text text-anchor="start" x="381.672" y="-490.8" font-family="Helvetica,sans-Serif" font-size="14.00">gini = 0.5</text>
<text text-anchor="start" x="368.448" y="-476.8" font-family="Helvetica,sans-Serif" font-size="14.00">samples = 16</text>
<text text-anchor="start" x="370" y="-462.8" font-family="Helvetica,sans-Serif" font-size="14.00">value = [8, 8]</text>
<text text-anchor="start" x="382.458" y="-448.8" font-family="Helvetica,sans-Serif" font-size="14.00">class = 0</text>
</g>
<!-- 1&#45;&gt;7 -->
<g id="edge7" class="edge"><title>1&#45;&gt;7</title>
<path fill="none" stroke="black" d="M410.277,-555.769C410.277,-547.57 410.277,-538.803 410.277,-530.28"/>
<polygon fill="black" stroke="black" points="413.777,-530.058 410.277,-520.058 406.777,-530.059 413.777,-530.058"/>
</g>
<!-- 3 -->
<g id="node4" class="node"><title>3</title>
<path fill="#e58139" fill-opacity="0.874510" stroke="black" d="M151.957,-406C151.957,-406 62.5975,-406 62.5975,-406 56.5975,-406 50.5975,-400 50.5975,-394 50.5975,-394 50.5975,-340 50.5975,-340 50.5975,-334 56.5975,-328 62.5975,-328 62.5975,-328 151.957,-328 151.957,-328 157.957,-328 163.957,-334 163.957,-340 163.957,-340 163.957,-394 163.957,-394 163.957,-400 157.957,-406 151.957,-406"/>
<text text-anchor="start" x="58.6875" y="-390.8" font-family="Helvetica,sans-Serif" font-size="14.00">bedrooms ≤ 1.5</text>
<text text-anchor="start" x="66.9932" y="-376.8" font-family="Helvetica,sans-Serif" font-size="14.00">gini = 0.1975</text>
<text text-anchor="start" x="65.4482" y="-362.8" font-family="Helvetica,sans-Serif" font-size="14.00">samples = 72</text>
<text text-anchor="start" x="63.1069" y="-348.8" font-family="Helvetica,sans-Serif" font-size="14.00">value = [64, 8]</text>
<text text-anchor="start" x="79.4585" y="-334.8" font-family="Helvetica,sans-Serif" font-size="14.00">class = 0</text>
</g>
<!-- 2&#45;&gt;3 -->
<g id="edge3" class="edge"><title>2&#45;&gt;3</title>
<path fill="none" stroke="black" d="M188.292,-441.769C178.099,-432.488 167.109,-422.481 156.612,-412.923"/>
<polygon fill="black" stroke="black" points="158.824,-410.203 149.074,-406.058 154.111,-415.379 158.824,-410.203"/>
</g>
<!-- 6 -->
<g id="node7" class="node"><title>6</title>
<path fill="#399de5" stroke="black" d="M266.333,-399C266.333,-399 194.222,-399 194.222,-399 188.222,-399 182.222,-393 182.222,-387 182.222,-387 182.222,-347 182.222,-347 182.222,-341 188.222,-335 194.222,-335 194.222,-335 266.333,-335 266.333,-335 272.333,-335 278.333,-341 278.333,-347 278.333,-347 278.333,-387 278.333,-387 278.333,-393 272.333,-399 266.333,-399"/>
<text text-anchor="start" x="201.672" y="-383.8" font-family="Helvetica,sans-Serif" font-size="14.00">gini = 0.0</text>
<text text-anchor="start" x="192.341" y="-369.8" font-family="Helvetica,sans-Serif" font-size="14.00">samples = 1</text>
<text text-anchor="start" x="190" y="-355.8" font-family="Helvetica,sans-Serif" font-size="14.00">value = [0, 1]</text>
<text text-anchor="start" x="202.458" y="-341.8" font-family="Helvetica,sans-Serif" font-size="14.00">class = 1</text>
</g>
<!-- 2&#45;&gt;6 -->
<g id="edge6" class="edge"><title>2&#45;&gt;6</title>
<path fill="none" stroke="black" d="M230.277,-441.769C230.277,-431.313 230.277,-419.935 230.277,-409.315"/>
<polygon fill="black" stroke="black" points="233.777,-409.01 230.277,-399.01 226.777,-409.01 233.777,-409.01"/>
</g>
<!-- 4 -->
<g id="node5" class="node"><title>4</title>
<path fill="#e58139" stroke="black" d="M84.3331,-285C84.3331,-285 12.2216,-285 12.2216,-285 6.22163,-285 0.221634,-279 0.221634,-273 0.221634,-273 0.221634,-233 0.221634,-233 0.221634,-227 6.22163,-221 12.2216,-221 12.2216,-221 84.3331,-221 84.3331,-221 90.3331,-221 96.3331,-227 96.3331,-233 96.3331,-233 96.3331,-273 96.3331,-273 96.3331,-279 90.3331,-285 84.3331,-285"/>
<text text-anchor="start" x="19.6724" y="-269.8" font-family="Helvetica,sans-Serif" font-size="14.00">gini = 0.0</text>
<text text-anchor="start" x="10.3413" y="-255.8" font-family="Helvetica,sans-Serif" font-size="14.00">samples = 1</text>
<text text-anchor="start" x="8" y="-241.8" font-family="Helvetica,sans-Serif" font-size="14.00">value = [1, 0]</text>
<text text-anchor="start" x="20.4585" y="-227.8" font-family="Helvetica,sans-Serif" font-size="14.00">class = 0</text>
</g>
<!-- 3&#45;&gt;4 -->
<g id="edge4" class="edge"><title>3&#45;&gt;4</title>
<path fill="none" stroke="black" d="M87.1379,-327.769C81.4003,-316.877 75.1356,-304.985 69.3444,-293.992"/>
<polygon fill="black" stroke="black" points="72.3704,-292.226 64.613,-285.01 66.1771,-295.489 72.3704,-292.226"/>
</g>
<!-- 5 -->
<g id="node6" class="node"><title>5</title>
<path fill="#e58139" fill-opacity="0.874510" stroke="black" d="M206.619,-285C206.619,-285 125.936,-285 125.936,-285 119.936,-285 113.936,-279 113.936,-273 113.936,-273 113.936,-233 113.936,-233 113.936,-227 119.936,-221 125.936,-221 125.936,-221 206.619,-221 206.619,-221 212.619,-221 218.619,-227 218.619,-233 218.619,-233 218.619,-273 218.619,-273 218.619,-279 212.619,-285 206.619,-285"/>
<text text-anchor="start" x="137.672" y="-269.8" font-family="Helvetica,sans-Serif" font-size="14.00">gini = 0.2</text>
<text text-anchor="start" x="124.448" y="-255.8" font-family="Helvetica,sans-Serif" font-size="14.00">samples = 71</text>
<text text-anchor="start" x="122.107" y="-241.8" font-family="Helvetica,sans-Serif" font-size="14.00">value = [63, 8]</text>
<text text-anchor="start" x="138.458" y="-227.8" font-family="Helvetica,sans-Serif" font-size="14.00">class = 0</text>
</g>
<!-- 3&#45;&gt;5 -->
<g id="edge5" class="edge"><title>3&#45;&gt;5</title>
<path fill="none" stroke="black" d="M127.417,-327.769C133.154,-316.877 139.419,-304.985 145.21,-293.992"/>
<polygon fill="black" stroke="black" points="148.378,-295.489 149.942,-285.01 142.184,-292.226 148.378,-295.489"/>
</g>
<!-- 8 -->
<g id="node9" class="node"><title>8</title>
<path fill="#399de5" fill-opacity="0.141176" stroke="black" d="M383.936,-399C383.936,-399 308.619,-399 308.619,-399 302.619,-399 296.619,-393 296.619,-387 296.619,-387 296.619,-347 296.619,-347 296.619,-341 302.619,-335 308.619,-335 308.619,-335 383.936,-335 383.936,-335 389.936,-335 395.936,-341 395.936,-347 395.936,-347 395.936,-387 395.936,-387 395.936,-393 389.936,-399 383.936,-399"/>
<text text-anchor="start" x="309.886" y="-383.8" font-family="Helvetica,sans-Serif" font-size="14.00">gini = 0.497</text>
<text text-anchor="start" x="304.448" y="-369.8" font-family="Helvetica,sans-Serif" font-size="14.00">samples = 13</text>
<text text-anchor="start" x="306" y="-355.8" font-family="Helvetica,sans-Serif" font-size="14.00">value = [6, 7]</text>
<text text-anchor="start" x="318.458" y="-341.8" font-family="Helvetica,sans-Serif" font-size="14.00">class = 1</text>
</g>
<!-- 7&#45;&gt;8 -->
<g id="edge8" class="edge"><title>7&#45;&gt;8</title>
<path fill="none" stroke="black" d="M388.431,-441.769C382.207,-430.877 375.412,-418.985 369.13,-407.992"/>
<polygon fill="black" stroke="black" points="371.998,-405.956 363.997,-399.01 365.92,-409.429 371.998,-405.956"/>
</g>
<!-- 9 -->
<g id="node10" class="node"><title>9</title>
<path fill="#e58139" fill-opacity="0.498039" stroke="black" d="M498.347,-399C498.347,-399 426.208,-399 426.208,-399 420.208,-399 414.208,-393 414.208,-387 414.208,-387 414.208,-347 414.208,-347 414.208,-341 420.208,-335 426.208,-335 426.208,-335 498.347,-335 498.347,-335 504.347,-335 510.347,-341 510.347,-347 510.347,-347 510.347,-387 510.347,-387 510.347,-393 504.347,-399 498.347,-399"/>
<text text-anchor="start" x="421.993" y="-383.8" font-family="Helvetica,sans-Serif" font-size="14.00">gini = 0.4444</text>
<text text-anchor="start" x="424.341" y="-369.8" font-family="Helvetica,sans-Serif" font-size="14.00">samples = 3</text>
<text text-anchor="start" x="422" y="-355.8" font-family="Helvetica,sans-Serif" font-size="14.00">value = [2, 1]</text>
<text text-anchor="start" x="434.458" y="-341.8" font-family="Helvetica,sans-Serif" font-size="14.00">class = 0</text>
</g>
<!-- 7&#45;&gt;9 -->
<g id="edge9" class="edge"><title>7&#45;&gt;9</title>
<path fill="none" stroke="black" d="M428.027,-441.769C433.034,-430.986 438.495,-419.223 443.557,-408.322"/>
<polygon fill="black" stroke="black" points="446.843,-409.554 447.88,-399.01 440.494,-406.606 446.843,-409.554"/>
</g>
<!-- 11 -->
<g id="node12" class="node"><title>11</title>
<path fill="#399de5" fill-opacity="0.031373" stroke="black" d="M636.404,-520C636.404,-520 548.15,-520 548.15,-520 542.15,-520 536.15,-514 536.15,-508 536.15,-508 536.15,-454 536.15,-454 536.15,-448 542.15,-442 548.15,-442 548.15,-442 636.404,-442 636.404,-442 642.404,-442 648.404,-448 648.404,-454 648.404,-454 648.404,-508 648.404,-508 648.404,-514 642.404,-520 636.404,-520"/>
<text text-anchor="start" x="550.688" y="-504.8" font-family="Helvetica,sans-Serif" font-size="14.00">fullbase ≤ 0.5</text>
<text text-anchor="start" x="551.993" y="-490.8" font-family="Helvetica,sans-Serif" font-size="14.00">gini = 0.4999</text>
<text text-anchor="start" x="546.555" y="-476.8" font-family="Helvetica,sans-Serif" font-size="14.00">samples = 185</text>
<text text-anchor="start" x="544.214" y="-462.8" font-family="Helvetica,sans-Serif" font-size="14.00">value = [91, 94]</text>
<text text-anchor="start" x="564.458" y="-448.8" font-family="Helvetica,sans-Serif" font-size="14.00">class = 1</text>
</g>
<!-- 10&#45;&gt;11 -->
<g id="edge11" class="edge"><title>10&#45;&gt;11</title>
<path fill="none" stroke="black" d="M592.277,-555.769C592.277,-547.57 592.277,-538.803 592.277,-530.28"/>
<polygon fill="black" stroke="black" points="595.777,-530.058 592.277,-520.058 588.777,-530.059 595.777,-530.058"/>
</g>
<!-- 20 -->
<g id="node21" class="node"><title>20</title>
<path fill="#399de5" fill-opacity="0.768627" stroke="black" d="M1052.96,-520C1052.96,-520 963.598,-520 963.598,-520 957.598,-520 951.598,-514 951.598,-508 951.598,-508 951.598,-454 951.598,-454 951.598,-448 957.598,-442 963.598,-442 963.598,-442 1052.96,-442 1052.96,-442 1058.96,-442 1064.96,-448 1064.96,-454 1064.96,-454 1064.96,-508 1064.96,-508 1064.96,-514 1058.96,-520 1052.96,-520"/>
<text text-anchor="start" x="959.688" y="-504.8" font-family="Helvetica,sans-Serif" font-size="14.00">bedrooms ≤ 4.5</text>
<text text-anchor="start" x="967.993" y="-490.8" font-family="Helvetica,sans-Serif" font-size="14.00">gini = 0.3038</text>
<text text-anchor="start" x="966.448" y="-476.8" font-family="Helvetica,sans-Serif" font-size="14.00">samples = 91</text>
<text text-anchor="start" x="960.214" y="-462.8" font-family="Helvetica,sans-Serif" font-size="14.00">value = [17, 74]</text>
<text text-anchor="start" x="980.458" y="-448.8" font-family="Helvetica,sans-Serif" font-size="14.00">class = 1</text>
</g>
<!-- 10&#45;&gt;20 -->
<g id="edge20" class="edge"><title>10&#45;&gt;20</title>
<path fill="none" stroke="black" d="M656.366,-576.745C733.738,-555.915 863.219,-521.054 941.692,-499.927"/>
<polygon fill="black" stroke="black" points="942.727,-503.273 951.473,-497.293 940.907,-496.514 942.727,-503.273"/>
</g>
<!-- 12 -->
<g id="node13" class="node"><title>12</title>
<path fill="#e58139" fill-opacity="0.184314" stroke="black" d="M629.957,-406C629.957,-406 540.598,-406 540.598,-406 534.598,-406 528.598,-400 528.598,-394 528.598,-394 528.598,-340 528.598,-340 528.598,-334 534.598,-328 540.598,-328 540.598,-328 629.957,-328 629.957,-328 635.957,-328 641.957,-334 641.957,-340 641.957,-340 641.957,-394 641.957,-394 641.957,-400 635.957,-406 629.957,-406"/>
<text text-anchor="start" x="536.688" y="-390.8" font-family="Helvetica,sans-Serif" font-size="14.00">bedrooms ≤ 3.5</text>
<text text-anchor="start" x="544.993" y="-376.8" font-family="Helvetica,sans-Serif" font-size="14.00">gini = 0.4948</text>
<text text-anchor="start" x="540.071" y="-362.8" font-family="Helvetica,sans-Serif" font-size="14.00">samples = 118</text>
<text text-anchor="start" x="537.214" y="-348.8" font-family="Helvetica,sans-Serif" font-size="14.00">value = [65, 53]</text>
<text text-anchor="start" x="557.458" y="-334.8" font-family="Helvetica,sans-Serif" font-size="14.00">class = 0</text>
</g>
<!-- 11&#45;&gt;12 -->
<g id="edge12" class="edge"><title>11&#45;&gt;12</title>
<path fill="none" stroke="black" d="M589.888,-441.769C589.375,-433.57 588.828,-424.803 588.295,-416.28"/>
<polygon fill="black" stroke="black" points="591.773,-415.821 587.656,-406.058 584.787,-416.257 591.773,-415.821"/>
</g>
<!-- 15 -->
<g id="node16" class="node"><title>15</title>
<path fill="#399de5" fill-opacity="0.364706" stroke="black" d="M760.957,-406C760.957,-406 671.598,-406 671.598,-406 665.598,-406 659.598,-400 659.598,-394 659.598,-394 659.598,-340 659.598,-340 659.598,-334 665.598,-328 671.598,-328 671.598,-328 760.957,-328 760.957,-328 766.957,-328 772.957,-334 772.957,-340 772.957,-340 772.957,-394 772.957,-394 772.957,-400 766.957,-406 760.957,-406"/>
<text text-anchor="start" x="667.688" y="-390.8" font-family="Helvetica,sans-Serif" font-size="14.00">bedrooms ≤ 4.5</text>
<text text-anchor="start" x="675.993" y="-376.8" font-family="Helvetica,sans-Serif" font-size="14.00">gini = 0.4749</text>
<text text-anchor="start" x="674.448" y="-362.8" font-family="Helvetica,sans-Serif" font-size="14.00">samples = 67</text>
<text text-anchor="start" x="668.214" y="-348.8" font-family="Helvetica,sans-Serif" font-size="14.00">value = [26, 41]</text>
<text text-anchor="start" x="688.458" y="-334.8" font-family="Helvetica,sans-Serif" font-size="14.00">class = 1</text>
</g>
<!-- 11&#45;&gt;15 -->
<g id="edge15" class="edge"><title>11&#45;&gt;15</title>
<path fill="none" stroke="black" d="M634.604,-441.769C644.879,-432.488 655.959,-422.481 666.542,-412.923"/>
<polygon fill="black" stroke="black" points="669.066,-415.359 674.141,-406.058 664.374,-410.164 669.066,-415.359"/>
</g>
<!-- 13 -->
<g id="node14" class="node"><title>13</title>
<path fill="#e58139" fill-opacity="0.113725" stroke="black" d="M503.404,-285C503.404,-285 415.15,-285 415.15,-285 409.15,-285 403.15,-279 403.15,-273 403.15,-273 403.15,-233 403.15,-233 403.15,-227 409.15,-221 415.15,-221 415.15,-221 503.404,-221 503.404,-221 509.404,-221 515.404,-227 515.404,-233 515.404,-233 515.404,-273 515.404,-273 515.404,-279 509.404,-285 503.404,-285"/>
<text text-anchor="start" x="418.993" y="-269.8" font-family="Helvetica,sans-Serif" font-size="14.00">gini = 0.4981</text>
<text text-anchor="start" x="417.448" y="-255.8" font-family="Helvetica,sans-Serif" font-size="14.00">samples = 98</text>
<text text-anchor="start" x="411.214" y="-241.8" font-family="Helvetica,sans-Serif" font-size="14.00">value = [52, 46]</text>
<text text-anchor="start" x="431.458" y="-227.8" font-family="Helvetica,sans-Serif" font-size="14.00">class = 0</text>
</g>
<!-- 12&#45;&gt;13 -->
<g id="edge13" class="edge"><title>12&#45;&gt;13</title>
<path fill="none" stroke="black" d="M542.268,-327.769C529.157,-316.115 514.757,-303.315 501.686,-291.697"/>
<polygon fill="black" stroke="black" points="503.963,-289.038 494.164,-285.01 499.312,-294.27 503.963,-289.038"/>
</g>
<!-- 14 -->
<g id="node15" class="node"><title>14</title>
<path fill="#e58139" fill-opacity="0.462745" stroke="black" d="M625.619,-285C625.619,-285 544.936,-285 544.936,-285 538.936,-285 532.936,-279 532.936,-273 532.936,-273 532.936,-233 532.936,-233 532.936,-227 538.936,-221 544.936,-221 544.936,-221 625.619,-221 625.619,-221 631.619,-221 637.619,-227 637.619,-233 637.619,-233 637.619,-273 637.619,-273 637.619,-279 631.619,-285 625.619,-285"/>
<text text-anchor="start" x="548.886" y="-269.8" font-family="Helvetica,sans-Serif" font-size="14.00">gini = 0.455</text>
<text text-anchor="start" x="543.448" y="-255.8" font-family="Helvetica,sans-Serif" font-size="14.00">samples = 20</text>
<text text-anchor="start" x="541.107" y="-241.8" font-family="Helvetica,sans-Serif" font-size="14.00">value = [13, 7]</text>
<text text-anchor="start" x="557.458" y="-227.8" font-family="Helvetica,sans-Serif" font-size="14.00">class = 0</text>
</g>
<!-- 12&#45;&gt;14 -->
<g id="edge14" class="edge"><title>12&#45;&gt;14</title>
<path fill="none" stroke="black" d="M585.277,-327.769C585.277,-317.313 585.277,-305.935 585.277,-295.315"/>
<polygon fill="black" stroke="black" points="588.777,-295.01 585.277,-285.01 581.777,-295.01 588.777,-295.01"/>
</g>
<!-- 16 -->
<g id="node17" class="node"><title>16</title>
<path fill="#399de5" fill-opacity="0.349020" stroke="black" d="M756.957,-292C756.957,-292 667.598,-292 667.598,-292 661.598,-292 655.598,-286 655.598,-280 655.598,-280 655.598,-226 655.598,-226 655.598,-220 661.598,-214 667.598,-214 667.598,-214 756.957,-214 756.957,-214 762.957,-214 768.957,-220 768.957,-226 768.957,-226 768.957,-280 768.957,-280 768.957,-286 762.957,-292 756.957,-292"/>
<text text-anchor="start" x="663.688" y="-276.8" font-family="Helvetica,sans-Serif" font-size="14.00">bedrooms ≤ 3.5</text>
<text text-anchor="start" x="671.993" y="-262.8" font-family="Helvetica,sans-Serif" font-size="14.00">gini = 0.4775</text>
<text text-anchor="start" x="670.448" y="-248.8" font-family="Helvetica,sans-Serif" font-size="14.00">samples = 66</text>
<text text-anchor="start" x="664.214" y="-234.8" font-family="Helvetica,sans-Serif" font-size="14.00">value = [26, 40]</text>
<text text-anchor="start" x="684.458" y="-220.8" font-family="Helvetica,sans-Serif" font-size="14.00">class = 1</text>
</g>
<!-- 15&#45;&gt;16 -->
<g id="edge16" class="edge"><title>15&#45;&gt;16</title>
<path fill="none" stroke="black" d="M714.912,-327.769C714.619,-319.57 714.306,-310.803 714.002,-302.28"/>
<polygon fill="black" stroke="black" points="717.491,-301.927 713.637,-292.058 710.496,-302.177 717.491,-301.927"/>
</g>
<!-- 19 -->
<g id="node20" class="node"><title>19</title>
<path fill="#399de5" stroke="black" d="M871.333,-285C871.333,-285 799.222,-285 799.222,-285 793.222,-285 787.222,-279 787.222,-273 787.222,-273 787.222,-233 787.222,-233 787.222,-227 793.222,-221 799.222,-221 799.222,-221 871.333,-221 871.333,-221 877.333,-221 883.333,-227 883.333,-233 883.333,-233 883.333,-273 883.333,-273 883.333,-279 877.333,-285 871.333,-285"/>
<text text-anchor="start" x="806.672" y="-269.8" font-family="Helvetica,sans-Serif" font-size="14.00">gini = 0.0</text>
<text text-anchor="start" x="797.341" y="-255.8" font-family="Helvetica,sans-Serif" font-size="14.00">samples = 1</text>
<text text-anchor="start" x="795" y="-241.8" font-family="Helvetica,sans-Serif" font-size="14.00">value = [0, 1]</text>
<text text-anchor="start" x="807.458" y="-227.8" font-family="Helvetica,sans-Serif" font-size="14.00">class = 1</text>
</g>
<!-- 15&#45;&gt;19 -->
<g id="edge19" class="edge"><title>15&#45;&gt;19</title>
<path fill="none" stroke="black" d="M756.898,-327.769C769.164,-316.224 782.626,-303.555 794.878,-292.023"/>
<polygon fill="black" stroke="black" points="797.446,-294.412 802.329,-285.01 792.648,-289.315 797.446,-294.412"/>
</g>
<!-- 17 -->
<g id="node18" class="node"><title>17</title>
<path fill="#399de5" fill-opacity="0.321569" stroke="black" d="M664.404,-171C664.404,-171 576.15,-171 576.15,-171 570.15,-171 564.15,-165 564.15,-159 564.15,-159 564.15,-119 564.15,-119 564.15,-113 570.15,-107 576.15,-107 576.15,-107 664.404,-107 664.404,-107 670.404,-107 676.404,-113 676.404,-119 676.404,-119 676.404,-159 676.404,-159 676.404,-165 670.404,-171 664.404,-171"/>
<text text-anchor="start" x="579.993" y="-155.8" font-family="Helvetica,sans-Serif" font-size="14.00">gini = 0.4814</text>
<text text-anchor="start" x="578.448" y="-141.8" font-family="Helvetica,sans-Serif" font-size="14.00">samples = 57</text>
<text text-anchor="start" x="572.214" y="-127.8" font-family="Helvetica,sans-Serif" font-size="14.00">value = [23, 34]</text>
<text text-anchor="start" x="592.458" y="-113.8" font-family="Helvetica,sans-Serif" font-size="14.00">class = 1</text>
</g>
<!-- 16&#45;&gt;17 -->
<g id="edge17" class="edge"><title>16&#45;&gt;17</title>
<path fill="none" stroke="black" d="M680.873,-213.769C671.658,-202.551 661.571,-190.271 652.317,-179.005"/>
<polygon fill="black" stroke="black" points="654.802,-176.516 645.75,-171.01 649.393,-180.959 654.802,-176.516"/>
</g>
<!-- 18 -->
<g id="node19" class="node"><title>18</title>
<path fill="#399de5" fill-opacity="0.498039" stroke="black" d="M778.347,-171C778.347,-171 706.208,-171 706.208,-171 700.208,-171 694.208,-165 694.208,-159 694.208,-159 694.208,-119 694.208,-119 694.208,-113 700.208,-107 706.208,-107 706.208,-107 778.347,-107 778.347,-107 784.347,-107 790.347,-113 790.347,-119 790.347,-119 790.347,-159 790.347,-159 790.347,-165 784.347,-171 778.347,-171"/>
<text text-anchor="start" x="701.993" y="-155.8" font-family="Helvetica,sans-Serif" font-size="14.00">gini = 0.4444</text>
<text text-anchor="start" x="704.341" y="-141.8" font-family="Helvetica,sans-Serif" font-size="14.00">samples = 9</text>
<text text-anchor="start" x="702" y="-127.8" font-family="Helvetica,sans-Serif" font-size="14.00">value = [3, 6]</text>
<text text-anchor="start" x="714.458" y="-113.8" font-family="Helvetica,sans-Serif" font-size="14.00">class = 1</text>
</g>
<!-- 16&#45;&gt;18 -->
<g id="edge18" class="edge"><title>16&#45;&gt;18</title>
<path fill="none" stroke="black" d="M722.518,-213.769C725.348,-203.204 728.43,-191.698 731.3,-180.983"/>
<polygon fill="black" stroke="black" points="734.764,-181.575 733.971,-171.01 728.003,-179.764 734.764,-181.575"/>
</g>
<!-- 21 -->
<g id="node22" class="node"><title>21</title>
<path fill="#399de5" fill-opacity="0.796078" stroke="black" d="M1054.85,-406C1054.85,-406 961.708,-406 961.708,-406 955.708,-406 949.708,-400 949.708,-394 949.708,-394 949.708,-340 949.708,-340 949.708,-334 955.708,-328 961.708,-328 961.708,-328 1054.85,-328 1054.85,-328 1060.85,-328 1066.85,-334 1066.85,-340 1066.85,-340 1066.85,-394 1066.85,-394 1066.85,-400 1060.85,-406 1054.85,-406"/>
<text text-anchor="start" x="957.743" y="-390.8" font-family="Helvetica,sans-Serif" font-size="14.00">bathrooms ≤ 2.5</text>
<text text-anchor="start" x="967.993" y="-376.8" font-family="Helvetica,sans-Serif" font-size="14.00">gini = 0.2828</text>
<text text-anchor="start" x="966.448" y="-362.8" font-family="Helvetica,sans-Serif" font-size="14.00">samples = 88</text>
<text text-anchor="start" x="960.214" y="-348.8" font-family="Helvetica,sans-Serif" font-size="14.00">value = [15, 73]</text>
<text text-anchor="start" x="980.458" y="-334.8" font-family="Helvetica,sans-Serif" font-size="14.00">class = 1</text>
</g>
<!-- 20&#45;&gt;21 -->
<g id="edge21" class="edge"><title>20&#45;&gt;21</title>
<path fill="none" stroke="black" d="M1008.28,-441.769C1008.28,-433.57 1008.28,-424.803 1008.28,-416.28"/>
<polygon fill="black" stroke="black" points="1011.78,-416.058 1008.28,-406.058 1004.78,-416.059 1011.78,-416.058"/>
</g>
<!-- 30 -->
<g id="node31" class="node"><title>30</title>
<path fill="#e58139" fill-opacity="0.498039" stroke="black" d="M1240.85,-406C1240.85,-406 1147.71,-406 1147.71,-406 1141.71,-406 1135.71,-400 1135.71,-394 1135.71,-394 1135.71,-340 1135.71,-340 1135.71,-334 1141.71,-328 1147.71,-328 1147.71,-328 1240.85,-328 1240.85,-328 1246.85,-328 1252.85,-334 1252.85,-340 1252.85,-340 1252.85,-394 1252.85,-394 1252.85,-400 1246.85,-406 1240.85,-406"/>
<text text-anchor="start" x="1143.74" y="-390.8" font-family="Helvetica,sans-Serif" font-size="14.00">bathrooms ≤ 2.5</text>
<text text-anchor="start" x="1153.99" y="-376.8" font-family="Helvetica,sans-Serif" font-size="14.00">gini = 0.4444</text>
<text text-anchor="start" x="1156.34" y="-362.8" font-family="Helvetica,sans-Serif" font-size="14.00">samples = 3</text>
<text text-anchor="start" x="1154" y="-348.8" font-family="Helvetica,sans-Serif" font-size="14.00">value = [2, 1]</text>
<text text-anchor="start" x="1166.46" y="-334.8" font-family="Helvetica,sans-Serif" font-size="14.00">class = 0</text>
</g>
<!-- 20&#45;&gt;30 -->
<g id="edge30" class="edge"><title>20&#45;&gt;30</title>
<path fill="none" stroke="black" d="M1065.09,-445.788C1084.63,-434.023 1106.69,-420.739 1126.98,-408.521"/>
<polygon fill="black" stroke="black" points="1128.8,-411.515 1135.56,-403.358 1125.19,-405.518 1128.8,-411.515"/>
</g>
<!-- 22 -->
<g id="node23" class="node"><title>22</title>
<path fill="#399de5" fill-opacity="0.784314" stroke="black" d="M1001.4,-292C1001.4,-292 913.15,-292 913.15,-292 907.15,-292 901.15,-286 901.15,-280 901.15,-280 901.15,-226 901.15,-226 901.15,-220 907.15,-214 913.15,-214 913.15,-214 1001.4,-214 1001.4,-214 1007.4,-214 1013.4,-220 1013.4,-226 1013.4,-226 1013.4,-280 1013.4,-280 1013.4,-286 1007.4,-292 1001.4,-292"/>
<text text-anchor="start" x="915.688" y="-276.8" font-family="Helvetica,sans-Serif" font-size="14.00">fullbase ≤ 0.5</text>
<text text-anchor="start" x="916.993" y="-262.8" font-family="Helvetica,sans-Serif" font-size="14.00">gini = 0.2907</text>
<text text-anchor="start" x="915.448" y="-248.8" font-family="Helvetica,sans-Serif" font-size="14.00">samples = 85</text>
<text text-anchor="start" x="909.214" y="-234.8" font-family="Helvetica,sans-Serif" font-size="14.00">value = [15, 70]</text>
<text text-anchor="start" x="929.458" y="-220.8" font-family="Helvetica,sans-Serif" font-size="14.00">class = 1</text>
</g>
<!-- 21&#45;&gt;22 -->
<g id="edge22" class="edge"><title>21&#45;&gt;22</title>
<path fill="none" stroke="black" d="M990.869,-327.769C987.012,-319.299 982.88,-310.225 978.878,-301.438"/>
<polygon fill="black" stroke="black" points="981.937,-299.709 974.608,-292.058 975.566,-302.61 981.937,-299.709"/>
</g>
<!-- 29 -->
<g id="node30" class="node"><title>29</title>
<path fill="#399de5" stroke="black" d="M1115.33,-285C1115.33,-285 1043.22,-285 1043.22,-285 1037.22,-285 1031.22,-279 1031.22,-273 1031.22,-273 1031.22,-233 1031.22,-233 1031.22,-227 1037.22,-221 1043.22,-221 1043.22,-221 1115.33,-221 1115.33,-221 1121.33,-221 1127.33,-227 1127.33,-233 1127.33,-233 1127.33,-273 1127.33,-273 1127.33,-279 1121.33,-285 1115.33,-285"/>
<text text-anchor="start" x="1050.67" y="-269.8" font-family="Helvetica,sans-Serif" font-size="14.00">gini = 0.0</text>
<text text-anchor="start" x="1041.34" y="-255.8" font-family="Helvetica,sans-Serif" font-size="14.00">samples = 3</text>
<text text-anchor="start" x="1039" y="-241.8" font-family="Helvetica,sans-Serif" font-size="14.00">value = [0, 3]</text>
<text text-anchor="start" x="1051.46" y="-227.8" font-family="Helvetica,sans-Serif" font-size="14.00">class = 1</text>
</g>
<!-- 21&#45;&gt;29 -->
<g id="edge29" class="edge"><title>21&#45;&gt;29</title>
<path fill="none" stroke="black" d="M1032.51,-327.769C1039.49,-316.769 1047.11,-304.747 1054.13,-293.662"/>
<polygon fill="black" stroke="black" points="1057.22,-295.33 1059.62,-285.01 1051.31,-291.582 1057.22,-295.33"/>
</g>
<!-- 23 -->
<g id="node24" class="node"><title>23</title>
<path fill="#399de5" fill-opacity="0.776471" stroke="black" d="M970.957,-178C970.957,-178 881.598,-178 881.598,-178 875.598,-178 869.598,-172 869.598,-166 869.598,-166 869.598,-112 869.598,-112 869.598,-106 875.598,-100 881.598,-100 881.598,-100 970.957,-100 970.957,-100 976.957,-100 982.957,-106 982.957,-112 982.957,-112 982.957,-166 982.957,-166 982.957,-172 976.957,-178 970.957,-178"/>
<text text-anchor="start" x="877.688" y="-162.8" font-family="Helvetica,sans-Serif" font-size="14.00">bedrooms ≤ 3.5</text>
<text text-anchor="start" x="885.993" y="-148.8" font-family="Helvetica,sans-Serif" font-size="14.00">gini = 0.2999</text>
<text text-anchor="start" x="884.448" y="-134.8" font-family="Helvetica,sans-Serif" font-size="14.00">samples = 49</text>
<text text-anchor="start" x="882.107" y="-120.8" font-family="Helvetica,sans-Serif" font-size="14.00">value = [9, 40]</text>
<text text-anchor="start" x="898.458" y="-106.8" font-family="Helvetica,sans-Serif" font-size="14.00">class = 1</text>
</g>
<!-- 22&#45;&gt;23 -->
<g id="edge23" class="edge"><title>22&#45;&gt;23</title>
<path fill="none" stroke="black" d="M946.696,-213.769C944.376,-205.389 941.893,-196.418 939.485,-187.718"/>
<polygon fill="black" stroke="black" points="942.852,-186.762 936.811,-178.058 936.106,-188.63 942.852,-186.762"/>
</g>
<!-- 26 -->
<g id="node27" class="node"><title>26</title>
<path fill="#399de5" fill-opacity="0.800000" stroke="black" d="M1101.96,-178C1101.96,-178 1012.6,-178 1012.6,-178 1006.6,-178 1000.6,-172 1000.6,-166 1000.6,-166 1000.6,-112 1000.6,-112 1000.6,-106 1006.6,-100 1012.6,-100 1012.6,-100 1101.96,-100 1101.96,-100 1107.96,-100 1113.96,-106 1113.96,-112 1113.96,-112 1113.96,-166 1113.96,-166 1113.96,-172 1107.96,-178 1101.96,-178"/>
<text text-anchor="start" x="1008.69" y="-162.8" font-family="Helvetica,sans-Serif" font-size="14.00">bedrooms ≤ 3.5</text>
<text text-anchor="start" x="1016.99" y="-148.8" font-family="Helvetica,sans-Serif" font-size="14.00">gini = 0.2778</text>
<text text-anchor="start" x="1015.45" y="-134.8" font-family="Helvetica,sans-Serif" font-size="14.00">samples = 36</text>
<text text-anchor="start" x="1013.11" y="-120.8" font-family="Helvetica,sans-Serif" font-size="14.00">value = [6, 30]</text>
<text text-anchor="start" x="1029.46" y="-106.8" font-family="Helvetica,sans-Serif" font-size="14.00">class = 1</text>
</g>
<!-- 22&#45;&gt;26 -->
<g id="edge26" class="edge"><title>22&#45;&gt;26</title>
<path fill="none" stroke="black" d="M991.412,-213.769C999.457,-204.759 1008.11,-195.064 1016.42,-185.759"/>
<polygon fill="black" stroke="black" points="1019.25,-187.849 1023.3,-178.058 1014.03,-183.187 1019.25,-187.849"/>
</g>
<!-- 24 -->
<g id="node25" class="node"><title>24</title>
<path fill="#399de5" fill-opacity="0.784314" stroke="black" d="M846.619,-64C846.619,-64 765.936,-64 765.936,-64 759.936,-64 753.936,-58 753.936,-52 753.936,-52 753.936,-12 753.936,-12 753.936,-6 759.936,-0 765.936,-0 765.936,-0 846.619,-0 846.619,-0 852.619,-0 858.619,-6 858.619,-12 858.619,-12 858.619,-52 858.619,-52 858.619,-58 852.619,-64 846.619,-64"/>
<text text-anchor="start" x="765.993" y="-48.8" font-family="Helvetica,sans-Serif" font-size="14.00">gini = 0.2934</text>
<text text-anchor="start" x="764.448" y="-34.8" font-family="Helvetica,sans-Serif" font-size="14.00">samples = 28</text>
<text text-anchor="start" x="762.107" y="-20.8" font-family="Helvetica,sans-Serif" font-size="14.00">value = [5, 23]</text>
<text text-anchor="start" x="778.458" y="-6.8" font-family="Helvetica,sans-Serif" font-size="14.00">class = 1</text>
</g>
<!-- 23&#45;&gt;24 -->
<g id="edge24" class="edge"><title>23&#45;&gt;24</title>
<path fill="none" stroke="black" d="M882.615,-99.7956C871.83,-90.3587 860.283,-80.2547 849.518,-70.8355"/>
<polygon fill="black" stroke="black" points="851.67,-68.0682 841.84,-64.1172 847.061,-73.3363 851.67,-68.0682"/>
</g>
<!-- 25 -->
<g id="node26" class="node"><title>25</title>
<path fill="#399de5" fill-opacity="0.764706" stroke="black" d="M968.619,-64C968.619,-64 887.936,-64 887.936,-64 881.936,-64 875.936,-58 875.936,-52 875.936,-52 875.936,-12 875.936,-12 875.936,-6 881.936,-0 887.936,-0 887.936,-0 968.619,-0 968.619,-0 974.619,-0 980.619,-6 980.619,-12 980.619,-12 980.619,-52 980.619,-52 980.619,-58 974.619,-64 968.619,-64"/>
<text text-anchor="start" x="887.993" y="-48.8" font-family="Helvetica,sans-Serif" font-size="14.00">gini = 0.3084</text>
<text text-anchor="start" x="886.448" y="-34.8" font-family="Helvetica,sans-Serif" font-size="14.00">samples = 21</text>
<text text-anchor="start" x="884.107" y="-20.8" font-family="Helvetica,sans-Serif" font-size="14.00">value = [4, 17]</text>
<text text-anchor="start" x="900.458" y="-6.8" font-family="Helvetica,sans-Serif" font-size="14.00">class = 1</text>
</g>
<!-- 23&#45;&gt;25 -->
<g id="edge25" class="edge"><title>23&#45;&gt;25</title>
<path fill="none" stroke="black" d="M927.005,-99.7956C927.164,-91.4581 927.333,-82.6 927.493,-74.1534"/>
<polygon fill="black" stroke="black" points="930.993,-74.182 927.685,-64.1172 923.995,-74.0487 930.993,-74.182"/>
</g>
<!-- 27 -->
<g id="node28" class="node"><title>27</title>
<path fill="#399de5" fill-opacity="0.788235" stroke="black" d="M1094.62,-64C1094.62,-64 1013.94,-64 1013.94,-64 1007.94,-64 1001.94,-58 1001.94,-52 1001.94,-52 1001.94,-12 1001.94,-12 1001.94,-6 1007.94,-0 1013.94,-0 1013.94,-0 1094.62,-0 1094.62,-0 1100.62,-0 1106.62,-6 1106.62,-12 1106.62,-12 1106.62,-52 1106.62,-52 1106.62,-58 1100.62,-64 1094.62,-64"/>
<text text-anchor="start" x="1013.99" y="-48.8" font-family="Helvetica,sans-Serif" font-size="14.00">gini = 0.2873</text>
<text text-anchor="start" x="1012.45" y="-34.8" font-family="Helvetica,sans-Serif" font-size="14.00">samples = 23</text>
<text text-anchor="start" x="1010.11" y="-20.8" font-family="Helvetica,sans-Serif" font-size="14.00">value = [4, 19]</text>
<text text-anchor="start" x="1026.46" y="-6.8" font-family="Helvetica,sans-Serif" font-size="14.00">class = 1</text>
</g>
<!-- 26&#45;&gt;27 -->
<g id="edge27" class="edge"><title>26&#45;&gt;27</title>
<path fill="none" stroke="black" d="M1056.19,-99.7956C1055.95,-91.4581 1055.69,-82.6 1055.45,-74.1534"/>
<polygon fill="black" stroke="black" points="1058.95,-74.0131 1055.17,-64.1172 1051.95,-74.2131 1058.95,-74.0131"/>
</g>
<!-- 28 -->
<g id="node29" class="node"><title>28</title>
<path fill="#399de5" fill-opacity="0.819608" stroke="black" d="M1216.09,-64C1216.09,-64 1136.47,-64 1136.47,-64 1130.47,-64 1124.47,-58 1124.47,-52 1124.47,-52 1124.47,-12 1124.47,-12 1124.47,-6 1130.47,-0 1136.47,-0 1136.47,-0 1216.09,-0 1216.09,-0 1222.09,-0 1228.09,-6 1228.09,-12 1228.09,-12 1228.09,-52 1228.09,-52 1228.09,-58 1222.09,-64 1216.09,-64"/>
<text text-anchor="start" x="1135.99" y="-48.8" font-family="Helvetica,sans-Serif" font-size="14.00">gini = 0.2604</text>
<text text-anchor="start" x="1134.45" y="-34.8" font-family="Helvetica,sans-Serif" font-size="14.00">samples = 13</text>
<text text-anchor="start" x="1132.62" y="-20.8" font-family="Helvetica,sans-Serif" font-size="14.00">value = [2, 11]</text>
<text text-anchor="start" x="1148.46" y="-6.8" font-family="Helvetica,sans-Serif" font-size="14.00">class = 1</text>
</g>
<!-- 26&#45;&gt;28 -->
<g id="edge28" class="edge"><title>26&#45;&gt;28</title>
<path fill="none" stroke="black" d="M1100.58,-99.7956C1111.27,-90.3587 1122.72,-80.2547 1133.4,-70.8355"/>
<polygon fill="black" stroke="black" points="1135.83,-73.3579 1141.01,-64.1172 1131.2,-68.109 1135.83,-73.3579"/>
</g>
<!-- 31 -->
<g id="node32" class="node"><title>31</title>
<path fill="#e58139" stroke="black" d="M1230.33,-285C1230.33,-285 1158.22,-285 1158.22,-285 1152.22,-285 1146.22,-279 1146.22,-273 1146.22,-273 1146.22,-233 1146.22,-233 1146.22,-227 1152.22,-221 1158.22,-221 1158.22,-221 1230.33,-221 1230.33,-221 1236.33,-221 1242.33,-227 1242.33,-233 1242.33,-233 1242.33,-273 1242.33,-273 1242.33,-279 1236.33,-285 1230.33,-285"/>
<text text-anchor="start" x="1165.67" y="-269.8" font-family="Helvetica,sans-Serif" font-size="14.00">gini = 0.0</text>
<text text-anchor="start" x="1156.34" y="-255.8" font-family="Helvetica,sans-Serif" font-size="14.00">samples = 2</text>
<text text-anchor="start" x="1154" y="-241.8" font-family="Helvetica,sans-Serif" font-size="14.00">value = [2, 0]</text>
<text text-anchor="start" x="1166.46" y="-227.8" font-family="Helvetica,sans-Serif" font-size="14.00">class = 0</text>
</g>
<!-- 30&#45;&gt;31 -->
<g id="edge31" class="edge"><title>30&#45;&gt;31</title>
<path fill="none" stroke="black" d="M1194.28,-327.769C1194.28,-317.313 1194.28,-305.935 1194.28,-295.315"/>
<polygon fill="black" stroke="black" points="1197.78,-295.01 1194.28,-285.01 1190.78,-295.01 1197.78,-295.01"/>
</g>
<!-- 32 -->
<g id="node33" class="node"><title>32</title>
<path fill="#399de5" stroke="black" d="M1345.33,-285C1345.33,-285 1273.22,-285 1273.22,-285 1267.22,-285 1261.22,-279 1261.22,-273 1261.22,-273 1261.22,-233 1261.22,-233 1261.22,-227 1267.22,-221 1273.22,-221 1273.22,-221 1345.33,-221 1345.33,-221 1351.33,-221 1357.33,-227 1357.33,-233 1357.33,-233 1357.33,-273 1357.33,-273 1357.33,-279 1351.33,-285 1345.33,-285"/>
<text text-anchor="start" x="1280.67" y="-269.8" font-family="Helvetica,sans-Serif" font-size="14.00">gini = 0.0</text>
<text text-anchor="start" x="1271.34" y="-255.8" font-family="Helvetica,sans-Serif" font-size="14.00">samples = 1</text>
<text text-anchor="start" x="1269" y="-241.8" font-family="Helvetica,sans-Serif" font-size="14.00">value = [0, 1]</text>
<text text-anchor="start" x="1281.46" y="-227.8" font-family="Helvetica,sans-Serif" font-size="14.00">class = 1</text>
</g>
<!-- 30&#45;&gt;32 -->
<g id="edge32" class="edge"><title>30&#45;&gt;32</title>
<path fill="none" stroke="black" d="M1233.53,-327.769C1245.39,-316.224 1258.4,-303.555 1270.24,-292.023"/>
<polygon fill="black" stroke="black" points="1272.71,-294.494 1277.44,-285.01 1267.83,-289.48 1272.71,-294.494"/>
</g>
</g>
</svg>
